<?xml version="1.0" encoding="UTF-8" standalone="no"?>
<!DOCTYPE svg PUBLIC "-//W3C//DTD SVG 1.1//EN" "http://www.w3.org/Graphics/SVG/1.1/DTD/svg11.dtd">
<svg width="100%" height="100%" viewBox="0 0 585 829" version="1.1" xmlns="http://www.w3.org/2000/svg" xmlns:xlink="http://www.w3.org/1999/xlink" xml:space="preserve" xmlns:serif="http://www.serif.com/" style="fill-rule:evenodd;clip-rule:evenodd;stroke-linejoin:round;stroke-miterlimit:1.41421;">
    <g transform="matrix(1,0,0,1,313.013,296.048)">
        <path d="M0,236.924C-0.642,238.018 0,238.449 0,239.539C0,240.582 -0.525,241.524 -1.011,242.493C-1.619,243.711 -2.438,244.229 -3.363,244.955C-3.904,245.38 -3.975,244.545 -4.298,245.516C-4.474,246.046 -4.484,246.459 -4.484,247.012C-4.484,248.225 -5.438,249.229 -5.231,250.561C-5.022,251.912 -4.055,252.108 -3.177,252.99C-1.627,254.548 -0.33,255.355 0,257.658C0.127,258.542 0,259.57 0,260.461C0,260.611 -0.305,260.902 -0.375,261.397C-0.442,261.867 -0.24,262.438 -0.375,262.89C-0.951,264.83 -3.201,265.164 -3.363,267.374C-3.498,269.217 -2.629,270.739 -2.99,272.604C-3.383,274.627 -4.484,276.136 -4.484,278.448C-4.484,282.064 -5.851,286.059 -6.353,289.792C-6.463,290.612 -6.63,291.324 -6.727,292.033C-6.776,292.401 -6.674,292.788 -6.727,293.154C-6.794,293.622 -7.101,293.959 -7.101,294.088C-7.101,294.801 -9.012,295.815 -9.521,296.324C-10.006,296.811 -10.462,298.253 -10.462,298.945C-10.462,299.869 -10.156,300.432 -10.088,301.374C-10.057,301.805 -10.088,302.25 -10.088,302.682C-10.088,303.423 -9.916,303.289 -9.715,303.614C-8.884,304.957 -6.973,305.857 -5.231,305.857C-4.273,305.857 -3.409,305.684 -2.99,306.23C-2.623,306.708 -2.607,306.157 -2.99,306.978C-3.231,307.495 -4.097,308.07 -4.484,308.474C-5.803,309.846 -6.746,311.813 -7.848,313.703C-8.397,314.647 -8.594,315.044 -8.594,316.131C-8.594,317.105 -6.727,317.895 -6.727,318.746C-6.727,320.152 -3.748,320.315 -4.484,322.67C-4.598,323.032 -5.604,323.823 -5.604,324.725C-5.604,324.944 -6.056,325.659 -6.166,325.659C-6.386,325.659 -6.651,326.854 -6.727,327.154C-6.954,328.067 -7.101,328.979 -7.101,329.949C-7.101,330.359 -7.473,330.568 -7.473,331.076C-7.473,331.244 -7.768,332.549 -7.848,332.759C-8.423,334.275 -9.796,336.182 -10.462,337.24C-11.399,338.731 -12.064,340.176 -13.451,340.603C-14.229,340.842 -14.805,341.135 -15.319,341.352C-16.454,341.829 -16.44,341.933 -16.814,343.219C-17.038,343.988 -17.187,344.524 -17.187,345.462C-17.187,346.308 -16.814,347.259 -16.814,347.891C-16.814,348.902 -15.763,349.625 -15.693,350.693C-15.613,351.93 -16.355,352.761 -16.911,353.875C-17.941,355.942 -17.187,357.32 -17.187,359.471C-17.187,360.252 -16.814,360.82 -16.814,361.713C-16.814,362.641 -18.711,363.424 -19.235,363.949C-19.533,364.249 -20.461,364.896 -20.549,365.263C-20.669,365.758 -20.177,366.102 -20.177,366.572C-20.177,367.595 -18.818,368.358 -18.682,368.999C-18.467,370.014 -19.06,370.627 -19.803,371.24C-20.156,371.531 -20.741,371.806 -21.181,372.246C-21.585,372.652 -20.923,373.3 -20.923,373.775C-20.923,374.951 -20.312,378.854 -21.11,379.649C-21.765,380.3 -22.417,380.295 -22.417,381.141C-22.417,382.19 -22.192,383.049 -21.484,383.758C-20.624,384.618 -20.798,385.066 -19.242,385.066C-18.398,385.066 -17.671,385.631 -17.56,386.185C-17.269,387.626 -18.308,386.885 -18.308,387.867C-18.308,388.271 -16.783,389.577 -16.246,390.116C-14.914,391.451 -15.006,393.998 -16.067,395.153C-16.567,395.698 -18.308,396.29 -18.308,397.215C-18.308,397.955 -18.417,399.262 -17.747,399.262C-17.253,399.262 -17.354,400.628 -17.187,401.133C-16.971,401.784 -17.056,401.773 -16.814,402.252C-16.382,403.109 -16.067,402.911 -16.067,403.927C-16.067,405.797 -18.886,408.434 -19.99,409.537C-21.012,410.561 -21.951,411.778 -23.736,412.971C-24.442,413.443 -25.408,414.3 -25.408,415.141L-25.408,416.264C-25.408,416.984 -25.188,416.899 -25.034,417.195C-24.813,417.624 -24.633,417.879 -24.286,418.318C-24.045,418.621 -24.148,418.574 -23.912,419.066C-23.792,419.313 -23.625,419.208 -23.539,419.813C-23.479,420.239 -23.474,420.89 -23.539,421.306C-23.669,422.138 -24.286,423.095 -24.286,424.115C-24.286,424.457 -23.893,426.164 -23.726,426.164C-23.616,426.164 -23.165,426.878 -23.165,427.096C-23.165,427.823 -23.023,427.425 -22.604,427.844C-22.04,428.409 -21.127,428.573 -20.363,429.339C-19.525,430.178 -18.831,430.195 -18.682,431.396C-18.604,432.031 -19.075,433.636 -19.616,433.636C-20.184,433.636 -21.281,433.953 -22.045,434.01C-23.455,434.113 -23.251,434.471 -24.099,435.317C-24.638,435.854 -25.034,436.821 -25.034,437.567C-25.034,438.137 -24.66,438.529 -24.66,439.053C-24.66,439.854 -23.964,439.385 -23.912,439.987C-23.824,440.997 -24.958,441.777 -25.594,442.416C-25.891,442.714 -26.528,442.56 -26.528,443.164C-26.528,443.44 -27.351,444.381 -27.648,444.471C-28.532,444.737 -28.528,443.849 -29.143,443.726C-29.805,443.593 -30.799,443.885 -31.199,444.284C-31.666,444.75 -32.878,445.502 -32.878,445.778C-32.878,446.067 -35.795,446.161 -36.241,446.339C-36.709,446.526 -36.941,447.088 -37.55,447.088C-37.911,447.088 -38.315,447.032 -38.659,447.147C-39.333,447.37 -41.845,447.379 -41.845,448.395C-41.845,449.016 -43.416,449.406 -43.908,449.897C-44.41,450.398 -44.572,450.43 -44.834,450.82C-45.102,451.22 -45.096,451.831 -45.395,452.131C-45.76,452.495 -44.005,453.812 -43.901,453.812C-43.404,453.812 -42.967,455.862 -42.967,455.867C-42.967,457.928 -43.47,459.276 -42.967,460.91C-42.729,461.683 -42.724,462.32 -42.593,463.151C-42.372,464.557 -42.347,464.401 -43.341,465.395C-44.06,466.113 -44.302,466.095 -44.461,467.263C-44.619,468.415 -44.461,469.719 -44.461,470.875C-44.461,471.546 -46.245,472.697 -46.606,473.419C-46.979,474.161 -48.346,474.427 -49.319,474.736C-48.996,474.633 -50.609,475.301 -50.439,475.108C-50.871,475.6 -50.614,475.704 -50.813,476.229C-51.101,476.987 -51.454,478.071 -51.56,478.844C-51.667,479.62 -51.56,480.487 -51.56,481.274C-51.56,481.491 -52.321,482.206 -51.747,482.206C-51.574,482.206 -51.186,483.223 -51.186,483.516C-51.186,484.139 -51.334,485.342 -51.747,485.756C-52.717,486.726 -51.975,486.981 -51.56,487.81C-51.205,488.518 -51.121,489.207 -50.813,489.681C-50.087,490.802 -49.501,490.967 -49.319,492.294C-49.051,494.255 -48.945,495.363 -48.945,497.338C-48.945,499.156 -47.824,499.814 -47.824,501.822C-47.824,504.333 -45.631,505.242 -43.714,506.68C-41.581,508.278 -39.218,510.251 -38.014,512.663C-37.593,513.506 -37.5,514.751 -38.11,515.457C-38.646,516.076 -40.257,516.474 -40.353,516.954C-40.408,517.231 -39.799,518.279 -39.604,518.447C-38.907,519.051 -37.793,518.875 -37.177,518.261C-36.509,517.596 -35.699,518.012 -35.121,516.954C-34.599,516 -35.09,515.457 -33.807,515.457C-33.023,515.457 -32.047,516.171 -31.758,516.58C-31.709,516.651 -30.638,518.311 -30.638,518.261C-30.638,518.096 -28.943,519.667 -28.77,519.944C-28.59,520.23 -28.568,520.129 -28.397,520.691C-28.193,521.359 -28.023,521.521 -28.023,522.383C-28.023,525.561 -24.738,527.464 -23.539,530.031C-23.433,530.26 -22.696,531.321 -22.792,531.526C-23.117,532.225 -24.645,531.914 -25.593,531.879C-28.784,531.761 -31.994,531.526 -35.188,531.526C-59.052,531.526 -82.863,529.283 -106.739,529.283C-118.282,529.283 -129.792,528.161 -141.34,528.161C-153.231,528.161 -165.208,527.778 -177.096,527.414C-201.403,526.67 -225.726,526.168 -250.055,525.661C-252.445,525.612 -254.972,525.173 -257.282,525.173L-262.773,525.173C-263.879,525.173 -264.896,525.654 -264.896,524.426C-264.896,523.874 -264.935,523.505 -265.053,522.98C-266.117,518.237 -267.182,513.495 -268.246,508.754C-268.38,508.158 -269.303,505.82 -268.941,505.276C-268.628,504.807 -267.351,503.448 -267.608,502.936C-268.043,502.07 -267.319,501.629 -266.763,500.888C-267.487,500.493 -267.964,498.301 -267.853,497.198C-267.742,496.091 -267.631,494.984 -267.52,493.876C-267.433,493.007 -265.734,493.696 -265.27,493.789C-265.27,482.133 -264.612,470.419 -264.18,458.772C-263.8,448.533 -263.506,438.338 -262.992,428.07C-262.686,421.945 -262.444,415.819 -262.123,409.695C-261.82,403.956 -261.159,398.17 -261.159,392.424C-261.159,380.409 -259.665,368.41 -259.665,356.401C-259.665,350.76 -258.918,345.242 -258.918,339.622C-258.918,334.205 -258.17,328.695 -258.17,323.307C-258.17,313.156 -258.044,302.951 -257.327,292.918C-256.798,285.52 -256.676,278.03 -256.676,270.612C-256.676,266.784 -256.303,262.976 -256.303,259.127C-256.303,257.514 -255.323,249.384 -256.303,249.067C-255.936,248.738 -256.021,246.735 -256.116,246.639C-256.925,245.828 -254.622,244.729 -254.435,244.211C-255.176,243.654 -254.496,243.36 -254.435,242.715C-254.425,242.607 -254.917,242.479 -254.435,241.967C-254.69,242.787 -255.182,242.041 -255.182,241.408C-255.182,240.444 -255.93,240.722 -255.93,239.912C-255.93,239.459 -256.846,239.099 -257.05,238.605C-256.968,238.804 -255.481,238.254 -257.05,238.233C-256.495,237.985 -256.66,238.047 -257.05,237.486C-256.175,237.305 -257.055,237.165 -257.05,237.112C-257,236.599 -256.676,236.339 -256.676,236.176C-256.676,235.521 -256.226,236.268 -256.676,235.615C-257.073,235.039 -257.818,235.246 -258.17,234.87C-258.521,234.496 -257.603,234.604 -257.796,234.121C-258.042,233.509 -258.545,233.577 -258.545,232.814C-258.545,232.509 -259.18,232.022 -259.292,231.882C-259.54,231.572 -259.91,231.178 -260.039,230.76C-260.369,231.524 -260.793,229.967 -261.534,229.637C-262.242,229.321 -261.603,230.326 -262.281,229.637C-262.642,229.27 -262.779,229.277 -261.908,229.265C-262.591,228.642 -264.573,228.902 -265.27,227.77C-265.936,229.276 -265.879,226.649 -266.577,226.649C-267.089,226.649 -267.554,226.239 -268.259,226.275C-268.829,226.303 -269.293,226.815 -270.126,226.649C-270.13,226.648 -270.5,227.515 -270.5,226.461C-270.5,226.005 -270.874,226.544 -270.874,226.088C-270.874,225.66 -270.328,225.82 -270.126,225.529C-269.966,225.3 -269.297,224.353 -269.379,224.033C-269.332,224.217 -270.715,223.534 -270.874,223.285C-269.923,222.533 -269.118,220.511 -269.752,219.925C-267.479,218.472 -271.468,215.478 -271.622,214.694C-272.666,216.971 -272.32,212.6 -271.622,212.452C-272.232,212.061 -272.258,211.528 -272.743,211.329C-271.664,209.877 -273.478,207.575 -274.333,209.282C-274.464,209.543 -274.587,210.21 -274.797,210.21C-275.418,210.21 -275.12,209.945 -275.357,209.836C-275.552,209.747 -276.104,209.366 -276.104,209.276C-276.104,208.851 -276.581,209.225 -276.852,209.089C-277.101,208.965 -276.547,208.342 -277.039,208.342C-277.404,208.342 -277.11,209.047 -277.6,209.089C-278.067,209.129 -278.129,208.716 -278.533,208.716C-279.042,208.716 -279.074,208.998 -279.467,209.089C-279.293,209.049 -280.961,210.061 -280.961,209.276C-280.961,208.424 -281.842,209.089 -282.083,209.089C-282.872,209.089 -283.033,209.934 -283.95,209.836C-283.78,209.855 -284.324,209.22 -284.324,209.276C-284.324,208.548 -284.812,209.515 -284.698,209.463C-286.191,210.148 -285.449,211.567 -287.313,210.21C-287.669,209.951 -288.09,208.748 -288.994,209.65C-289.512,210.166 -290.692,210.26 -291.423,210.21C-292.233,210.154 -292.339,209.448 -292.918,210.21C-293.347,210.774 -292.937,210.937 -292.17,211.703C-292.536,211.836 -293.903,213.281 -294.039,213.945C-294.195,214.707 -293.048,215.225 -294.412,215.441C-294.06,215.676 -293.534,215.831 -293.291,216.189C-292.69,217.07 -293.291,216.591 -293.291,217.121C-293.291,218.087 -294.282,218.579 -294.785,218.804C-294.66,218.929 -294.536,219.053 -294.412,219.178C-295.598,220.118 -295.622,218.493 -296.28,219.925C-295.956,220.219 -295.683,220.948 -295.907,221.419C-296.162,221.952 -296.453,221.792 -297.214,221.792C-297.859,221.792 -297.028,222.928 -297.028,223.099C-297.028,223.242 -296.035,223.542 -295.907,223.659C-296.501,224.866 -297.113,224.238 -296.377,225.709C-295.98,226.501 -296.291,227.77 -297.214,227.77C-297.789,227.77 -298.128,227.678 -298.522,228.144C-299.057,228.777 -298.18,228.791 -298.522,229.265C-298.776,229.617 -300.338,230.385 -300.576,230.385C-302.204,230.385 -304.826,227.806 -306.211,226.765C-307.189,226.03 -307.179,225.384 -308.423,224.969C-309.573,224.584 -310.478,224.048 -310.478,222.727C-310.478,221.897 -309.288,220.535 -308.872,219.703C-308.591,219.142 -308.088,218.625 -307.863,218.056C-307.504,217.152 -307.682,217.585 -307.863,216.561C-308.135,215.019 -308.382,214.576 -307.612,213.229C-306.885,211.957 -306.145,211.446 -306.74,210.21C-307.598,208.429 -309.833,207.173 -309.729,205.352C-309.712,205.053 -309.154,203.398 -308.983,203.111C-308.64,202.535 -306.74,201.67 -306.74,201.431C-306.74,200.406 -305.621,199.967 -305.621,199.188C-305.621,198.204 -304.874,197.292 -304.874,196.572C-304.874,195.184 -303.378,193.27 -303.378,192.09C-303.378,190.949 -302.257,189.653 -302.257,188.729C-302.257,187.814 -302.837,187.227 -302.632,186.297C-302.465,185.543 -301.519,184.805 -300.957,184.805C-300.331,184.805 -299.492,183.346 -299.269,182.936C-298.81,182.096 -299.178,181.887 -298.522,181.067C-297.913,180.305 -297.783,179.971 -297.304,179.007C-296.896,178.187 -295.95,177.376 -295.533,176.957C-295.066,176.487 -294.394,175.996 -293.665,175.089C-293.372,174.725 -292.763,173.916 -292.544,173.223C-292.298,172.446 -292.544,171.231 -292.544,170.42C-292.544,168.245 -292.513,166.462 -291.235,165.188C-289.935,163.888 -288.64,161.31 -287.784,159.591C-287.547,159.116 -286.534,157.615 -286.566,157.155C-286.618,156.413 -287.792,155.076 -288.156,154.347C-289.172,152.316 -288.769,150.445 -291.242,149.213C-292.354,148.659 -293.144,147.703 -294.218,147.164C-294.871,146.836 -294.479,144.757 -294.972,144.266C-295.609,143.631 -295.385,142.509 -296.391,141.754C-297.725,140.751 -298.279,140.462 -298.993,139.029C-299.891,137.225 -297.297,133.941 -295.713,133.149C-294.844,132.714 -293.618,131.945 -293.291,131.375C-292.953,130.786 -292.842,129.508 -293.478,129.508C-293.729,129.508 -295.372,127.962 -295.63,127.446C-296.187,126.334 -295.85,125.228 -295.475,124.103C-294.729,121.867 -292.813,119.946 -294.295,117.728C-295.079,116.554 -295.612,115.151 -296.243,113.888C-296.935,112.504 -298.442,111.22 -299.433,110.032C-301.093,108.04 -301.254,105.091 -302.246,102.711C-302.812,101.352 -303.356,100.077 -303.713,98.653C-304.05,97.303 -303.305,95.142 -303.122,93.768C-302.817,91.473 -302.714,87.935 -303.52,85.79C-304.012,84.48 -304.69,83.091 -304.874,81.684C-305.052,80.32 -304.505,79.482 -304.344,78.196C-304.004,75.486 -303.563,72.9 -303.033,70.24C-302.709,68.613 -303.469,64.828 -305.067,64.028C-305.762,63.68 -307.24,63.252 -307.676,62.817C-308.587,61.906 -309.204,60.812 -310.302,60.445C-313.318,59.441 -312.099,56.413 -311.572,54.307C-311.229,52.929 -310.884,51.552 -310.54,50.174C-310.196,48.803 -310.348,47.296 -309.917,46.003C-309.001,43.259 -307.188,40.737 -305.897,38.15C-305.387,37.127 -305.675,35.843 -305.149,34.788C-304.434,33.348 -304.874,32.597 -304.874,31.047C-304.874,30.435 -305.541,29.963 -305.621,29.377C-305.644,29.207 -305.19,28.679 -305.246,28.256C-305.324,27.664 -305.994,27.194 -305.994,26.574C-305.994,25.943 -305.321,25.192 -304.991,24.695C-304.477,23.923 -302.823,23.31 -302.257,22.278C-301.922,21.665 -301.885,21.282 -301.885,20.59C-301.885,19.981 -301.511,19.55 -301.511,19.102C-301.511,18.169 -301.055,16.835 -300.763,15.926C-300.619,15.48 -300.519,15.067 -300.292,14.612C-299.837,13.698 -300.389,13.875 -300.389,13.117C-300.389,12.566 -300.536,11.738 -300.292,11.249C-299.863,10.388 -299.441,10.207 -298.896,9.574C-297.838,8.348 -298.522,7.288 -298.522,5.645C-298.522,4.05 -296.28,5.292 -296.28,3.418C-296.28,2.795 -295.245,2.351 -294.785,2.102C-294.105,1.735 -293.811,1.874 -293.112,1.175C-292.544,0.608 -292.46,0.279 -291.796,-0.139C-291.093,-0.581 -289.928,-0.513 -289.928,-1.634C-289.928,-2.722 -289.774,-2.909 -289.001,-3.682C-288.672,-4.011 -289.003,-4.284 -288.807,-4.623C-288.738,-4.741 -288.177,-4.622 -288.06,-4.996C-287.723,-6.066 -288.037,-6.244 -287.313,-7.238C-286.735,-8.032 -286.566,-7.705 -286.566,-8.912C-286.566,-10.16 -283.12,-9.92 -284.698,-11.722C-284.223,-12.154 -283.157,-12.118 -282.263,-12.566C-281.617,-12.889 -281.219,-13.334 -280.706,-13.847C-280.012,-14.541 -280.101,-13.964 -279.28,-13.964C-277.894,-13.964 -278.646,-15.831 -278.159,-15.831C-277.244,-15.831 -276.67,-18.616 -276.437,-19.318C-275.654,-21.668 -274.134,-24.594 -275.409,-27.143C-276.638,-29.601 -278.047,-32.499 -278.394,-35.264C-278.573,-36.694 -278.748,-38.124 -278.907,-39.556C-279.068,-41.017 -278.721,-42.148 -278.721,-43.582C-278.721,-46.667 -279.246,-49.093 -280.395,-51.962C-280.782,-52.929 -282.082,-54.193 -282.082,-55.175C-282.082,-56.792 -282.006,-58.287 -281.806,-59.891C-281.554,-61.917 -278.109,-64.265 -276.658,-65.717C-275.058,-67.318 -275.227,-70.71 -274.417,-72.733C-273.302,-75.518 -271.586,-78.055 -270.5,-80.842C-270.104,-81.857 -269.91,-83.136 -269.752,-84.205C-269.602,-85.216 -269.948,-85.87 -270.126,-86.446C-270.372,-87.242 -270.502,-87.955 -270.874,-88.688C-271.173,-89.279 -271.622,-89.719 -271.622,-90.743C-271.622,-92.667 -270.973,-94.58 -271.248,-96.534C-271.471,-98.124 -273.115,-100.429 -273.115,-101.951C-273.115,-102.709 -273.253,-106.996 -273.676,-106.996C-273.567,-106.996 -274.611,-108.39 -274.611,-108.303C-274.611,-108.968 -275.222,-109.412 -275.731,-109.985C-276.582,-110.939 -277.972,-111.202 -277.972,-113.148C-277.972,-113.905 -277.732,-115.243 -277.972,-115.962C-277.847,-115.586 -278.516,-116.862 -278.346,-116.71C-278.683,-117.011 -279.499,-116.865 -279.841,-117.082C-280.583,-117.554 -280.766,-118.036 -280.961,-118.951C-281.085,-119.533 -281.197,-121.194 -281.896,-121.194C-281.959,-121.194 -283.203,-122.499 -283.203,-122.501C-283.203,-123.485 -283.174,-124.122 -283.578,-124.929C-284.117,-126.007 -286.226,-127.182 -287.313,-127.545C-288.771,-128.031 -289.425,-129.639 -290.676,-130.907C-291.509,-131.75 -294.039,-134.13 -294.039,-135.192C-294.039,-136.5 -294.171,-137.088 -294.901,-138.181C-296.115,-139.998 -295.717,-139.376 -294.785,-140.995C-293.513,-143.204 -295.907,-144.028 -295.907,-146.027C-295.907,-147.223 -296.003,-147.442 -296.848,-148.287C-297.749,-149.19 -298.573,-149.488 -298.051,-150.53C-297.376,-151.875 -297.028,-153.428 -297.028,-155.006C-297.028,-155.164 -297.896,-156.687 -297.214,-156.687C-296.467,-156.687 -295.295,-157.989 -294.785,-158.555C-295.296,-158.644 -296.824,-160.148 -296.654,-160.797C-296.617,-160.937 -295.533,-160.817 -295.533,-161.357C-295.533,-161.83 -294.871,-162.14 -294.785,-162.666C-294.7,-163.186 -295.273,-163.27 -295.159,-163.785C-295.028,-164.379 -294.75,-163.958 -294.412,-164.533C-293.857,-165.475 -294.057,-166.028 -292.731,-166.028C-291.175,-166.028 -292.928,-167.922 -292.918,-167.895C-293.153,-168.557 -292.973,-168.269 -292.918,-169.017C-292.88,-169.541 -292.259,-169.853 -292.731,-170.325C-293.949,-171.541 -291.991,-171.405 -291.796,-171.633C-290.858,-172.725 -292.17,-172.991 -292.17,-173.687C-292.17,-173.741 -292.96,-174.247 -292.357,-174.247C-292.228,-174.247 -291.107,-174.924 -291.048,-174.995C-290.949,-175.117 -289.928,-176.695 -289.928,-177.056C-289.928,-177.307 -289.795,-178.137 -289.928,-178.358C-290.027,-178.522 -290.949,-178.193 -291.048,-178.358C-291.356,-178.871 -291.048,-180.545 -291.048,-181.159L-291.048,-194.229C-291.048,-194.676 -290.776,-196.291 -290.489,-196.291C-290.376,-196.291 -288.807,-198.272 -288.807,-198.347C-288.807,-198.732 -287.667,-200.441 -287.41,-200.954C-287.153,-201.467 -286.566,-203.023 -286.566,-203.203C-286.566,-203.927 -285.818,-204.643 -285.818,-205.451C-285.818,-206.546 -284.911,-207.285 -284.137,-208.059C-283.467,-208.731 -282.812,-209.013 -282.269,-209.555C-281.94,-209.883 -281.7,-211.984 -281.522,-211.984C-280.917,-211.984 -282.082,-217.068 -282.082,-217.775C-282.082,-218.355 -283.95,-218.442 -283.95,-219.269C-283.95,-220.319 -285.277,-220.783 -285.818,-221.324C-286.71,-222.216 -287.656,-224.686 -288.994,-224.686C-289.494,-224.686 -290.526,-225.475 -291.048,-225.807C-291.634,-226.18 -292.501,-226.71 -292.918,-227.303C-293.333,-227.89 -293.199,-228.327 -293.665,-228.797C-293.827,-228.96 -294.25,-229.381 -294.412,-229.543C-295.081,-230.209 -294.922,-229.734 -295.159,-230.664C-295.258,-231.052 -295.159,-231.573 -295.159,-231.972C-295.159,-232.307 -296.104,-232.139 -295.811,-232.726C-295.47,-233.406 -296,-233.728 -295.907,-234.026C-295.735,-234.576 -295.34,-234.602 -295.159,-235.147C-295.04,-235.507 -295.159,-236.078 -295.159,-236.456C-295.159,-237.044 -294.785,-236.909 -294.785,-237.202C-294.785,-237.495 -294.412,-237.363 -294.412,-237.95C-294.412,-238.789 -293.647,-238.261 -293.291,-238.511C-292.803,-238.853 -292.807,-239.363 -292.544,-240.005C-292.49,-240.137 -292.198,-240.251 -292.092,-240.727C-291.876,-241.701 -291.66,-242.674 -291.444,-243.647C-290.874,-246.213 -290.105,-248.826 -289.583,-251.449C-288.985,-254.447 -286.944,-255.694 -284.698,-257.191C-282.379,-258.738 -283.203,-262.11 -283.203,-264.57C-283.203,-265.847 -283.589,-267.124 -283.578,-268.4C-283.565,-269.771 -283.224,-271.203 -283.071,-272.573C-282.985,-273.353 -282.389,-275.806 -283.016,-276.433C-283.959,-277.377 -284.944,-278.255 -285.818,-279.235C-287.641,-281.278 -287.889,-283.856 -287.127,-286.147C-286.412,-288.297 -285.674,-290.359 -284.587,-292.533C-283.992,-293.723 -277.346,-293.222 -276.124,-293.265C-270.883,-293.446 -265.548,-293.806 -260.319,-293.806L-257.776,-293.806C-257.395,-293.806 -256.722,-293.424 -256.537,-293.461C-255.156,-293.737 -254,-293.806 -252.594,-293.806C-249.991,-293.806 -247.438,-294.145 -244.848,-294.183C-232.471,-294.366 -220.057,-294.928 -207.683,-294.928C-196.105,-294.928 -184.542,-294.554 -172.962,-294.554C-161.055,-294.554 -149.171,-295.301 -137.265,-295.301C-125.013,-295.301 -112.766,-294.928 -100.513,-294.928C-89.341,-294.928 -78.028,-295.189 -66.905,-294.13C-61.403,-293.605 -55.919,-292.522 -50.4,-292.232C-44.549,-291.924 -38.779,-292.312 -32.927,-292.312C-10.423,-292.312 11.973,-290.818 34.488,-290.818C45.974,-290.818 57.47,-291.565 68.942,-291.565C74.688,-291.565 80.451,-291.191 86.211,-291.191C87.441,-291.191 88.717,-291.565 90.006,-291.565C90.551,-291.565 91.02,-291.198 91.535,-291.191C92.18,-291.181 92.823,-291.565 93.47,-291.565L102.947,-291.565C105.753,-291.565 108.538,-291.939 111.353,-291.939C113.768,-291.939 116.414,-291.628 118.81,-291.939C119.383,-292.013 120.186,-292.312 121.292,-292.312L127.62,-292.312C130.613,-292.312 133.611,-292.109 136.602,-291.989C142.051,-291.771 147.479,-292.579 152.893,-292.687C159.213,-292.813 165.542,-293.059 171.863,-293.059C178.969,-293.059 186.077,-293.433 193.192,-293.433C201.534,-293.433 209.852,-293.593 218.191,-293.806L218.191,-293.433C219.206,-294.639 225.184,-293.806 226.895,-293.806L234.041,-293.806C239.715,-293.806 245.382,-293.784 251.053,-293.941C257.403,-294.117 263.732,-294.18 270.086,-294.18C271.704,-294.18 270.372,-293.495 269.599,-293.302C269.145,-293.188 268.473,-293.166 268.063,-292.962C267.587,-292.724 267.453,-291.939 266.949,-291.939C266.623,-291.939 266.81,-290.07 266.201,-290.07C265.161,-290.07 264.304,-289.604 263.398,-289.697C263.437,-289.693 262.328,-290.394 262.092,-290.631C261.828,-290.896 261.61,-290.895 261.346,-290.631C260.964,-290.25 260.771,-290.988 260.41,-291.191C260.326,-291.238 259.328,-291.9 259.104,-292.126C258.859,-292.37 258.063,-292.073 257.602,-291.842C256.852,-291.467 256.699,-290.444 255.734,-290.444C255.289,-290.444 253.931,-290.192 253.493,-289.973C252.75,-289.602 252.074,-289.58 251.443,-288.95C251.168,-288.675 249.659,-287.357 249.576,-287.081C249.242,-285.976 250.464,-286.69 250.323,-285.961C250.142,-285.019 249.403,-285.342 248.828,-284.839C248.691,-284.72 247.811,-283.345 248.268,-283.345L249.389,-283.345C249.888,-283.345 249.344,-282.814 249.576,-282.598C249.693,-282.489 250.696,-281.681 250.696,-281.29C250.696,-280.194 251.549,-280.252 252.191,-279.609C252.806,-278.995 254.146,-276.871 253.313,-276.246C254.77,-275.174 255.655,-277.158 255.929,-274.752C256.008,-274.059 255.877,-273.37 255.742,-272.697C255.571,-271.845 254.888,-271.384 254.806,-270.642C254.824,-270.805 255.54,-270.444 255.555,-270.268C255.604,-269.676 255.18,-270.113 255.18,-269.707C255.18,-268.997 255.887,-269.05 255.929,-268.774C256.127,-267.49 254.639,-266.048 254.06,-267.653C253.936,-267.529 253.811,-267.404 253.687,-267.28C254.323,-267.091 253.842,-266.455 254.627,-266.062C255.615,-265.567 255.555,-265.659 255.555,-264.477C255.555,-264.022 256.297,-263.943 256.301,-263.917C256.38,-263.442 255.929,-263.392 255.929,-262.983C255.929,-262.622 256.535,-261.744 256.867,-261.578C257.991,-261.016 257.462,-260.886 258.349,-260C258.786,-259.563 259.72,-259.051 260.037,-258.312C260.41,-257.443 259.711,-257.247 260.784,-256.818C260.656,-256.869 261.568,-257.191 261.719,-257.191C261.714,-257.191 262.23,-256.862 262.278,-256.818C262.016,-256.642 261.273,-256.376 261.158,-256.071C261.002,-255.659 261.564,-255.051 261.532,-254.95C261.317,-254.291 261.651,-254.546 261.158,-254.202C261.04,-254.119 260.548,-254.643 260.41,-254.576C260.114,-254.432 259.941,-254.01 259.664,-253.829C259.319,-253.604 258.429,-252.589 258.169,-252.334C257.644,-251.819 256.301,-250.843 256.301,-250.28C256.301,-249.69 257.049,-249.861 257.049,-249.532C257.049,-249.044 256.2,-248.595 255.929,-248.224C255.839,-248.102 255.532,-247.089 255.555,-247.104C255.052,-246.763 255.295,-247.968 254.612,-247.284C253.803,-246.472 253.49,-245.667 252.565,-244.862C252.222,-244.562 252.099,-244.534 251.817,-244.115C251.625,-243.828 252.107,-242.993 251.631,-242.993C251.32,-242.993 250.622,-241.812 249.951,-241.499C249.049,-241.079 248.262,-241.045 247.334,-240.378C246.712,-239.93 245.479,-239.127 245.465,-238.138C245.46,-237.766 245.595,-237.015 246.027,-237.015C246.795,-237.015 245.777,-236.157 245.84,-236.269C245.167,-235.073 243.971,-235.275 243.971,-233.847C243.971,-233.085 244.865,-232.438 245.093,-231.411C245.33,-230.337 244.908,-229.603 244.346,-229.17C244.143,-229.014 243.4,-228.97 243.225,-228.797C242.994,-228.57 242.599,-227.291 242.477,-226.929C242.374,-226.623 242.306,-225.235 242.104,-225.06C241.865,-224.854 240.943,-225.143 240.609,-225.06C239.741,-224.845 238.544,-223.919 238.09,-223.013C237.251,-221.338 237.098,-221.65 238.367,-220.576C239.113,-219.946 240.142,-219.547 239.674,-218.148C239.249,-216.874 238.749,-216.429 238.741,-214.972C238.74,-214.776 239.113,-214.695 239.113,-214.411C239.113,-214.052 238.741,-214.024 238.741,-213.665C238.741,-213.19 237.774,-212.51 237.434,-212.171C237.317,-212.054 236.873,-210.964 236.873,-211.049C236.873,-210.645 235.575,-210.96 235.185,-210.765C234.548,-210.448 233.967,-210.53 233.33,-210.212C232.632,-209.863 232.407,-209.127 231.643,-208.994C232.391,-207.974 231.979,-207.481 231.075,-207.03C230.009,-206.497 230.087,-205.401 229.026,-204.511C228.583,-204.139 228.26,-204.127 227.727,-203.86C226.973,-203.484 227.437,-202.922 226.972,-202.456C226.65,-202.134 226.98,-201.62 226.592,-201.425C225.962,-201.11 225.831,-200.643 225.291,-200.401C224.831,-200.194 224.379,-200.61 223.983,-200.214C223.749,-199.979 223.001,-199.654 222.676,-199.654C222.351,-199.654 221.602,-199.328 221.367,-199.093C220.778,-198.505 221.485,-198.329 221.554,-198.159C221.809,-197.525 221.465,-197.779 221.928,-197.412C222.305,-197.114 222.766,-197.061 223.049,-196.665C223.432,-196.13 223.354,-195.768 223.423,-195.17C223.46,-194.846 222.925,-195.045 223.146,-194.603C223.318,-194.258 223.451,-194.058 223.423,-193.676C223.336,-192.493 223.049,-192.471 223.049,-191.171C223.049,-190.85 223.256,-190.435 223.423,-190.313C224.282,-189.689 224.15,-190.528 224.917,-190.313C226.374,-189.906 225.188,-189.659 225.291,-188.445C225.367,-187.544 226.139,-187.297 226.785,-186.576C227.411,-185.88 227.344,-185.271 228.094,-184.522C228.545,-184.071 228.447,-184.378 228.751,-183.768C228.902,-183.464 229.42,-182.467 229.588,-182.467C230.483,-182.467 230.911,-181.644 230.895,-180.973C230.883,-180.495 230.359,-179.983 230.521,-179.478C230.564,-179.344 231.243,-179.131 231.456,-178.918C231.766,-178.608 232.906,-178.874 232.203,-178.171C231.742,-177.711 231.27,-177.809 231.27,-176.863C231.27,-176.226 232.39,-175.016 232.39,-174.06C232.39,-173.463 232.386,-173.118 232.112,-172.573C231.694,-171.738 232.586,-171.81 232.956,-171.439C233.37,-171.024 236.125,-170.264 236.125,-170.325C236.125,-169.225 233.822,-169.077 234.825,-168.076C236.245,-166.656 233.812,-166.102 234.444,-165.468C235.276,-164.634 235.434,-163.785 236.679,-163.785C237.004,-163.785 237.993,-163.946 237.993,-163.598C237.993,-162.892 237.672,-162.478 236.873,-162.666C237.391,-161.874 238.976,-161.538 239.861,-161.917C240.48,-162.182 240.35,-163.039 241.17,-163.039C241.983,-163.039 241.91,-161.669 242.104,-161.171C242.354,-160.526 243.213,-159.628 243.225,-158.929C243.242,-157.895 242.869,-157.808 241.917,-157.808C241.418,-157.808 241.989,-156.314 242.657,-156.314C243.512,-156.314 243.868,-154.819 244.158,-154.819C244.371,-154.819 244.628,-154.445 245.314,-154.445C245.889,-154.445 246.188,-154.529 246.588,-154.072C246.26,-153.772 245.682,-153.915 245.279,-153.512C244.711,-152.942 244.043,-154.72 243.225,-153.698C243.639,-153.399 244.217,-153.455 244.532,-153.138C244.98,-152.689 245.021,-152.917 245.465,-152.576C245.729,-152.374 247.329,-151.456 246.027,-151.456C244.742,-151.456 244.457,-153.782 243.932,-151.675C243.496,-149.924 243.794,-149.173 244.214,-147.499C244.54,-146.2 244.479,-145.204 243.225,-144.731C242.759,-144.556 241.979,-145.038 241.73,-144.358C241.632,-144.088 242.615,-143.303 242.851,-143.236C243.582,-143.031 244.049,-143.314 244.524,-143.79C245.233,-144.498 245.235,-143.236 244.906,-143.236C244.097,-143.236 243.545,-141.39 243.971,-140.995C244.494,-141.678 245.356,-141.259 246.027,-141.929C246.292,-142.194 246.51,-142.194 246.775,-141.929C247.34,-141.364 246.646,-141.534 246.588,-141.368C246.521,-141.182 245.494,-140.621 246.027,-140.621C246.441,-140.621 246.473,-140.247 246.961,-140.247C247.615,-140.247 247.543,-140.58 247.708,-140.621C250.405,-141.296 247.232,-139.127 249.016,-139.127C250.894,-139.127 247.873,-136.501 247.334,-136.138C246.504,-135.58 246.747,-135.22 245.84,-135.764C244.723,-136.435 245.465,-136.695 245.465,-137.445C245.465,-138.32 244.433,-136.882 244.346,-136.512C244.153,-135.689 244.454,-135.063 244.719,-134.643C245.125,-133.997 246.958,-132.574 244.719,-132.402C244.078,-132.352 243.485,-133.036 243.037,-132.589C242.603,-132.154 242.821,-131.271 243.225,-130.907C242.732,-130.466 241.672,-129.795 240.609,-129.786C239.473,-129.776 238.584,-130.534 237.427,-130.534C235.363,-130.534 233.308,-131.619 232.293,-129.592C232.046,-129.099 231.846,-128.496 231.456,-128.105C230.841,-127.488 231.643,-127.138 231.643,-126.61C231.643,-126.62 234.471,-124.182 234.444,-124.182C236.485,-124.182 238.741,-121.697 238.741,-119.886C238.741,-118.141 235.876,-115.393 234.258,-115.215C232.943,-115.07 232.279,-115.455 232.763,-114.094C233.139,-113.034 234.256,-112.599 234.818,-112.039C235.555,-111.305 235.492,-110.241 236.313,-109.424C236.641,-109.096 237.456,-108.964 237.621,-108.49C237.705,-108.249 237.164,-107.743 237.061,-107.743C235.753,-107.743 235.811,-108.175 235.005,-108.864C234.805,-109.035 234.933,-109.858 234.258,-109.61C233.429,-109.306 234.125,-108.622 234.444,-108.303C235.04,-107.705 235.184,-106.248 234.444,-106.248C233.677,-106.248 233.814,-107.699 232.763,-107.369C232.094,-107.16 232.39,-105.749 232.39,-104.947C232.39,-104.558 230.99,-102.139 231.082,-102.139C230.783,-102.139 230.933,-101.764 230.347,-101.764C229.665,-101.764 229.245,-101.435 228.654,-101.391C227.66,-101.316 226.599,-102.098 225.665,-101.764C224.026,-101.177 224.186,-96.871 221.554,-97.655C220.648,-97.925 220.426,-98.748 220.807,-99.149C221.292,-99.66 223.594,-99.541 223.423,-100.644C223.205,-102.044 221.465,-101.017 220.993,-101.017C221.144,-101.017 219.704,-99.397 219.313,-99.149C219.026,-98.968 218.009,-98.029 217.258,-98.029C216.559,-98.029 216.517,-95.786 216.885,-95.786C217.468,-95.786 219.405,-94.386 218.753,-93.732C217.684,-92.661 217.225,-92.386 215.731,-92.759C213.625,-93.284 213.898,-87.95 213.433,-87.014C212.242,-84.623 211.293,-83.831 208.653,-83.831C205.775,-83.831 209.046,-81.161 207.357,-80.468C207.3,-80.444 206.621,-81.016 206.236,-80.842C206.144,-80.8 205.952,-79.834 205.862,-79.722C205.527,-79.303 204.496,-78.226 203.809,-78.226C202.774,-78.226 202.413,-76.875 201.573,-76.455C201.209,-76.273 200.633,-76.392 200.633,-75.798C200.633,-75.18 200.154,-76.144 199.885,-75.984C199.036,-75.483 198.558,-74.49 197.082,-74.49C195.912,-74.49 194.895,-74.864 193.707,-74.864C193.264,-74.864 191.031,-74.603 190.73,-74.303C189.937,-73.512 189.336,-72.116 188.677,-71.501C187.062,-69.995 185.836,-72.995 184.006,-72.995L181.764,-72.995C181.866,-72.995 179.678,-71.812 179.612,-71.681C178.698,-69.849 176.107,-70.754 174.291,-70.754C173.083,-70.754 170.77,-68.19 170.743,-67.391C170.715,-66.543 172.271,-65.558 171.677,-64.963C170.813,-64.098 169.972,-64.926 168.875,-64.776C167.359,-64.57 167.617,-64.009 167.381,-62.908C167.045,-61.346 167.184,-61.914 167.754,-60.666C167.826,-60.508 168.368,-60.541 168.126,-59.919C168.112,-59.884 167.404,-59.589 167.381,-59.546C166.798,-58.467 167.156,-58.205 167.42,-57.149C167.697,-56.038 168.476,-55.253 167.754,-54.314C167.177,-53.564 165.846,-53.568 164.952,-53.568C163.83,-53.568 161.155,-52.003 160.28,-51.325C159.083,-50.396 156.979,-49.345 155.425,-49.084C154.425,-48.916 153.802,-48.909 153.183,-48.711C152.468,-48.482 152.019,-47.964 151.127,-47.964C150.832,-47.964 150.968,-47.59 150.381,-47.59C149.978,-47.59 149.766,-47.964 149.26,-47.964C148.939,-47.964 147.723,-49.012 147.385,-49.18C146.792,-49.476 145.323,-50.205 144.775,-50.205C143.732,-50.205 142.918,-51.325 142.16,-51.325C141.455,-51.325 141.078,-51.821 140.004,-51.687C138.151,-51.454 137.292,-51.319 135.798,-50.322C134.007,-49.126 132.799,-46.538 130.205,-47.403C128.923,-47.83 128.292,-47.964 126.779,-47.964C125.521,-47.964 124.632,-47.59 123.48,-47.59C122.46,-47.59 121.103,-47.324 120.13,-47.648C119.379,-47.898 117.57,-48.298 116.941,-47.59C116.344,-46.918 116.608,-45.443 115.821,-44.973C114.861,-44.401 113.438,-44.343 112.459,-43.853C110.595,-42.919 109.099,-42.173 106.854,-41.612C106.492,-42.4 104.339,-42.524 103.491,-41.985C102.139,-41.124 103.117,-40.512 103.117,-39.183L103.117,-37.281C103.117,-36.494 102.744,-35.65 102.744,-35.073C102.744,-33.559 100.596,-33.292 99.755,-32.644C99.184,-32.203 99.153,-31.49 98.634,-31.15C98.201,-30.866 97.335,-31.125 96.766,-30.776C96.319,-30.503 96.402,-30.038 96.02,-29.655C95.899,-29.535 95.383,-29.782 95.271,-29.655C94.938,-29.275 95.006,-29.125 94.802,-28.715C94.611,-28.332 92.608,-25.172 92.844,-25.172C92.554,-25.172 92.282,-24.243 92.282,-23.865C92.282,-23.024 92.797,-22.962 93.403,-22.557C93.84,-23.239 94.501,-23.433 95.271,-23.303C95.104,-23.089 95.07,-22.767 94.898,-22.557C95.544,-22.409 95.303,-20.871 94.898,-21.809C94.428,-21.373 94.646,-21.232 94.525,-20.688C94.695,-21.451 94.66,-19.566 94.525,-20.314C94.65,-19.621 95.271,-18.558 95.271,-17.887C95.271,-15.657 98.26,-14.677 98.26,-12.656C98.26,-10.575 96.915,-8.904 96.766,-6.865C96.683,-5.732 96.97,-5.201 96.766,-4.249C96.548,-3.232 94.898,-2.355 94.898,-1.82C94.898,-1.14 95.271,-0.099 95.271,0.801C95.271,2.116 93.785,1.998 93.403,3.224C93.262,3.679 92.951,5.472 93.03,5.839C93.213,6.681 94.929,7.769 95.368,8.648C96.177,10.263 96.076,12.994 97.326,14.245C97.623,14.542 98.26,14.389 98.26,14.992C98.26,15.404 98.273,15.926 98.82,15.926C101.006,15.926 99.381,16.108 99.381,17.234C99.381,18.087 100.271,17.421 100.689,17.421C101.213,17.421 100.109,19.063 99.755,19.289L100.129,19.289C99.598,19.687 100.129,23.574 100.129,24.706C100.129,25.688 101.943,25.815 102.369,26.387C102.769,26.924 102.646,26.272 102.369,27.135C102.235,27.553 101.623,27.872 101.623,28.076C101.623,29.78 101.628,28.914 100.503,29.003C99.88,29.052 98.938,29.248 98.26,29.75C97.896,30.019 97.714,30.871 97.319,30.871C96.454,30.871 96.766,31.418 96.766,32.211C96.766,32.738 96.467,33.001 96.392,33.487C96.237,34.477 96.247,34.174 96.578,35.168C97.113,36.77 96.897,39.307 98.634,39.465C99.825,39.573 99.71,38.734 100.129,37.97C100.932,36.506 100.953,37.222 102.184,37.222C104.002,37.222 103.664,40.416 102.557,41.52C101.854,42.219 101.271,42.08 100.309,42.08C98.7,42.08 99.435,43.948 100.689,43.948C102.985,43.948 104.143,46.563 101.063,46.563C100.735,46.563 100.903,45.817 100.316,45.817C100.03,45.817 99.954,45.443 99.755,45.443C99.556,45.443 99.48,45.817 99.194,45.817C98.581,45.817 96.85,46.357 96.766,46.937C96.853,46.342 97.253,47.823 97.14,47.684C97.312,47.897 98.095,47.926 98.26,48.432C98.545,49.307 97.137,50.675 96.578,51.234C95.803,52.01 96.393,53.289 95.097,53.289C94.155,53.289 92.463,52.907 92.282,54.035C92.047,55.507 93.771,54.823 94.151,55.53C94.554,56.278 92.778,56.777 92.158,57.087C91.08,57.627 89.736,57.925 89.293,58.893C88.734,60.112 89.565,60.178 90.139,61.329C90.707,62.471 90.204,63.108 89.114,63.653C88.16,64.131 88.816,65.017 88.174,65.99C87.553,66.932 87.043,66.729 86.125,65.811C85.152,64.839 84.437,66.528 84.437,67.288C84.437,68.117 84.628,69.355 85.371,69.355C86.17,69.355 85.867,70.541 85.558,70.85C84.998,71.407 85.076,70.898 84.811,70.102C84.573,69.392 84.494,68.653 83.315,68.608C80.252,68.489 82.391,71.68 81.821,73.091C81.344,74.276 78.117,75.451 78.084,76.827C78.068,77.48 79.004,78.661 79.304,79.262C79.735,80.126 79.207,81.009 79.207,82.058C79.207,83.307 78.146,86.22 79.58,86.167C80.202,86.144 80.192,85.59 80.701,85.42C81.38,85.194 81.289,85.351 81.821,85.42C82.875,85.556 83.999,86.167 84.998,86.167C85.96,86.167 86.269,86.914 84.99,86.914C83.824,86.914 83.148,88.035 82.756,88.035C82.124,88.035 83.315,89.332 83.315,89.716C83.315,90.272 81.9,92.108 81.447,92.519C80.285,93.572 76.035,92.903 77.435,95.702C78.379,97.591 77.712,99.246 77.712,101.288C77.712,104.346 74.966,104.117 73.229,105.97C72.328,106.93 72.158,107.202 70.986,107.837C70.07,108.333 69.268,109.04 68.371,109.705C67.559,110.308 66.958,110.663 66.426,111.729C65.855,112.868 65.929,114.114 65.009,114.938C64.776,115.146 63.821,115.64 63.514,115.682C62.949,115.758 62.658,114.986 62.02,115.31C61.41,115.619 61.273,117.435 61.273,118.112C61.273,118.939 63.348,121.66 62.953,121.66C62.441,121.66 61.36,122.782 60.346,122.782C59.22,122.782 57.91,122.868 57.91,124.278C57.91,125.383 57.162,125.843 57.162,127.073C57.162,128.084 57.912,128.617 58.284,129.508C58.418,129.829 58.657,130.449 58.657,130.629C58.657,131.202 58.141,131.317 58.343,131.924C58.759,133.177 58.765,134.242 58.284,135.486C57.4,137.771 56.314,138.603 57.536,141.089C57.898,141.827 58.284,142.303 58.284,143.511C58.284,144.966 57.519,145.218 56.608,146.125C55.997,146.736 55.841,147.48 55.296,148.564C55,149.153 54.564,150.43 53.986,150.43C53.321,150.43 51.933,151.819 51.933,152.485C51.933,152.885 51.829,153.316 52.119,153.606C52.7,154.187 51.964,154.453 51.933,154.915C51.893,155.501 52.184,156.637 51.933,157.155C51.461,158.127 49.357,158.649 48.383,158.649C47.354,158.649 46.573,163.133 45.393,163.133C44.213,163.133 44.44,166.906 42.218,166.497C43.289,166.316 43.354,165.518 44.086,165.374C43.301,165.303 42.8,165.713 42.218,166.123C42.002,166.276 42.26,166.871 41.656,166.871C41.017,166.871 41.779,166.533 41.844,166.497C40.762,167.04 39.839,167.498 38.781,168.028C37.787,168.525 35.578,170.234 34.559,170.234C34.112,170.234 34.563,170.563 34.371,170.606C33.969,170.695 33.859,170.215 33.625,170.234C33.177,170.27 32.649,170.088 32.317,170.42C31.285,171.449 31.449,172.624 30.262,173.596C28.702,174.872 27.043,176.671 26.057,178.647C25.671,179.419 24.861,179.846 24.104,180.222C23.606,180.471 24.181,181.095 23.911,181.441C23.621,181.812 23.086,181.367 22.79,182.189C23.604,182.373 22.083,185.705 22.044,186.671C22.027,187.084 22.651,187.319 22.319,187.986C21.941,188.747 22.015,188.887 22.604,189.474C23.59,190.457 22.155,191.048 23.164,191.903C21.705,191.987 22.889,193.575 22.79,194.145C22.838,193.872 22.058,194.497 22.044,194.519C21.812,194.893 22.334,195.493 21.85,195.735C20.363,196.477 19.427,198.695 19.427,200.32C19.427,202.172 20.602,204.606 17.379,204.606C16.754,204.606 15.534,205.664 15.317,206.1C15.029,206.68 15.249,205.995 15.317,206.848C15.354,207.311 16.082,207.575 15.504,208.154C15.243,208.416 15.457,209.089 15.131,209.089C15.13,209.089 14.517,209.517 14.383,209.65C14.136,209.897 13.449,212.157 13.449,212.647C13.449,213.658 13.832,213.775 14.196,214.32C14.53,214.819 14.004,215.157 14.764,215.537C15.216,215.764 15.691,216.195 15.691,216.562C15.691,217.268 15.845,218.804 14.757,218.804C14.038,218.804 12.532,220.569 11.955,221.045C11.212,221.658 10.276,221.98 9.52,222.734C8.585,223.664 7.388,223.368 6.538,224.221C6.098,224.662 5.231,224.406 4.67,224.969C4.334,225.304 3.457,225.59 2.988,225.903C1.735,226.736 0.542,227.359 0,228.892L0.374,228.892C-0.553,229.216 0.384,229.691 0.374,230.385C0.365,231.027 0.408,232.022 0,231.134C-1.027,232.666 0,234.814 0,236.924" style="fill:rgb(120,151,22);fill-rule:nonzero;"/>
    </g>
</svg>
