<svg enable-background="new -249 83.1 381 360" viewBox="-249 83.1 381 360" xmlns="http://www.w3.org/2000/svg"><g fill="#2ba9e0"><path d="m-69.7 312.5c-29.1 0-52.7 23.6-52.7 52.7s23.6 52.7 52.7 52.7 52.7-23.6 52.7-52.7-23.6-52.7-52.7-52.7z"/><path d="m-4.1 302.4c15.6 16.3 25.2 38.4 25.2 62.8 0 30.9-15.4 58.1-38.9 74.5 43.5-13.4 79.5-46.1 95.6-85.7 22.3-54.8 1.5-96-33.3-133.4 1.1 4.8 1.7 9.9 1.7 15-.1 31.8-21.3 58.5-50.3 66.8z"/><path d="m-63.7 235.7c0 22.3 18.1 40.3 40.3 40.3s40.4-18.1 40.4-40.3c0-22.3-18.1-40.3-40.3-40.3s-40.4 18-40.4 40.3z"/><path d="m-139.2 423.7c-13.3-15.8-21.3-36.2-21.3-58.5 0-46.5 34.9-84.8 80-90.1-7.7-11.2-12.3-24.8-12.3-39.4 0-38.4 31.1-69.4 69.5-69.4 3.2 0 6.3.2 9.3.6-22.7-19.6-45.4-39.5-63.3-61.2 9.1 95.2-86.7 60.6-122.2 148.4-23.7 58.8-2.3 131.5 60.3 169.6z"/></g></svg>