<svg enable-background="new 0 0 240.94 155.91" height="155.91" viewBox="0 0 240.94 155.91" width="240.94" xmlns="http://www.w3.org/2000/svg"><g fill="#2ba9e0"><path d="m79.935 90.602c0 3.453-1.497 6.248-4.983 6.248-3.489 0-4.996-2.795-4.996-6.248v-11.804h-6.364v11.804c0 6.824 4.43 12.353 11.324 12.353 6.887 0 11.384-5.528 11.384-12.353v-11.818h-6.379z"/><path d="m143.808 71.586h6.344v30.76h-6.344z"/><path d="m154.837 72.721h1.81v4.872h1.329v-4.872h1.808v-1.105h-4.947z"/><path d="m165.108 71.616-1.335 4.111h-.017l-1.411-4.111h-1.867v5.977h1.241v-4.194h.016l1.477 4.194h1.027l1.479-4.239h.014v4.239h1.244v-5.977z"/><path d="m49.342 82.95c-.069.141-.071.221-.315.219-.199-.008-.223-.219-.223-.219l-.678-4.117h-5.685v23.495h6.371v-12.718c0-1.041 2.827-6.021 8.303-4.744 2.767.652 3.941 1.816 3.941 1.816s0-4.537 0-7.156c-1.025-.53-1.728-.787-2.651-.998-5.467-1.25-8.918 4.13-9.063 4.422z"/><path d="m101.119 78.34c-6.935 0-12.558 5.568-12.558 12.438v19.287h6.388v-8.454l.004-3.167s.009-.251.24-.257c.205 0 .25.136.302.257.482 1.192 3.142 5.729 9.039 4.306 5.278-1.474 9.147-6.272 9.147-11.972-.001-6.87-5.623-12.438-12.562-12.438zm.007 18.733c-3.514 0-6.356-2.816-6.356-6.295 0-3.475 2.842-6.297 6.356-6.297 3.512 0 6.358 2.822 6.358 6.297.001 3.479-2.845 6.295-6.358 6.295z"/><path d="m128.67 78.34c-6.938 0-12.562 5.568-12.562 12.438 0 5.699 3.871 10.498 9.152 11.972 5.897 1.424 8.555-3.113 9.035-4.306.053-.121.098-.257.304-.257.231.006.239.257.239.257l.005 3.892h6.389v-11.558c-.001-6.87-5.623-12.438-12.562-12.438zm-.003 18.733c-3.513 0-6.36-2.816-6.36-6.295 0-3.475 2.848-6.297 6.36-6.297 3.509 0 6.356 2.822 6.356 6.297 0 3.479-2.847 6.295-6.356 6.295z"/><path d="m23.009 71.571h-7.777v30.717h7.249c9.521 0 17.089-1.842 17.089-15.358-.001-13.646-7.144-15.359-16.561-15.359zm1.27 25.454-2.631-.067v-20.06h2.563c5.871 0 8.939.814 8.939 10.031 0 9.609-3.473 10.096-8.871 10.096z"/><circle cx="211.353" cy="91.899" r="7.294"/><path d="m220.421 83.213c2.162 2.257 3.494 5.314 3.494 8.686 0 4.27-2.133 8.039-5.389 10.309 6.018-1.855 10.994-6.377 13.223-11.854 3.082-7.576.213-13.279-4.604-18.449.146.669.229 1.362.229 2.076 0 4.383-2.939 8.08-6.953 9.232z"/><circle cx="217.765" cy="73.979" r="5.58"/><path d="m201.742 99.988c-1.843-2.186-2.954-5.007-2.954-8.09 0-6.431 4.834-11.729 11.064-12.47-1.068-1.549-1.697-3.426-1.697-5.449 0-5.307 4.303-9.608 9.61-9.608.438 0 .868.031 1.29.089-3.143-2.713-6.28-5.464-8.756-8.472 1.265 13.172-11.998 8.386-16.9 20.525-3.29 8.145-.324 18.215 8.343 23.475z"/></g></svg>