<svg id="Layer_1" xmlns="http://www.w3.org/2000/svg" viewBox="0 0 562 68.6"><style>.st0{fill:#3884b0}</style><path class="st0" d="M185.8 53.1l-7.2-12.2 10.8-12.6.2-1.5h-7.3l-6.5 8.1c-.2.3-.6.8-1.1 2.6.1-1.8-.3-2.4-.4-2.6l-4.6-8.2h-8.4l8 13.9-12.8 14.9h8.4l7.2-8.8c.4-.5 1-1.5 1.2-2.6 0 1.1.3 2.2.5 2.6l5 8.8h6.6l.4-2.4zM160.5 22.9h-18.6l-1.3 9.3h17l-2.6 6h-15.4c.1.4.1.8.1 1l-1.5 10.4h18.6l-.9 6H130l5.6-38.7h25.8l-.9 6zM216.7 41c-1.3 9.4-5.5 15.5-15.7 15.5-1.9 0-4-.4-6-1.3.2.6.3 1.3.2 1.9l-1.7 11.5h-7.2l6-41.8h5.2l.6 2.4c2.5-2.1 5.4-3.2 8-3.2 7.7 0 10.8 4.5 10.8 11.2.1 1.1 0 2.4-.2 3.8zm-12-9.6c-1.6 0-3.5.3-6 1.8l-2.4 16.7c1.5.8 3.6 1.1 5.5 1.1 4.3 0 6.7-2.8 7.7-10 .2-1.4.3-2.6.3-3.6 0-4.3-1.7-6-5.1-6zM238.7 32.4c-1.2-.2-2.4-.3-3.7-.3-2 0-4.2.3-6.1 1.4l-3.2 22h-7.2l4.1-28.8h5.9l.4 2.3c2.4-2.3 4.8-3.2 7.4-3.2 1 0 2.1.2 3.2.4l-.8 6.2zM266.1 43.3h-19.4c-.1.9-.2 1.6-.2 2.3 0 3.5 1.6 5.2 5.6 5.2 3.7 0 5.8-1.6 7.3-4l5.4 2.2c-2.5 4.8-7.2 7.5-13.6 7.5-8.2 0-11.9-4.3-11.9-11.6 0-1.2.1-2.4.3-3.7 1.6-10.6 6.2-15.2 16-15.2 8.9 0 10.9 6.3 10.9 11.6.2 1.6-.2 3.7-.4 5.7zm-11.2-11.7c-4.1 0-6.1 1.6-7.2 6.6h11.8c.1-.6.2-1.2.2-1.8-.1-3.1-1.7-4.8-4.8-4.8zM288.2 34.4c-1-1.8-2.9-2.8-5.8-2.8-2.3 0-5.1.5-5.1 3.4 0 1 .5 1.9 1.8 2.1l6.2 1.1c3.9.7 7.1 2.9 7.1 7.1 0 8.2-6.8 11.2-13.9 11.2-5 0-9-1.7-10.9-6.2l6-2.2c1.1 2 3 3 5.7 3s6-.8 6-4.1c0-1.2-.5-2-2.1-2.3l-6.7-1.2c-3.1-.6-6.2-3-6.2-7.4 0-7.6 6.3-10 12.9-10 6 0 9.2 2.4 10.7 5.8l-5.7 2.5zM314.6 34.4c-1-1.8-2.9-2.8-5.8-2.8-2.3 0-5.1.5-5.1 3.4 0 1 .5 1.9 1.8 2.1l6.2 1.1c3.9.7 7.1 2.9 7.1 7.1 0 8.2-6.8 11.2-14 11.2-5 0-9-1.7-10.9-6.2l6-2.2c1.1 2 3 3 5.7 3s6-.8 6-4.1c0-1.2-.5-2-2.1-2.3l-6.7-1.2c-3.1-.6-6.2-3-6.2-7.4 0-7.6 6.3-10 12.9-10 6 0 9.2 2.4 10.7 5.8l-5.6 2.5zM334.6 56.1h-3.7c-4.2 0-6.2-1.8-6.2-5.6 0-.6.1-1.2.2-1.9l2.2-14.9c0-.4.3-1.1.7-1.6h-5.2l.8-5.4h11.9l-3.1 21.8v.8c0 .6.3.9 1.1.9h2.3l-1 5.9zm1.4-35c-.1.5-.1.5-.5.5h-7c-.4 0-.4 0-.4-.5l1-6.7c0-.5 0-.6.5-.6h7c.4 0 .4.1.4.6l-1 6.7zM366 41.2c-1.4 10-5.8 15.3-15.7 15.3-8.5 0-11.5-5.2-11.5-11.7 0-1.1.1-2.4.3-3.5 1.4-10.1 5.7-15.2 15.7-15.2 8.4 0 11.6 4.9 11.6 11.6-.2 1-.3 2.2-.4 3.5zm-12.2-9.6c-4.4 0-6.5 2.3-7.6 9.5-.2 1.4-.3 2.7-.3 3.8 0 4.3 1.7 5.8 5.2 5.8 4.3 0 6.7-2.3 7.7-9.6.2-1.4.3-2.6.3-3.7 0-4.3-1.8-5.8-5.3-5.8zM394.4 37.5l-2.6 18.1h-7.1l2.6-18.1c.1-.6.2-1.3.2-1.9 0-2.5-1-4.1-3.6-4.1-2.2 0-4.8 1.2-6.9 2.5l-3.1 21.6h-7.1l4.1-28.8h5.9l.5 2.6c3.3-2.6 6-3.5 9-3.5 6 0 8.4 3.8 8.4 8.9l-.3 2.7zM428.9 22.9h-18.6l-1.3 9.3h17l-2.6 6H408c.1.4.1.8.1 1l-1.5 10.4h18.6l-.9 6h-25.8l5.6-38.7h25.8l-1 6zM455.7 37.5l-2.6 18.1H446l2.6-18.1c.1-.6.2-1.3.2-1.9 0-2.5-1-4.1-3.6-4.1-2.2 0-4.8 1.2-6.9 2.5l-3.1 21.6h-7.1l4.1-28.8h5.9l.5 2.6c3.3-2.6 6-3.5 9-3.5 6 0 8.4 3.8 8.4 8.9l-.3 2.7zM491.7 32.2h-3.5c-.5 0-1.7-.1-2.6-.5.5 1.3.7 2.7.7 3.9 0 8.4-6.7 11.6-14.1 11.6-1.7 0-3.3-.2-4.7-.5-.2-.1-.4-.1-.7-.1-.8 0-1.3.4-1.3 1.2 0 .5.3.9 1.4 1.1l10.4 1.9c5.7 1.1 7.7 3.5 7.7 6.7 0 9.3-8.7 10.9-16 10.9-5.8 0-13.4-1.6-13.4-8.8 0-3.8 2-7 5.2-8.9-.6-.8-1-1.7-1-2.6 0-1.9 1.4-3.4 3-4.3-1-1.3-1.9-3.3-1.9-5.7 0-8.4 6.5-12.4 14.2-12.4 2.7 0 5.5.5 7.6 1.8l4.1-.9h5.2l-.3 5.6zm-16.5 23.5l-10.1-1.9c-1.6 1.7-2.3 2.8-2.3 5.3 0 2.7 1.9 4 7.1 4 3.4 0 8-.5 8-4.9.1-1.4-.6-2.1-2.7-2.5zm-.7-24.1c-4 0-6.3 2.3-6.3 6.3 0 2.7 1.7 3.8 4.8 3.8 4 0 6.3-2.1 6.3-6.1 0-2.7-1.5-4-4.8-4z"/><path class="st0" d="M501.6 56.1H498c-4.2 0-6.2-1.8-6.2-5.6 0-.6.1-1.2.2-1.9l2.1-14.9c.1-.4.3-1.1.8-1.6h-5.2l.7-5.4h11.9l-3.1 21.8c-.1.3-.1.5-.1.8 0 .6.3.9 1.1.9h2.3l-.9 5.9zm1.5-35c0 .5 0 .5-.5.5h-7c-.4 0-.4 0-.4-.5l1-6.7c.1-.5.1-.6.5-.6h7c.4 0 .4.1.4.6l-1 6.7zM532.7 37.5L530 55.6h-7.1l2.6-18.1c.1-.6.2-1.3.2-1.9 0-2.5-1-4.1-3.6-4.1-2.2 0-4.8 1.2-6.9 2.5L512 55.6h-7.1l4.1-28.8h5.9l.5 2.6c3.3-2.6 6-3.5 9-3.5 6 0 8.4 3.8 8.4 8.9.1.9 0 1.8-.1 2.7zM561.4 43.3H542c-.1.9-.2 1.6-.2 2.3 0 3.5 1.6 5.2 5.6 5.2 3.7 0 5.8-1.6 7.3-4l5.4 2.2c-2.5 4.8-7.2 7.5-13.6 7.5-8.2 0-11.9-4.3-11.9-11.6 0-1.2.1-2.4.3-3.7 1.6-10.6 6.2-15.2 16-15.2 8.9 0 10.9 6.3 10.9 11.6.2 1.6-.1 3.7-.4 5.7zm-11.2-11.7c-4.1 0-6.1 1.6-7.2 6.6h11.8c.1-.6.2-1.2.2-1.8-.1-3.1-1.7-4.8-4.8-4.8zM61.3 42.4c-2.6 2.5-4.9 4.2-6.7 5.1-1.9.9-3.9 1.4-5.9 1.4-2.5 0-4.4-.8-5.9-2.3-1.5-1.5-2.2-3.7-2.2-6.6l.2-2.8.4-.1c6.9-1.2 12.1-2.5 15.4-3.9 3.3-1.4 5.7-3.2 7.2-5.1 1.4-1.9 2.2-3.9 2.2-5.7 0-2.3-.9-4.1-2.7-5.6-1.8-1.5-4.4-2.2-7.7-2.2-4.6 0-8.9 1.1-12.9 3.2s-7.1 5-9.4 8.7C31 30.2 29.9 34 29.9 38c0 4.4 1.4 8 4.1 10.6 2.7 2.6 6.5 3.9 11.2 3.9 3.4 0 6.6-.7 9.5-2 2.8-1.3 5.7-3.5 8.6-6.5-.6-.7-1.6-1.3-2-1.6zm-20.1-8.1c1-5.8 2.8-10.4 5.4-13.7 1.8-2.4 3.8-3.6 5.9-3.6 1.1 0 2.1.4 2.8 1.3.7.8 1.1 2 1.1 3.4 0 3.3-1.5 6.3-4.4 9-2.1 1.9-5.6 3.3-10.2 4.1l-.7.2.1-.7z"/><path class="st0" d="M14.5 43.3C10.6 28 19.9 12 35.8 4.7c-.4.2-.8.3-1.2.5.4-.2.8-.4 1-.4L5.9 12.4l7.9 4.7C3.4 25.9-1.9 36.8.6 46.9c4 15.7 26.1 24 51 19.9-17.4 1.3-33.1-8.2-37.1-23.5zM84.3 24.5c3.9 15.3-5.3 31.3-21.2 38.6.4-.1.8-.3 1.2-.5l-1 .5L93 55.4l-8-4.7c10.4-8.8 15.8-19.7 13.2-29.8-4-15.7-26-23.9-51-19.9C64.6-.3 80.4 9.2 84.3 24.5z"/></svg>