<svg height="200" preserveAspectRatio="xMidYMax" viewBox="62.515862 473.361522 15.342253 25.693295"><title>Vermont</title><g transform="scale(1.0,-1.0) translate(0,-972.416340)"><g id="Unknown_Area_Type_st50_d00_e00" style="fill:rgba(255,255,255,.25);stroke:rgb(255,255,255);stroke-width:0.100000;stroke-linecap:square;opacity:.5"><path d="M63.056257 498.54899L63.795091 498.57944 63.860057 498.58719 64.247024 498.60537 64.418504 498.61350 65.081405 498.64536 65.089503 498.63730 65.246068 498.64141 65.288431 498.65446 65.345572 498.65419 65.377749 498.64461 65.636490 498.65404 65.642606 498.65316 65.784865 498.65288 65.811479 498.65283 66.011036 498.65250 66.259976 498.66067 66.260457 498.66501 66.305749 498.67168 66.496378 498.68135 66.974790 498.70588 67.077246 498.70695 67.203164 498.70829 67.513395 498.71170 68.101943 498.72478 68.159334 498.72608 68.321445 498.72979 68.456402 498.72871 68.759945 498.72636 68.991063 498.72467 69.015829 498.72145 69.050794 498.70762 69.082217 498.70316 69.260376 498.67790 69.272326 498.67794 69.272609 498.67794 69.444998 498.67856 69.850257 498.70227 70.103867 498.70651 70.225277 498.70334 70.346553 498.70020 70.479407 498.69679 70.805302 498.69893 70.895186 498.69955 71.042421 498.69468 71.047930 498.69450 71.199339 498.68953 71.342578 498.70180 71.508170 498.70392 71.698281 498.71522 72.377158 498.75603 72.522172 498.75905 72.776232 498.76441 72.830122 498.76555 72.943209 498.77203 72.946420 498.77222 72.946798 498.77224 72.951167 498.77249 73.230854 498.78860 73.376058 498.82181 73.407449 498.79965 73.458251 498.80162 73.685140 498.81948 73.746132 498.82429 73.771957 498.82570 74.057238 498.84137 74.311164 498.84467 74.447727 498.85466 75.472365 498.93056 76.018871 498.95244 76.027909 498.95281 76.067736 498.95442 76.713750 498.99551 77.102123 499.01019 77.559353 499.03883 77.559353 499.03883 77.858115 499.05482 77.845597 499.03559 77.790929 499.01793 77.771716 499.00227 77.768826 498.99991 77.755896 498.98153 77.745850 498.93581 77.744666 498.93043 77.740144 498.92862 77.682929 498.90583 77.603906 498.93515 77.573820 498.96572 77.566297 498.96911 77.542054 498.98003 77.520240 498.97930 77.468338 498.93017 77.426474 498.90983 77.387311 498.90358 77.348373 498.87715 77.296681 498.81396 77.296085 498.80990 77.286823 498.74682 77.295038 498.70394 77.347690 498.61411 77.383836 498.58945 77.425141 498.50931 77.474449 498.49207 77.488118 498.42780 77.477901 498.30324 77.490226 498.25849 77.486407 498.22857 77.480601 498.21561 77.500406 498.07860 77.549474 498.03745 77.588848 497.99054 77.620183 497.94151 77.671878 497.91372 77.676130 497.90373 77.672903 497.88628 77.672903 497.88628 77.663796 497.83705 77.655285 497.82828 77.634811 497.83351 77.622659 497.82919 77.612546 497.80969 77.566242 497.75186 77.526423 497.71614 77.522960 497.70838 77.525402 497.69942 77.544934 497.68270 77.540987 497.66778 77.465718 497.55954 77.433006 497.53908 77.420156 497.52429 77.416259 497.51421 77.415768 497.47670 77.374677 497.43197 77.331518 497.41819 77.286997 497.38857 77.259978 497.34800 77.255362 497.33686 77.255322 497.31397 77.271746 497.28645 77.272701 497.26995 77.232344 497.23032 77.217726 497.21216 77.209024 497.19244 77.210376 497.17084 77.224453 497.15887 77.245016 497.11875 77.251486 497.08741 77.251089 497.08110 77.250668 497.07442 77.250479 497.07142 77.239477 497.05192 77.208952 497.03233 77.183705 496.94430 77.178967 496.92778 77.178442 496.92595 77.177324 496.92205 77.166244 496.91345 77.157872 496.91309 77.154455 496.92160 77.133025 496.91128 77.085069 496.84523 77.076639 496.82238 77.080661 496.79481 77.100142 496.76022 77.129726 496.74400 77.131489 496.72439 77.122007 496.70431 77.103876 496.62199 77.116592 496.58784 77.105785 496.55458 77.063488 496.48812 77.055323 496.48121 77.020499 496.48256 76.954048 496.44686 76.924300 496.40345 76.927159 496.38609 76.933760 496.37363 76.933190 496.36415 76.891738 496.32508 76.868869 496.27595 76.841195 496.25165 76.813844 496.23590 76.795782 496.19372 76.796917 496.17198 76.795293 496.17012 76.783479 496.15658 76.768895 496.13986 76.766959 496.13944 76.721884 496.12959 76.664725 496.10627 76.660117 496.09729 76.660200 496.09108 76.660380 496.07760 76.660433 496.07360 76.661432 496.07122 76.661772 496.07041 76.667981 496.05562 76.701904 496.04073 76.717088 496.00524 76.721218 495.92886 76.717571 495.90608 76.719976 495.85329 76.726022 495.83930 76.739706 495.82610 76.745046 495.82608 76.772270 495.84401 76.783612 495.84042 76.785795 495.83085 76.779114 495.78454 76.780991 495.77012 76.824357 495.73101 76.894159 495.61393 76.934185 495.58571 76.936365 495.58418 76.937703 495.57993 76.940201 495.57201 76.941351 495.56836 76.940029 495.56421 76.930359 495.53382 76.930783 495.52366 76.936072 495.51296 76.948428 495.50330 76.984739 495.49288 76.983399 495.48241 76.964106 495.46964 76.955702 495.44589 76.961145 495.42345 76.971095 495.38244 76.990140 495.34714 76.987607 495.32287 76.974818 495.30046 76.975854 495.29389 77.027274 495.25665 77.048637 495.25068 77.083205 495.25113 77.091945 495.23699 77.088230 495.22259 77.073718 495.19926 77.064906 495.18850 77.065666 495.17036 77.075222 495.14524 77.070746 495.12471 77.063245 495.10306 77.061311 495.09748 77.061850 495.08463 77.062072 495.07934 77.076561 495.06145 77.080788 495.05800 77.088368 495.05181 77.092047 495.04880 77.094312 495.04848 77.110390 495.04616 77.147601 495.04079 77.150526 495.02848 77.146404 495.01278 77.148799 494.99990 77.154723 494.98869 77.156853 494.98466 77.180614 494.98300 77.188621 494.98398 77.192109 494.98441 77.195851 494.98486 77.200901 494.99007 77.206602 494.99595 77.207712 494.99709 77.209592 495.00302 77.214947 495.01991 77.217017 495.02059 77.226707 495.02378 77.240933 495.01285 77.263079 494.98482 77.291209 494.92089 77.292491 494.91429 77.296061 494.89591 77.296743 494.89240 77.296142 494.89045 77.290920 494.87358 77.261254 494.86546 77.262304 494.84059 77.266686 494.83314 77.287640 494.81740 77.328148 494.78696 77.333658 494.77603 77.353412 494.73685 77.342485 494.72578 77.337179 494.71182 77.331098 494.71130 77.329234 494.70797 77.326104 494.70237 77.323014 494.69685 77.322930 494.69461 77.320016 494.61737 77.343036 494.53594 77.345995 494.50809 77.339267 494.48669 77.332541 494.46761 77.331675 494.44421 77.339034 494.42689 77.345491 494.41169 77.345484 494.40875 77.345414 494.38248 77.354466 494.36017 77.355769 494.35695 77.389072 494.35528 77.459148 494.32797 77.494627 494.30709 77.484659 494.26598 77.470624 494.24573 77.466681 494.24004 77.430110 494.20239 77.414756 494.19540 77.410400 494.19342 77.395644 494.19966 77.380171 494.21281 77.363733 494.21521 77.360261 494.20332 77.360394 494.18973 77.364701 494.17342 77.401027 494.13223 77.403375 494.11885 77.396562 494.10560 77.381056 494.09325 77.380589 494.09315 77.373495 494.09166 77.343751 494.10345 77.342912 494.10378 77.342202 494.10407 77.342075 494.10402 77.339371 494.10306 77.332735 494.10070 77.330643 494.09995 77.328351 494.09398 77.325359 494.08619 77.323383 494.08104 77.324526 494.07266 77.328221 494.04556 77.320697 494.03242 77.318729 494.02899 77.314703 494.02736 77.303919 494.02302 77.290936 494.01779 77.241905 494.01082 77.193960 494.03103 77.077186 494.03637 77.062199 494.02933 77.058723 494.02557 77.052980 494.01935 77.048256 494.01423 77.032026 493.98111 77.020569 493.93917 77.018851 493.91952 77.030192 493.89787 77.102106 493.83885 77.207703 493.76548 77.225809 493.73420 77.227095 493.71570 77.216915 493.68576 77.199178 493.64788 77.157268 493.58025 77.132440 493.55987 77.121635 493.55687 77.075668 493.56129 77.065125 493.54610 77.068314 493.52462 77.083960 493.50341 77.126794 493.47062 77.134989 493.45724 77.144396 493.42101 77.158986 493.40078 77.203977 493.36503 77.209959 493.35588 77.209150 493.35276 77.207472 493.34630 77.206017 493.34070 77.197498 493.33170 77.187911 493.32977 77.183400 493.33186 77.156270 493.34446 77.134346 493.33971 77.141751 493.30869 77.134715 493.29334 77.133789 493.29132 77.125017 493.29095 77.115375 493.29054 77.112721 493.29043 77.112498 493.29565 77.112320 493.29982 77.106970 493.30723 77.105321 493.30840 77.096474 493.31466 77.093339 493.31688 77.091875 493.31662 77.074475 493.31358 77.069683 493.29023 77.068016 493.24293 77.051471 493.17493 77.048377 493.16907 77.042136 493.15726 77.039931 493.15308 77.037288 493.15219 76.985056 493.13457 76.960684 493.12634 76.909413 493.14198 76.896072 493.13887 76.892338 493.13520 76.884534 493.12751 76.880688 493.12373 76.862473 493.08932 76.838992 493.09277 76.838533 493.09399 76.833117 493.10830 76.816918 493.11882 76.790209 493.11901 76.786512 493.11759 76.779852 493.11502 76.776189 493.11361 76.774677 493.11148 76.727131 493.04423 76.697459 493.02980 76.676045 493.01214 76.662624 492.98916 76.659269 492.97676 76.662699 492.95413 76.673648 492.94226 76.720359 492.91153 76.724682 492.89225 76.706335 492.86421 76.689241 492.85028 76.631288 492.85427 76.623391 492.84707 76.594800 492.77362 76.585329 492.67230 76.565081 492.61986 76.547172 492.59752 76.515556 492.57885 76.510174 492.57567 76.443373 492.56382 76.428727 492.55561 76.423826 492.54478 76.430846 492.52406 76.426467 492.47641 76.381531 492.42449 76.342148 492.39874 76.276686 492.33863 76.209991 492.29041 76.208375 492.28986 76.154554 492.27164 76.074751 492.27738 76.065680 492.27803 76.023478 492.27223 75.988843 492.26024 75.986623 492.25824 75.978868 492.25124 75.974117 492.24696 75.966745 492.23543 75.958464 492.22249 75.953804 492.20889 75.941409 492.17273 75.935384 492.16460 75.920329 492.16068 75.920329 492.16068 75.884056 492.16587 75.844179 492.20458 75.829873 492.21318 75.786384 492.21790 75.782817 492.21828 75.763702 492.21359 75.760487 492.21280 75.759034 492.21245 75.736356 492.19885 75.698264 492.17122 75.678438 492.14851 75.653424 492.13276 75.557062 492.13410 75.534252 492.12330 75.531722 492.12211 75.529680 492.11995 75.467154 492.05404 75.458761 492.03714 75.459347 492.02195 75.459406 492.02041 75.488468 491.97459 75.489926 491.97229 75.489478 491.96905 75.487332 491.95355 75.462688 491.94212 75.419707 491.94630 75.385897 491.93318 75.376970 491.92389 75.376252 491.92314 75.376027 491.92117 75.368014 491.85086 75.372549 491.84136 75.395964 491.81933 75.397920 491.80784 75.393615 491.79606 75.373133 491.77733 75.368371 491.76294 75.379335 491.72028 75.401653 491.66320 75.404266 491.65083 75.399501 491.63052 75.388388 491.61890 75.353319 491.59971 75.294679 491.58705 75.239571 491.56412 75.205669 491.53667 75.153974 491.49482 75.089163 491.45527 75.015249 491.44394 74.953058 491.40655 74.946365 491.40507 74.939748 491.40361 74.932775 491.40206 74.905426 491.40927 74.856138 491.43897 74.708309 491.50559 74.690156 491.51377 74.686964 491.51440 74.653345 491.52111 74.570185 491.49852 74.511058 491.44612 74.480849 491.39552 74.431495 491.37357 74.402333 491.37330 74.352803 491.39259 74.249600 491.38652 74.210035 491.37406 74.066252 491.37925 74.038888 491.36426 74.026057 491.30789 74.012122 491.29125 73.902425 491.23276 73.842505 491.19809 73.806467 491.18656 73.770151 491.17802 73.750628 491.18406 73.716424 491.19465 73.690146 491.19752 73.658469 491.17376 73.654339 491.14007 73.666664 491.12275 73.670506 491.02196 73.669896 490.98940 73.663279 490.96832 73.636465 490.92237 73.621268 490.90657 73.564840 490.85471 73.509161 490.83622 73.466778 490.78731 73.418063 490.68541 73.401876 490.61522 73.413382 490.58621 73.428839 490.58305 73.457568 490.60605 73.474364 490.60702 73.477324 490.58356 73.476325 490.57656 73.474169 490.56147 73.467648 490.55094 73.463303 490.55041 73.457576 490.53270 73.471617 490.45135 73.472617 490.44936 73.521482 490.35202 73.549344 490.32523 73.553596 490.32115 73.556314 490.31526 73.567919 490.29014 73.573565 490.26010 73.553430 490.20475 73.533070 490.12015 73.531860 490.08299 73.543289 490.04045 73.539512 490.01846 73.500045 489.92071 73.505206 489.89701 73.499420 489.85284 73.491454 489.83400 73.464324 489.81091 73.456804 489.79387 73.446954 489.71371 73.487457 489.66152 73.520356 489.60145 73.560726 489.47454 73.606559 489.40832 73.607490 489.40811 73.648579 489.39889 73.667848 489.35739 73.669037 489.34326 73.669037 489.34326 73.649429 489.30386 73.648550 489.29291 73.656056 489.20045 73.659860 489.15360 73.660991 489.13966 73.661265 489.13629 73.662710 489.13476 73.695608 489.09990 73.725047 489.08697 73.729753 489.07621 73.702063 488.99922 73.691430 488.99794 73.675901 489.00895 73.666146 489.00843 73.630981 488.98779 73.585280 488.94144 73.569693 488.85476 73.569244 488.83239 73.585470 488.76236 73.588366 488.74987 73.591210 488.73760 73.592373 488.73258 73.604423 488.70810 73.626513 488.68728 73.650330 488.68331 73.654130 488.68268 73.657075 488.68452 73.660801 488.68686 73.665315 488.68968 73.669374 488.69695 73.670943 488.73157 73.681117 488.74927 73.683622 488.75363 73.687099 488.75650 73.691075 488.75979 73.693249 488.76159 73.697177 488.76124 73.711709 488.75995 73.715688 488.75960 73.747490 488.74446 73.762064 488.72770 73.764685 488.70415 73.759659 488.65263 73.752295 488.63102 73.749698 488.62740 73.745974 488.62220 73.741640 488.61616 73.725982 488.60556 73.696382 488.59922 73.688790 488.60026 73.646253 488.60605 73.634917 488.59825 73.626825 488.57870 73.639343 488.55958 73.701209 488.51608 73.750580 488.49071 73.765095 488.47282 73.766358 488.46249 73.754615 488.44305 73.729275 488.43622 73.709568 488.44130 73.694011 488.46453 73.684455 488.46807 73.612235 488.45233 73.608995 488.44518 73.613197 488.43039 73.634802 488.40346 73.637938 488.37885 73.598102 488.32842 73.577249 488.27042 73.570956 488.25979 73.557707 488.25125 73.505058 488.25407 73.487583 488.25000 73.476536 488.21383 73.477648 488.21231 73.480320 488.20864 73.482819 488.20520 73.529367 488.18014 73.534545 488.16156 73.500572 488.15332 73.434151 488.11307 73.414707 488.09791 73.411605 488.09301 73.407226 488.08609 73.402423 488.07851 73.398142 488.06215 73.400476 488.04113 73.433752 487.98763 73.438335 487.96749 73.433622 487.95470 73.402292 487.93428 73.399523 487.93247 73.396252 487.92805 73.390620 487.92042 73.389102 487.91837 73.388224 487.91386 73.386178 487.90336 73.385660 487.90071 73.388495 487.86395 73.382996 487.84725 73.380479 487.84593 73.363780 487.83717 73.317667 487.86880 73.305166 487.87014 73.289430 487.85535 73.281591 487.84008 73.277871 487.81606 73.282868 487.78268 73.321995 487.74036 73.328155 487.72432 73.326673 487.70902 73.317591 487.70004 73.301243 487.70226 73.300908 487.70503 73.299804 487.71415 73.299621 487.71454 73.283644 487.74839 73.255415 487.76725 73.253644 487.76843 73.251132 487.76776 73.225196 487.76081 73.205849 487.73814 73.203482 487.73537 73.204190 487.72910 73.205826 487.71462 73.207571 487.69917 73.220529 487.64220 73.219558 487.62666 73.181230 487.60151 73.178332 487.59961 73.127670 487.54238 73.116816 487.53012 73.120034 487.50214 73.152782 487.45954 73.162456 487.42566 73.160688 487.34521 73.160183 487.32228 73.156581 487.29030 73.144841 487.25306 73.145094 487.24032 73.149047 487.23135 73.175960 487.22613 73.206276 487.25560 73.222710 487.26104 73.294102 487.24333 73.335331 487.22600 73.342718 487.21926 73.341729 487.21472 73.339062 487.21391 73.276513 487.19490 73.261157 487.17929 73.258977 487.16112 73.275304 487.13976 73.277914 487.12630 73.276480 487.12362 73.234702 487.04556 73.223489 487.03219 73.184057 487.01173 73.148790 487.01022 73.138814 487.00549 73.130116 487.00138 73.128469 487.00060 73.125990 486.99411 73.125240 486.99215 73.122145 486.98405 73.121309 486.97057 73.120930 486.96446 73.120670 486.96026 73.121705 486.95592 73.136317 486.89461 73.138605 486.88502 73.141563 486.87261 73.142081 486.85756 73.136204 486.73913 73.127662 486.71281 73.113888 486.69013 73.004006 486.58698 72.926136 486.53162 72.877054 486.49006 72.843472 486.43793 72.822159 486.38874 72.818790 486.33915 72.806330 486.32660 72.755302 486.31250 72.728045 486.31462 72.720049 486.30293 72.711541 486.28435 72.706724 486.23919 72.721496 486.20054 72.739598 486.17087 72.751636 486.14287 72.759739 486.12402 72.702146 486.09131 72.665163 486.08777 72.661060 486.08627 72.648950 486.08184 72.636795 486.07739 72.635008 486.07457 72.622809 486.05532 72.600419 485.97375 72.605685 485.94598 72.645194 485.85277 72.654702 485.72992 72.646846 485.69259 72.624944 485.64994 72.610253 485.60448 72.608375 485.58513 72.627634 485.52689 72.646910 485.49048 72.655399 485.44244 72.644537 485.40338 72.598488 485.35855 72.581243 485.29002 72.563398 485.25378 72.552017 485.23687 72.496888 485.19153 72.487600 485.17317 72.486645 485.14873 72.491849 485.08676 72.496902 485.02659 72.494911 485.02448 72.493878 485.02339 72.488068 485.01724 72.475313 485.00374 72.449503 484.98532 72.404261 484.97058 72.391608 484.96150 72.376157 484.93760 72.361851 484.89492 72.349905 484.87240 72.347320 484.86836 72.333775 484.84718 72.299603 484.79376 72.280452 484.76382 72.271535 484.75825 72.211600 484.72077 72.182893 484.70283 72.031752 484.59847 71.975908 484.59640 71.939098 484.51642 71.909511 484.48853 71.871195 484.43977 71.855047 484.40468 71.814781 484.33755 71.794043 484.31097 71.792867 484.31009 71.756085 484.28254 71.732077 484.23907 71.728841 484.22451 71.714773 484.16125 71.714515 484.12493 71.714337 484.09992 71.714294 484.09394 71.713825 484.02801 71.713816 484.02677 71.713812 484.02613 71.713768 484.01992 71.727914 483.99903 71.739169 483.96534 71.738075 483.92057 71.732349 483.86982 71.721739 483.83643 71.696666 483.78620 71.683315 483.75946 71.672885 483.74986 71.667278 483.74470 71.664890 483.73733 71.662732 483.73066 71.658964 483.71902 71.657510 483.70067 71.653010 483.64386 71.656422 483.63381 71.663683 483.61244 71.663307 483.57566 71.663257 483.57075 71.654460 483.55216 71.596631 483.52514 71.568923 483.50726 71.564328 483.50430 71.558045 483.50024 71.553126 483.49519 71.546449 483.48833 71.544514 483.48634 71.541475 483.47848 71.541473 483.47847 71.541473 483.47847 71.540534 483.47604 71.542704 483.45604 71.543643 483.45508 71.560314 483.43805 71.561560 483.43098 71.548870 483.39118 71.522173 483.36896 71.507782 483.30379 71.506694 483.25116 71.524697 483.20497 71.551030 483.18447 71.553130 483.18123 71.559950 483.17071 71.561997 483.16755 71.562878 483.16085 71.568060 483.12149 71.561877 483.10046 71.553166 483.09346 71.553166 483.09346 71.531171 483.08345 71.393689 482.94966 71.282181 482.90081 71.219128 482.85809 71.209310 482.85144 71.203518 482.84424 71.160204 482.79041 71.154312 482.76094 71.137964 482.67918 71.137271 482.66061 71.152802 482.57723 71.164210 482.42156 71.144058 482.36206 71.142551 482.35762 71.136968 482.34775 71.107762 482.29613 71.098207 482.27925 71.092276 482.27380 71.086527 482.26852 71.085603 482.26768 71.057125 482.26833 71.044361 482.22880 71.046518 482.19195 71.043803 482.18093 71.026865 482.11213 71.029282 482.08323 71.031211 482.07994 71.046985 482.05302 71.102993 482.00850 71.142932 481.96929 71.176694 481.89403 71.181611 481.87461 71.181820 481.86159 71.182039 481.84789 71.182165 481.84007 71.174641 481.74607 71.173494 481.73990 71.171528 481.72932 71.170384 481.72317 71.166138 481.70032 71.154312 481.67988 71.153993 481.67952 71.099296 481.61795 71.091910 481.60198 71.091670 481.57656 71.113166 481.42322 71.108744 481.40174 71.089734 481.35448 71.087733 481.34951 71.083597 481.32459 71.077425 481.28741 71.076370 481.28106 71.076377 481.28009 71.076675 481.23439 71.076908 481.19860 71.076919 481.19695 71.076194 481.19231 71.073269 481.17353 71.049540 481.02128 71.049727 480.97402 71.040828 480.89244 71.026526 480.76138 71.024791 480.75792 71.015519 480.73944 70.953486 480.67425 70.936855 480.62826 70.933286 480.58724 70.944068 480.46934 70.947925 480.45142 70.959108 480.43474 71.037111 480.38554 71.063253 480.38216 71.065682 480.38184 71.106982 480.38437 71.132647 480.38594 71.139028 480.38223 71.149724 480.37603 71.144721 480.35771 71.143778 480.35426 71.109031 480.30236 71.078517 480.26992 71.065428 480.24943 71.022666 480.15995 71.004055 480.12101 71.000877 480.11104 70.997059 480.09905 70.994324 480.09047 70.996030 480.07630 71.009138 480.04645 71.061636 479.96700 71.099630 479.93401 71.102624 479.93141 71.104821 479.92764 71.111209 479.91667 71.118182 479.90470 71.118568 479.90262 71.120383 479.89289 71.121526 479.88676 71.120932 479.88539 71.074531 479.77858 71.031506 479.54932 70.973734 479.41948 70.928148 479.33265 70.926682 479.32985 70.923179 479.32797 70.879933 479.30477 70.862124 479.29521 70.817680 479.27137 70.808639 479.25965 70.791397 479.20856 70.792365 479.11226 70.812918 479.04707 70.833860 479.01035 70.838702 478.99348 70.838504 478.99224 70.838430 478.99178 70.833372 478.96002 70.809225 478.90185 70.788241 478.83210 70.789020 478.78994 70.807137 478.72112 70.815584 478.65772 70.816376 478.65178 70.815207 478.64941 70.810906 478.64072 70.806803 478.63242 70.769839 478.59181 70.744254 478.56371 70.717799 478.53466 70.725788 478.49805 70.771754 478.42634 70.774352 478.42229 70.775141 478.41630 70.777546 478.39808 70.777993 478.39469 70.777544 478.39392 70.766407 478.37478 70.721675 478.32509 70.706192 478.30789 70.712441 478.28648 70.713517 478.18913 70.713517 478.18913 70.720080 478.11976 70.719447 478.11170 70.719003 478.10604 70.718620 478.10116 70.717362 478.09835 70.714132 478.09114 70.711007 478.08416 70.705036 478.07847 70.681455 478.05603 70.677914 478.04698 70.677050 478.04477 70.676901 478.04439 70.679586 478.02296 70.682186 478.01784 70.682747 478.01674 70.722045 477.93939 70.752587 477.92101 70.785782 477.92406 70.804825 477.91625 70.813230 477.90737 70.816734 477.86757 70.815713 477.85941 70.799830 477.85537 70.798634 477.84466 70.815503 477.81645 70.840839 477.78912 70.846961 477.78252 70.857865 477.77076 70.872299 477.74764 70.882319 477.73160 70.883245 477.73012 70.887674 477.66825 70.884356 477.65214 70.871319 477.62150 70.829637 477.58177 70.825876 477.57818 70.821211 477.56880 70.815949 477.55822 70.811756 477.54979 70.807624 477.51867 70.840882 477.45311 70.876421 477.36271 70.876452 477.32840 70.869951 477.30813 70.841583 477.25516 70.800101 477.19063 70.751667 477.13252 70.725338 477.10093 70.722526 477.09821 70.671574 477.04886 70.653264 477.03113 70.644192 477.01796 70.635568 477.00544 70.632344 477.00076 70.631865 476.99902 70.625940 476.97744 70.631422 476.93924 70.639614 476.92068 70.670433 476.88503 70.687882 476.84618 70.684146 476.79371 70.676767 476.75143 70.669655 476.71068 70.671058 476.70277 70.674163 476.68528 70.675485 476.67783 70.699515 476.62318 70.705255 476.61012 70.706882 476.60790 70.721959 476.58725 70.755495 476.57100 70.825280 476.51570 70.831532 476.50032 70.832423 476.49813 70.832849 476.48914 70.833569 476.47399 70.833856 476.46793 70.824571 476.44732 70.795208 476.41033 70.770277 476.40300 70.728142 476.40982 70.703978 476.39546 70.680666 476.35989 70.667332 476.32212 70.663618 476.27728 70.675448 476.23928 70.695943 476.21702 70.695964 476.21505 70.696082 476.20432 70.672171 476.16897 70.662035 476.15398 70.612419 476.09515 70.601353 476.08203 70.600235 476.08070 70.598685 476.08044 70.576726 476.07667 70.555533 476.09661 70.535335 476.10032 70.493937 476.07467 70.448621 476.02729 70.354384 476.00411 70.324952 475.98496 70.241195 475.97158 70.239470 475.97130 70.220309 475.95475 70.129890 475.87665 70.115055 475.84496 70.112219 475.81999 70.117971 475.80568 70.136663 475.78310 70.152536 475.77923 70.162694 475.77064 70.172533 475.74678 70.180178 475.71092 70.183814 475.66452 70.180016 475.58512 70.206612 475.47383 70.206034 475.44129 70.204850 475.43879 70.201401 475.43151 70.199566 475.42763 70.196641 475.42585 70.168104 475.40843 70.160094 475.39549 70.158291 475.38637 70.154056 475.36493 70.150349 475.34617 70.150550 475.34098 70.150898 475.33203 70.154323 475.24387 70.144254 475.22275 70.144254 475.22275 70.108796 475.17496 70.081670 475.14648 70.035171 475.12023 69.990467 475.10216 69.984074 475.09460 69.966074 474.98805 69.969803 474.93958 69.962282 474.89371 69.962720 474.89051 69.963340 474.88598 69.971514 474.88042 69.980703 474.81742 69.965721 474.76473 69.965721 474.76473 69.964586 474.76074 69.958332 474.73875 69.962956 474.72914 69.964050 474.72686 69.966464 474.72184 69.967406 474.71988 69.991589 474.66958 70.032950 474.61868 70.043766 474.56971 70.045116 474.51436 70.058553 474.41844 70.058829 474.41698 70.089725 474.25398 70.090578 474.24948 70.090936 474.24759 70.118154 474.20782 70.296524 474.05543 70.317787 474.03282 70.326196 474.02117 70.336669 474.00666 70.352714 473.98443 70.360718 473.96974 70.373973 473.94541 70.377714 473.93854 70.385336 473.90504 70.383432 473.87970 70.369309 473.86384 70.331588 473.84289 70.316988 473.81172 70.322822 473.78344 70.323189 473.78166 70.324466 473.78049 70.348244 473.75875 70.361727 473.75858 70.366547 473.75852 70.389944 473.76657 70.445982 473.80268 70.448569 473.80435 70.459899 473.82021 70.462723 473.85283 70.469262 473.86344 70.490461 473.86816 70.525266 473.86006 70.553736 473.82662 70.565715 473.80030 70.578645 473.78468 70.624648 473.75915 70.639500 473.73876 70.654401 473.69983 70.666662 473.62269 70.681784 473.56964 70.726275 473.51866 70.784823 473.43150 70.806773 473.38642 70.807268 473.36152 70.807268 473.36152 69.927356 473.36869 69.512542 473.37246 68.939855 473.37807 67.934006 473.38907 66.941588 473.39268 66.217607 473.39622 66.182736 473.39640 65.471505 473.39927 65.203300 473.40054 64.200351 473.40621 64.200351 473.40621 64.106504 473.40516 63.975060 474.02352 64.011352 474.09222 64.019539 474.11910 64.031187 474.15735 64.002684 474.22649 64.013224 474.38171 64.021831 474.39146 64.068261 474.37525 64.068843 474.42133 64.077192 475.08466 64.078145 475.49774 64.078295 475.56364 64.078407 475.58721 64.078948 475.60022 64.078948 475.60022 64.082258 475.81529 64.091988 476.45005 64.093787 476.56779 64.093855 476.57226 64.094670 476.62566 64.099520 476.78466 64.115087 477.29602 64.118504 477.49854 64.120180 477.59804 64.137593 478.63660 64.139999 478.78085 64.140012 478.78166 64.151282 479.10804 64.154485 479.72386 64.156773 480.16883 64.156773 480.26637 64.156473 480.34182 64.157053 480.34975 64.161113 480.76883 64.166793 481.35898 64.166844 481.36436 64.167712 481.45490 64.168146 481.94908 64.168146 481.94908 64.169976 481.99307 64.162528 481.99697 64.161066 482.04064 64.167543 482.06975 64.195007 482.09195 64.206530 482.11099 64.209891 482.14358 64.207665 482.17274 64.204016 482.17213 64.174032 482.23173 64.165686 482.24832 64.155549 482.25876 64.136662 482.26519 64.132797 482.34285 64.148352 482.36708 64.147903 482.37014 64.146268 482.38126 64.113574 482.41384 64.062993 482.50276 64.044211 482.52058 64.017921 482.54554 63.974560 482.57895 63.890495 482.60241 63.880327 482.61515 63.877051 482.63922 63.847466 482.65742 63.778005 482.64761 63.777894 482.64768 63.769146 482.65245 63.763022 482.66638 63.769802 482.69162 63.788129 482.71438 63.787252 482.71705 63.786538 482.71922 63.785967 482.72095 63.748648 482.74484 63.777178 482.80359 63.780440 482.81814 63.782408 482.84256 63.784294 482.86598 63.783049 482.91473 63.770265 482.94395 63.734633 482.99683 63.733254 482.99744 63.716178 483.00509 63.709312 483.06393 63.699252 483.15017 63.698645 483.15537 63.694500 483.17022 63.681503 483.18495 63.664271 483.19527 63.652708 483.18919 63.629882 483.15119 63.611998 483.15625 63.572999 483.18605 63.521894 483.18806 63.491548 483.16838 63.374700 483.16778 63.331599 483.12736 63.242513 483.15399 63.238444 483.14872 63.186643 483.13483 63.173654 483.13660 63.160703 483.14736 63.159443 483.14841 63.154196 483.14777 63.138304 483.14584 63.135368 483.14548 63.134797 483.14299 63.130929 483.12608 63.152699 483.09273 63.152325 483.08586 63.115976 483.03608 63.104493 483.01274 63.135468 482.94022 63.134964 482.92725 63.127441 482.90982 63.093485 482.86875 63.048117 482.83589 63.050883 482.70206 63.059160 482.64073 63.053063 482.61369 63.046721 482.59959 62.985169 482.53621 62.954818 482.51532 62.935781 482.51471 62.918081 482.52352 62.874519 482.54813 62.781602 482.61913 62.753243 482.66036 62.702187 482.67589 62.686044 482.68691 62.666748 482.72035 62.664210 482.73417 62.671036 482.75927 62.712472 482.85163 62.738704 482.89933 62.733626 482.93798 62.719277 482.98746 62.719852 483.00266 62.765568 483.09497 62.766618 483.10722 62.761018 483.12531 62.681302 483.24716 62.675429 483.27054 62.691254 483.33811 62.700947 483.35710 62.714189 483.37275 62.752241 483.39796 62.777483 483.44921 62.784059 483.51332 62.833957 483.63904 62.835598 483.67330 62.837937 483.68167 62.838435 483.68345 62.838435 483.68345 62.863138 483.77182 62.867077 483.80426 62.867676 483.80919 62.865350 483.81545 62.852634 483.84971 62.855999 483.86859 62.856301 483.87029 62.857777 483.87259 62.877127 483.90283 62.906990 483.92028 62.929200 483.94522 62.943147 483.97181 62.957801 484.01966 63.003697 484.10783 63.026616 484.13852 63.067785 484.17992 63.123670 484.26565 63.128345 484.30280 63.128520 484.30419 63.120531 484.37938 63.122587 484.45384 63.125251 484.46841 63.126209 484.47365 63.126674 484.47620 63.134413 484.49092 63.168973 484.55664 63.178876 484.57547 63.244095 484.69955 63.274013 484.77010 63.274242 484.77644 63.274493 484.78343 63.274604 484.78651 63.240028 484.83896 63.233309 484.85823 63.215554 484.94082 63.174776 484.98755 63.128342 485.02146 63.061374 485.08037 63.053975 485.10021 63.044444 485.16036 63.035806 485.18681 63.035806 485.18681 63.022984 485.21500 63.002726 485.24082 62.945205 485.28482 62.926857 485.32232 62.924468 485.33802 62.943481 485.41803 62.957336 485.45208 63.008722 485.50765 63.050621 485.53116 63.073304 485.56775 63.073703 485.56886 63.074044 485.56980 63.084292 485.59827 63.082361 485.60855 63.079733 485.61243 63.075851 485.61816 63.071760 485.62420 63.012450 485.67792 63.003422 485.70413 63.006883 485.75117 63.023120 485.81163 63.062698 485.91813 63.063188 485.93369 63.061888 485.93722 63.043990 485.98586 62.984001 486.10311 62.881898 486.23549 62.870266 486.26442 62.838348 486.39024 62.780875 486.53178 62.773424 486.56548 62.794610 486.74234 62.780227 486.94766 62.742959 487.03893 62.731073 487.08741 62.730744 487.11784 62.740882 487.15673 62.754122 487.25843 62.777532 487.43836 62.776337 487.49105 62.764367 487.53577 62.763617 487.53857 62.761299 487.54723 62.754709 487.56325 62.740271 487.59834 62.735753 487.60932 62.726806 487.61790 62.710820 487.63325 62.706447 487.63744 62.693665 487.64469 62.677460 487.65387 62.659473 487.66407 62.635594 487.67200 62.595545 487.72623 62.573011 487.73733 62.523264 487.77896 62.515863 487.80580 62.558022 488.01153 62.570560 488.10362 62.576680 488.18927 62.675853 488.41348 62.699118 488.50609 62.713054 488.56158 62.708764 488.61543 62.702339 488.64901 62.690703 488.70984 62.673303 488.77011 62.673176 488.78459 62.704431 488.84074 62.732910 488.85849 62.770643 488.91391 62.777400 488.93138 62.790991 489.00342 62.797323 489.03700 62.803071 489.11402 62.827785 489.15755 62.828679 489.16625 62.818148 489.18746 62.811785 489.21806 62.815239 489.24313 62.823052 489.26483 62.866045 489.30679 62.871457 489.32649 62.860587 489.41320 62.861967 489.43338 62.878286 489.44961 62.903606 489.45321 62.914184 489.45965 62.927170 489.50458 62.963102 489.53057 62.982220 489.53555 63.004759 489.56152 63.018034 489.58824 63.086381 489.63404 63.090266 489.65444 63.117479 489.71964 63.137757 489.75739 63.137211 489.79423 63.141082 489.80241 63.172038 489.82908 63.178377 489.87824 63.237954 489.92583 63.229834 489.96476 63.281017 489.98255 63.302545 489.99870 63.330087 490.03574 63.339436 490.03871 63.376694 490.02958 63.385293 490.03290 63.414302 490.09627 63.437850 490.18812 63.461452 490.25874 63.462694 490.26246 63.466182 490.27290 63.478731 490.37199 63.467243 490.43603 63.429278 490.52035 63.382817 490.67319 63.365237 490.76729 63.360623 490.86969 63.364884 490.93835 63.361679 491.03189 63.351605 491.08383 63.335923 491.13723 63.332680 491.14828 63.324039 491.16778 63.271653 491.28603 63.267538 491.37000 63.276634 491.45738 63.301339 491.49899 63.374824 491.57474 63.405334 491.61214 63.420789 491.64063 63.440063 491.70989 63.453601 491.79785 63.562795 492.08613 63.577980 492.18887 63.578039 492.19046 63.578229 492.19562 63.578491 492.20273 63.579210 492.22227 63.577314 492.23025 63.565221 492.28115 63.524209 492.37839 63.533123 492.48132 63.529860 492.55962 63.529723 492.56289 63.520964 492.62214 63.482819 492.72233 63.477329 492.79411 63.461259 492.88407 63.410671 492.95983 63.358769 493.01115 63.345901 493.02945 63.342150 493.05177 63.341298 493.05684 63.340647 493.06072 63.341371 493.07735 63.342294 493.09857 63.341561 493.10375 63.333783 493.15875 63.318196 493.17878 63.311584 493.18137 63.281518 493.19312 63.273836 493.20102 63.264442 493.22118 63.263691 493.22971 63.261284 493.25706 63.255331 493.27533 63.253908 493.27723 63.231510 493.30714 63.195053 493.35584 63.194871 493.35609 63.194765 493.35660 63.192766 493.36627 63.192183 493.36909 63.196970 493.39549 63.196970 493.39549 63.195738 493.40882 63.161656 493.45103 63.104520 493.48860 63.063204 493.50473 63.060783 493.50676 63.057189 493.50977 63.050257 493.51558 63.036728 493.54085 63.035566 493.54302 63.023016 493.56646 63.013021 493.57580 63.011068 493.57763 62.964831 493.62084 62.906591 493.70758 62.894997 493.78050 62.877421 493.81449 62.844317 493.86037 62.845689 493.87448 62.874678 493.91134 62.882982 493.92936 62.886355 493.94902 62.881725 493.97537 62.849713 494.03742 62.830677 494.11422 62.774922 494.16897 62.771410 494.18160 62.773235 494.19572 62.793131 494.24114 62.799151 494.27739 62.802989 494.32325 62.791927 494.37302 62.794807 494.38226 62.849722 494.42770 62.858889 494.44027 62.821495 494.48719 62.861023 494.56748 62.860493 494.57778 62.852634 494.59245 62.851442 494.61011 62.889374 494.67274 62.897782 494.67706 62.917431 494.67528 62.924519 494.68609 62.920803 494.71483 62.920236 494.71560 62.899165 494.74405 62.903155 494.81518 62.904293 494.83546 62.905907 494.83726 62.907926 494.83950 62.910141 494.84196 62.940674 494.85349 62.938430 494.88433 62.919884 494.91136 62.916019 494.92345 62.953814 494.95414 62.983864 495.03228 62.983741 495.03605 62.983646 495.03893 62.983556 495.04167 62.948887 495.09574 62.947130 495.37740 62.945766 495.40999 62.941554 495.51055 62.939766 495.55327 62.939626 495.55661 62.952864 495.59541 63.000020 495.66042 63.025260 495.70847 63.042698 495.76866 63.067194 495.85323 63.078959 495.90616 63.100511 495.94321 63.166770 496.00906 63.181427 496.04388 63.184249 496.07144 63.185495 496.08360 63.185118 496.08873 63.177518 496.19184 63.176956 496.19946 63.172345 496.23257 63.168745 496.24378 63.164809 496.25603 63.163785 496.25922 63.117803 496.30876 63.105313 496.32222 63.044423 496.38783 63.017654 496.43165 63.005758 496.44379 62.980566 496.46340 62.919797 496.49708 62.891511 496.52290 62.887822 496.52627 62.874168 496.54385 62.841187 496.60503 62.814301 496.61617 62.808348 496.62330 62.791723 496.70088 62.790585 496.74291 62.801207 496.83460 62.832881 496.87644 62.862073 496.89557 62.883748 496.94342 62.902767 497.03670 62.932497 497.21981 62.946220 497.28424 62.963043 497.33003 62.977031 497.36550 62.996605 497.39762 63.041653 497.44257 63.079471 497.47001 63.094031 497.48057 63.108465 497.51125 63.110127 497.51479 63.110359 497.52155 63.112586 497.58631 63.099359 497.80005 63.108837 497.99108 63.105220 498.03778 63.101090 498.05032 63.052685 498.10025 63.008187 498.16329 62.986152 498.21198 62.975715 498.24976 62.970865 498.28622 62.979721 498.31766 63.004334 498.36416 63.056257 498.54899Z"/></g><g id="Unknown_Line_Type_st50_d00_e00" style="fill:none;stroke:rgb(0,0,0);stroke-width:0.000500;stroke-linecap:round"><polyline points="63.056256,498.54916 63.795091,498.57964 63.860056,498.58740 64.247024,498.60546 64.418503,498.61353 65.081405,498.64555 65.089503,498.63748 65.246067,498.64153 65.288431,498.65455 65.345572,498.65424 65.377748,498.64465 65.636490,498.65418 65.642606,498.65331 65.784865,498.65307 65.811478,498.65303 66.011036,498.65270 66.259976,498.66080 66.260457,498.66514 66.305749,498.67178 66.496378,498.68138 66.974790,498.70609 67.077246,498.70716 67.203164,498.70846 67.513395,498.71172 68.101943,498.72498 68.159334,498.72628 68.321445,498.72993 68.456401,498.72876 68.759945,498.72651 68.991063,498.72488 69.015828,498.72166 69.050793,498.70783 69.082216,498.70337 69.260374,498.67807 69.272325,498.67811 69.272607,498.67811 69.444997,498.67865 69.850255,498.70244 70.103866,498.70672 70.225275,498.70354 70.346551,498.70036 70.479405,498.69688 70.805300,498.69906 70.895183,498.69972 71.042419,498.69489 71.047928,498.69471 71.199337,498.68974 71.342576,498.70198 71.508168,498.70401 71.698278,498.71526 72.377156,498.75621 72.522169,498.75916 72.776229,498.76448 72.830119,498.76566 72.943207,498.77219 72.946417,498.77238 72.946796,498.77240 72.951164,498.77265 73.230852,498.78881 73.376057,498.82200 73.407447,498.79982 73.458249,498.80178 73.685138,498.81950 73.746130,498.82432 73.771955,498.82575 74.057236,498.84155 74.311162,498.84488 74.447725,498.85484 75.472363,498.93074 76.018869,498.95259 76.027907,498.95296 76.067734,498.95459 76.713749,498.99559 77.102122,499.01036 77.559352,499.03900"/><polyline points="63.056256,498.54916 63.004331,498.36435 62.979719,498.31786 62.970863,498.28642 62.975712,498.24995 62.986149,498.21218 63.008184,498.16348 63.052683,498.10042 63.101087,498.05048 63.105218,498.03793 63.108835,497.99123 63.099359,497.80021 63.112584,497.58646 63.110357,497.52171 63.110124,497.51495 63.108462,497.51141 63.094029,497.48074 63.079468,497.47018 63.041651,497.44276 62.996603,497.39781 62.977028,497.36570 62.963040,497.33023 62.946218,497.28445 62.932495,497.22002 62.902766,497.03691 62.883748,496.94363 62.862072,496.89578 62.832880,496.87665 62.801206,496.83481 62.790583,496.74311 62.791721,496.70109 62.808345,496.62351 62.814299,496.61638 62.841184,496.60524 62.874166,496.54406 62.887819,496.52648 62.891508,496.52312 62.919794,496.49729 62.980564,496.46360 63.005755,496.44399 63.017652,496.43185 63.044421,496.38802 63.105311,496.32238 63.117801,496.30892 63.163784,496.25937 63.164807,496.25618 63.168744,496.24392 63.172345,496.23271 63.176956,496.19960 63.177517,496.19198 63.185117,496.08887 63.185495,496.08374 63.184249,496.07158 63.181425,496.04402 63.166768,496.00921 63.100509,495.94338 63.078956,495.90635 63.067191,495.85341 63.042696,495.76885 63.025257,495.70866 63.000017,495.66062 62.952862,495.59562 62.939624,495.55682 62.939764,495.55348 62.941553,495.51076 62.945765,495.41020 62.947130,495.37761 62.948885,495.09595 62.983554,495.04188 62.983644,495.03913 62.983738,495.03625 62.983862,495.03248 62.953811,494.95435 62.916017,494.92367 62.919882,494.91158 62.938428,494.88454 62.940671,494.85371 62.910139,494.84217 62.907924,494.83971 62.905904,494.83747 62.904290,494.83568 62.903152,494.81539 62.899163,494.74426 62.920234,494.71581 62.920801,494.71505 62.924517,494.68630 62.917429,494.67549 62.897781,494.67727 62.889373,494.67296 62.851441,494.61032 62.852633,494.59266 62.860492,494.57799 62.861022,494.56769 62.821495,494.48740 62.858889,494.44048 62.849721,494.42791 62.794805,494.38246 62.791925,494.37322 62.802987,494.32345 62.799149,494.27759 62.793129,494.24134 62.773233,494.19591 62.771408,494.18180 62.774919,494.16916 62.830675,494.11443 62.849710,494.03763 62.881723,493.97558 62.886352,493.94923 62.882980,493.92957 62.874676,493.91155 62.845687,493.87469 62.844315,493.86058 62.877420,493.81470 62.894996,493.78071 62.906591,493.70779 62.964830,493.62105 63.011067,493.57783 63.013020,493.57601 63.023015,493.56666 63.035565,493.54322 63.036726,493.54105 63.050256,493.51578 63.057188,493.50997 63.060781,493.50696 63.063202,493.50493 63.104518,493.48879 63.161654,493.45120 63.195735,493.40898 63.196968,493.39565"/><polyline points="77.559352,499.03900 77.858115,499.05482 77.845595,499.03561 77.790927,499.01798 77.771714,499.00234 77.768824,498.99998 77.755894,498.98161 77.745847,498.93590 77.744662,498.93051 77.740141,498.92871 77.682925,498.90595 77.603902,498.93530 77.573817,498.96589 77.566294,498.96928 77.542052,498.98021 77.520238,498.97948 77.468335,498.93037 77.426471,498.91004 77.387307,498.90379 77.348369,498.87736 77.296677,498.81417 77.296080,498.81011 77.286818,498.74703 77.295032,498.70415 77.347684,498.61432 77.383831,498.58966 77.425136,498.50952 77.474444,498.49228 77.488114,498.42800 77.477899,498.30344 77.490226,498.25869 77.486407,498.22877 77.480600,498.21581 77.500402,498.07880 77.549469,498.03764 77.588843,497.99072 77.620178,497.94168 77.671872,497.91387 77.676124,497.90388 77.672897,497.88643"/><polyline points="75.920325,492.16078 75.935379,492.16469 75.941405,492.17281 75.953800,492.20897 75.958460,492.22256 75.966741,492.23550 75.974113,492.24702 75.978864,492.25130 75.986620,492.25829 75.988840,492.26029 76.023475,492.27225 76.065677,492.27804 76.074748,492.27739 76.154551,492.27171 76.208371,492.28997 76.209988,492.29052 76.276683,492.33877 76.342147,492.39891 76.381531,492.42467 76.426466,492.47661 76.430845,492.52425 76.423824,492.54497 76.428725,492.55581 76.443371,492.56402 76.510171,492.57588 76.515553,492.57906 76.547170,492.59773 76.565078,492.62007 76.585326,492.67251 76.594795,492.77383 76.623386,492.84728 76.631283,492.85447 76.689236,492.85048 76.706330,492.86441 76.724677,492.89244 76.720354,492.91172 76.673643,492.94246 76.662694,492.95433 76.659264,492.97697 76.662619,492.98936 76.676041,493.01234 76.697455,493.03000 76.727127,493.04442 76.774674,493.11165 76.776185,493.11378 76.779848,493.11519 76.786508,493.11775 76.790205,493.11918 76.816914,493.11898 76.833113,493.10844 76.838529,493.09413 76.838988,493.09292 76.862469,493.08946 76.880684,493.12385 76.884531,493.12764 76.892335,493.13532 76.896069,493.13899 76.909410,493.14208 76.960680,493.12642 76.985052,493.13463 77.037285,493.15221 77.039928,493.15310 77.042133,493.15728 77.048374,493.16909 77.051468,493.17494 77.068015,493.24293 77.069683,493.29024 77.074475,493.31359 77.091875,493.31665 77.093339,493.31691 77.096474,493.31469 77.105321,493.30843 77.106970,493.30727 77.112320,493.29986 77.112498,493.29569 77.112721,493.29047 77.115374,493.29058 77.125017,493.29099 77.133788,493.29137 77.134715,493.29339 77.141751,493.30875 77.134345,493.33977 77.156269,493.34453 77.183400,493.33195 77.187911,493.32986 77.197498,493.33179 77.206016,493.34080 77.207472,493.34641 77.209149,493.35287 77.209958,493.35598 77.203976,493.36513 77.158983,493.40085 77.144393,493.42107 77.134986,493.45730 77.126790,493.47068 77.083956,493.50343 77.068310,493.52463 77.065120,493.54611 77.075663,493.56131 77.121630,493.55692 77.132435,493.55993 77.157263,493.58033 77.199173,493.64799 77.216909,493.68588 77.227090,493.71582 77.225803,493.73433 77.207697,493.76559 77.102101,493.83890 77.030188,493.89788 77.018846,493.91953 77.020565,493.93919 77.032022,493.98111 77.048254,494.01424 77.052978,494.01936 77.058721,494.02559 77.062197,494.02936 77.077184,494.03640 77.193957,494.03115 77.241902,494.01095 77.290933,494.01795 77.303916,494.02318 77.314700,494.02753 77.318727,494.02915 77.320695,494.03259 77.328219,494.04573 77.324524,494.07283 77.323382,494.08121 77.325358,494.08636 77.328350,494.09415 77.330642,494.10013 77.332734,494.10087 77.339370,494.10324 77.342074,494.10420 77.342201,494.10424 77.342912,494.10396 77.343751,494.10363 77.373494,494.09184 77.380588,494.09334 77.381055,494.09343 77.396562,494.10579 77.403375,494.11904 77.401027,494.13242 77.364700,494.17361 77.360392,494.18992 77.360259,494.20351 77.363731,494.21539 77.380170,494.21300 77.395643,494.19985 77.410398,494.19361 77.414755,494.19560 77.430109,494.20259 77.466679,494.24024 77.470622,494.24593 77.484656,494.26619 77.494623,494.30730 77.459144,494.32818 77.389068,494.35548 77.355765,494.35714 77.354462,494.36035 77.345410,494.38266 77.345479,494.40894 77.345486,494.41187 77.339029,494.42707 77.331670,494.44439 77.332536,494.46779 77.339262,494.48688 77.345989,494.50827 77.343031,494.53612 77.320011,494.61755 77.322925,494.69479 77.323010,494.69703 77.326100,494.70256 77.329229,494.70815 77.331093,494.71149 77.337175,494.71200 77.342481,494.72597 77.353408,494.73704 77.333655,494.77622 77.328144,494.78715 77.287637,494.81756 77.266684,494.83330 77.262301,494.84075 77.261252,494.86562 77.290918,494.87375 77.296141,494.89063 77.296741,494.89257 77.296060,494.89608 77.292491,494.91446 77.291208,494.92107 77.263079,494.98498 77.240932,495.01300 77.226705,495.02393 77.217016,495.02074 77.214946,495.02005 77.209591,495.00316 77.207710,494.99723 77.206601,494.99609 77.200900,494.99021 77.195850,494.98500 77.192108,494.98454 77.188621,494.98411 77.180613,494.98312 77.156852,494.98478 77.154723,494.98880 77.148797,495.00001 77.146402,495.01289 77.150524,495.02859 77.147599,495.04090 77.110388,495.04624 77.094310,495.04855 77.092045,495.04888 77.088365,495.05188 77.080785,495.05807 77.076558,495.06152 77.062069,495.07940 77.061847,495.08469 77.061308,495.09754 77.063242,495.10312 77.070742,495.12478 77.075218,495.14531 77.065662,495.17042 77.064901,495.18857 77.073713,495.19933 77.088226,495.22267 77.091940,495.23708 77.083200,495.25120 77.048632,495.25073 77.027269,495.25669 76.975849,495.29389 76.974812,495.30046 76.987601,495.32288 76.990134,495.34716 76.971089,495.38245 76.961140,495.42346 76.955696,495.44590 76.964101,495.46964 76.983394,495.48242 76.984734,495.49289 76.948423,495.50332 76.936067,495.51298 76.930778,495.52369 76.930354,495.53385 76.940025,495.56423 76.941347,495.56838 76.940197,495.57203 76.937699,495.57995 76.936361,495.58420 76.934181,495.58574 76.894156,495.61398 76.824356,495.73110 76.780991,495.77024 76.779113,495.78466 76.785793,495.83097 76.783610,495.84054 76.772268,495.84413 76.745044,495.82621 76.739704,495.82624 76.726020,495.83944 76.719974,495.85344 76.717568,495.90622 76.721214,495.92901 76.717083,496.00538 76.701899,496.04088 76.667976,496.05579 76.661767,496.07058 76.661427,496.07139 76.660428,496.07377 76.660374,496.07777 76.660195,496.09124 76.660112,496.09746 76.664719,496.10644 76.721879,496.12973 76.766954,496.13956 76.768889,496.13998 76.783473,496.15669 76.795287,496.17022 76.796912,496.17208 76.795776,496.19382 76.813838,496.23599 76.841189,496.25172 76.868864,496.27600 76.891733,496.32511 76.933186,496.36415 76.933756,496.37363 76.927155,496.38609 76.924296,496.40346 76.954045,496.44688 77.020496,496.48262 77.055320,496.48130 77.063485,496.48821 77.105784,496.55470 77.116592,496.58796 77.103875,496.62211 77.122004,496.70445 77.131486,496.72453 77.129722,496.74414 77.100139,496.76035 77.080657,496.79492 77.076634,496.82249 77.085064,496.84535 77.133019,496.91142 77.154449,496.92175 77.157866,496.91325 77.166238,496.91361 77.177318,496.92221 77.178437,496.92611 77.178962,496.92795 77.183699,496.94446 77.208946,497.03251 77.239472,497.05211 77.250473,497.07161 77.250662,497.07461 77.251083,497.08129 77.251481,497.08760 77.245011,497.11894 77.224448,497.15906 77.210371,497.17102 77.209019,497.19262 77.217722,497.21234 77.232340,497.23051 77.272698,497.27015 77.271743,497.28664 77.255320,497.31416 77.255360,497.33706 77.259976,497.34819 77.286996,497.38877 77.331518,497.41839 77.374677,497.43218 77.415766,497.47691 77.416257,497.51442 77.420154,497.52450 77.433003,497.53929 77.465715,497.55975 77.540982,497.66798 77.544929,497.68289 77.525397,497.69962 77.522955,497.70858 77.526418,497.71634 77.566237,497.75205 77.612540,497.80986 77.622653,497.82936 77.634806,497.83367 77.655279,497.82844 77.663790,497.83721 77.672897,497.88643"/><polyline points="63.196968,493.39565 63.192180,493.36925 63.192763,493.36643 63.194762,493.35676 63.194869,493.35624 63.195051,493.35600 63.231507,493.30729 63.253905,493.27736 63.255328,493.27546 63.261281,493.25719 63.263688,493.22984 63.264439,493.22130 63.273834,493.20114 63.281515,493.19324 63.311581,493.18147 63.318193,493.17888 63.333781,493.15885 63.341559,493.10383 63.342292,493.09865 63.341369,493.07744 63.340645,493.06080 63.341296,493.05693 63.342148,493.05186 63.345899,493.02954 63.358768,493.01123 63.410670,492.95987 63.461259,492.88407 63.477328,492.79412 63.482818,492.72234 63.520961,492.62218 63.529721,492.56294 63.529857,492.55967 63.533121,492.48137 63.524206,492.37842 63.565219,492.28121 63.577312,492.23032 63.579209,492.22234 63.578489,492.20280 63.578227,492.19570 63.578037,492.19053 63.577979,492.18894 63.562795,492.08619 63.453599,491.79788 63.440060,491.70992 63.420786,491.64068 63.405331,491.61220 63.374821,491.57483 63.301337,491.49911 63.276632,491.45752 63.267537,491.37014 63.271652,491.28617 63.324038,491.16790 63.332679,491.14839 63.335922,491.13735 63.351603,491.08393 63.361677,491.03199 63.364881,490.93845 63.360621,490.86979 63.365234,490.76739 63.382815,490.67328 63.429276,490.52041 63.467242,490.43607 63.478731,490.37202 63.466181,490.27294 63.462692,490.26250 63.461451,490.25879 63.437847,490.18818 63.414299,490.09635 63.385290,490.03300 63.376691,490.02968 63.339433,490.03883 63.330084,490.03587 63.302543,489.99884 63.281014,489.98270 63.229832,489.96493 63.237951,489.92600 63.178375,489.87843 63.172036,489.82927 63.141081,489.80261 63.137209,489.79443 63.137755,489.75759 63.117478,489.71984 63.090265,489.65465 63.086381,489.63424 63.018034,489.58845 63.004759,489.56173 62.982220,489.53576 62.963101,489.53077 62.927170,489.50478 62.914183,489.45986 62.903605,489.45341 62.878285,489.44981 62.861965,489.43358 62.860586,489.41339 62.871455,489.32668 62.866043,489.30699 62.823050,489.26501 62.815236,489.24331 62.811782,489.21824 62.818145,489.18764 62.828677,489.16643 62.827782,489.15773 62.803068,489.11420 62.797321,489.03717 62.790989,489.00360 62.777398,488.93155 62.770641,488.91407 62.732909,488.85863 62.704430,488.84087 62.673176,488.78471 62.673303,488.77023 62.690703,488.70996 62.702337,488.64914 62.708763,488.61556 62.713052,488.56171 62.699116,488.50621 62.675851,488.41359 62.576678,488.18932 62.570558,488.10366 62.558021,488.01157 62.515862,487.80580 62.523263,487.77897 62.573009,487.73737 62.595543,487.72629 62.635591,487.67209 62.659471,487.66417 62.677458,487.65398 62.693663,487.64480 62.706445,487.63757 62.710817,487.63337 62.726803,487.61804 62.735750,487.60946 62.740268,487.59848 62.754706,487.56339 62.761297,487.54738 62.763615,487.53872 62.764364,487.53592 62.776334,487.49120 62.777529,487.43851 62.754120,487.25857 62.740882,487.15686 62.730745,487.11798 62.731073,487.08754 62.742958,487.03906 62.780225,486.94781 62.794608,486.74249 62.773422,486.56563 62.780873,486.53193 62.838347,486.39041 62.870266,486.26460 62.881897,486.23567 62.983999,486.10332 63.043988,485.98607 63.061885,485.93744 63.063185,485.93390 63.062696,485.91834 63.023117,485.81184 63.006881,485.75137 63.003420,485.70434 63.012448,485.67813 63.071759,485.62441 63.075849,485.61837 63.079732,485.61264 63.082359,485.60876 63.084291,485.59848 63.074043,485.57001 63.073702,485.56907 63.073304,485.56796 63.050621,485.53137 63.008722,485.50786 62.957336,485.45228 62.943481,485.41823 62.924467,485.33821 62.926856,485.32252 62.945203,485.28501 63.002725,485.24102 63.022982,485.21521 63.035804,485.18702"/><polyline points="73.669033,489.34346 73.667844,489.35759 73.648574,489.39909 73.607486,489.40832 73.606554,489.40853 73.560721,489.47476 73.520352,489.60167 73.487453,489.66173 73.446952,489.71391 73.456803,489.79408 73.464324,489.81112 73.491453,489.83421 73.499420,489.85305 73.505206,489.89722 73.500044,489.92092 73.539509,490.01867 73.543287,490.04066 73.531857,490.08320 73.533066,490.12036 73.553426,490.20496 73.573560,490.26031 73.567914,490.29035 73.556309,490.31547 73.553591,490.32136 73.549340,490.32544 73.521478,490.35223 73.472613,490.44957 73.471613,490.45157 73.457573,490.53291 73.463300,490.55062 73.467645,490.55115 73.474167,490.56168 73.476323,490.57677 73.477323,490.58377 73.474362,490.60723 73.457567,490.60626 73.428837,490.58326 73.413380,490.58642 73.401874,490.61542 73.418064,490.68562 73.466777,490.78752 73.509159,490.83643 73.564837,490.85492 73.621265,490.90677 73.636462,490.92256 73.663275,490.96850 73.669892,490.98959 73.670502,491.02214 73.666660,491.12294 73.654334,491.14026 73.658464,491.17395 73.690141,491.19770 73.716419,491.19482 73.750623,491.18421 73.770147,491.17816 73.806463,491.18668 73.842501,491.19820 73.902420,491.23283 74.012118,491.29127 74.026053,491.30792 74.038884,491.36430 74.066249,491.37930 74.210032,491.37420 74.249597,491.38668 74.352801,491.39278 74.402330,491.37350 74.431492,491.37377 74.480846,491.39573 74.511056,491.44633 74.570184,491.49873 74.653344,491.52130 74.686963,491.51459 74.690156,491.51395 74.708308,491.50577 74.856135,491.43910 74.905423,491.40937 74.932771,491.40214 74.939745,491.40368 74.946362,491.40514 74.953054,491.40662 75.015246,491.44396 75.089161,491.45531 75.153972,491.49491 75.205668,491.53679 75.239571,491.56425 75.294679,491.58721 75.353319,491.59989 75.388388,491.61908 75.399501,491.63071 75.404265,491.65102 75.401652,491.66339 75.379333,491.72047 75.368367,491.76312 75.373130,491.77752 75.393611,491.79625 75.397916,491.80804 75.395960,491.81953 75.372545,491.84155 75.368010,491.85105 75.376022,491.92136 75.376247,491.92333 75.376966,491.92408 75.385892,491.93338 75.419702,491.94650 75.462683,491.94233 75.487327,491.95376 75.489473,491.96926 75.489921,491.97250 75.488463,491.97480 75.459401,492.02062 75.459342,492.02216 75.458756,492.03735 75.467149,492.05425 75.529675,492.12017 75.531718,492.12232 75.534247,492.12352 75.557058,492.13431 75.653420,492.13296 75.678434,492.14871 75.698259,492.17141 75.736352,492.19903 75.759031,492.21262 75.760483,492.21298 75.763698,492.21376 75.782813,492.21845 75.786380,492.21806 75.829869,492.21333 75.844175,492.20472 75.884051,492.16599 75.920325,492.16078"/><polyline points="71.553164,483.09367 71.561876,483.10066 71.568058,483.12170 71.562877,483.16106 71.561996,483.16776 71.559949,483.17091 71.553129,483.18144 71.551030,483.18468 71.524697,483.20518 71.506694,483.25136 71.507782,483.30399 71.522171,483.36916 71.548868,483.39139 71.561557,483.43119 71.560312,483.43826 71.543640,483.45529 71.542701,483.45625 71.540531,483.47625 71.541470,483.47868 71.541470,483.47868 71.541472,483.47868 71.544511,483.48655 71.546446,483.48854 71.553123,483.49540 71.558041,483.50045 71.564325,483.50451 71.568920,483.50747 71.596628,483.52535 71.654456,483.55238 71.663253,483.57096 71.663303,483.57587 71.663679,483.61265 71.656418,483.63402 71.653006,483.64407 71.657507,483.70088 71.658960,483.71923 71.662728,483.73087 71.664887,483.73754 71.667274,483.74491 71.672881,483.75007 71.683312,483.75966 71.696662,483.78640 71.721736,483.83663 71.732346,483.87002 71.738073,483.92077 71.739168,483.96554 71.727913,483.99923 71.713767,484.02012 71.713812,484.02633 71.713816,484.02697 71.713825,484.02821 71.714294,484.09414 71.714337,484.10012 71.714514,484.12513 71.714771,484.16145 71.728839,484.22471 71.732075,484.23926 71.756082,484.28274 71.792863,484.31027 71.794040,484.31115 71.814778,484.33773 71.855043,484.40484 71.871191,484.43992 71.909506,484.48867 71.939093,484.51654 71.975904,484.59650 72.031748,484.59853 72.182890,484.70288 72.211597,484.72084 72.271533,484.75836 72.280450,484.76394 72.299601,484.79388 72.333774,484.84732 72.347319,484.86851 72.349905,484.87255 72.361851,484.89508 72.376157,484.93776 72.391607,484.96167 72.404260,484.97075 72.449502,484.98551 72.475311,485.00393 72.488066,485.01743 72.493877,485.02358 72.494909,485.02468 72.496900,485.02678 72.491846,485.08696 72.486642,485.14893 72.487596,485.17337 72.496885,485.19173 72.552013,485.23707 72.563394,485.25398 72.581238,485.29023 72.598484,485.35876 72.644533,485.40359 72.655396,485.44265 72.646907,485.49070 72.627631,485.52710 72.608373,485.58534 72.610251,485.60469 72.624943,485.65015 72.646845,485.69280 72.654702,485.73013 72.645192,485.85298 72.605682,485.94619 72.600415,485.97396 72.622805,486.05553 72.635004,486.07478 72.636791,486.07760 72.648946,486.08205 72.661056,486.08648 72.665159,486.08798 72.702142,486.09152 72.759734,486.12421 72.751632,486.14306 72.739594,486.17106 72.721492,486.20074 72.706720,486.23939 72.711537,486.28455 72.720046,486.30313 72.728042,486.31482 72.755298,486.31269 72.806327,486.32677 72.818787,486.33932 72.822156,486.38890 72.843469,486.43809 72.877053,486.49021 72.926136,486.53174 73.004006,486.58705 73.113885,486.69014 73.127659,486.71283 73.136201,486.73916 73.142077,486.85760 73.141559,486.87265 73.138600,486.88505 73.136313,486.89465 73.121700,486.95594 73.120665,486.96028 73.120925,486.96448 73.121304,486.97060 73.122140,486.98408 73.125235,486.99218 73.125986,486.99414 73.128464,487.00063 73.130111,487.00141 73.138809,487.00553 73.148785,487.01026 73.184052,487.01180 73.223484,487.03229 73.234697,487.04565 73.276476,487.12374 73.277910,487.12642 73.275300,487.13989 73.258973,487.16124 73.261154,487.17941 73.276510,487.19503 73.339059,487.21407 73.341726,487.21488 73.342715,487.21942 73.335329,487.22615 73.294099,487.24346 73.222708,487.26113 73.206273,487.25569 73.175957,487.22620 73.149044,487.23140 73.145091,487.24037 73.144839,487.25310 73.156579,487.29036 73.160182,487.32234 73.160687,487.34527 73.162456,487.42572 73.152781,487.45960 73.120032,487.50218 73.116813,487.53015 73.127667,487.54242 73.178329,487.59969 73.181227,487.60159 73.219555,487.62676 73.220526,487.64230 73.207566,487.69927 73.205821,487.71472 73.204186,487.72919 73.203477,487.73547 73.205845,487.73824 73.225192,487.76092 73.251128,487.76788 73.253639,487.76855 73.255410,487.76737 73.283639,487.74853 73.299617,487.71468 73.299800,487.71430 73.300904,487.70517 73.301239,487.70240 73.317587,487.70020 73.326669,487.70917 73.328151,487.72447 73.321990,487.74051 73.282864,487.78282 73.277867,487.81620 73.281586,487.84022 73.289426,487.85549 73.305161,487.87029 73.317663,487.86895 73.363776,487.83734 73.380474,487.84611 73.382991,487.84743 73.388490,487.86413 73.385656,487.90089 73.386174,487.90355 73.388220,487.91404 73.389098,487.91855 73.390616,487.92060 73.396248,487.92823 73.399519,487.93266 73.402288,487.93446 73.433618,487.95490 73.438331,487.96769 73.433749,487.98782 73.400473,488.04131 73.398139,488.06234 73.402421,488.07870 73.407224,488.08628 73.411603,488.09320 73.414704,488.09810 73.434149,488.11326 73.500571,488.15353 73.534544,488.16177 73.529366,488.18035 73.482819,488.20541 73.480320,488.20884 73.477648,488.21251 73.476536,488.21404 73.487583,488.25021 73.505058,488.25428 73.557707,488.25146 73.570956,488.26000 73.577248,488.27063 73.598100,488.32863 73.637935,488.37906 73.634799,488.40367 73.613194,488.43060 73.608992,488.44539 73.612231,488.45254 73.684452,488.46827 73.694008,488.46473 73.709565,488.44150 73.729272,488.43641 73.754612,488.44323 73.766354,488.46267 73.765092,488.47300 73.750576,488.49090 73.701205,488.51628 73.639339,488.55979 73.626821,488.57891 73.634913,488.59846 73.646248,488.60626 73.688786,488.60046 73.696378,488.59942 73.725978,488.60575 73.741636,488.61635 73.745969,488.62239 73.749694,488.62759 73.752290,488.63121 73.759655,488.65281 73.764681,488.70433 73.762060,488.72788 73.747486,488.74464 73.715684,488.75979 73.711704,488.76014 73.697173,488.76144 73.693245,488.76179 73.691071,488.75999 73.687095,488.75670 73.683618,488.75383 73.681112,488.74947 73.670938,488.73177 73.669370,488.69715 73.665311,488.68989 73.660796,488.68706 73.657071,488.68473 73.654125,488.68288 73.650325,488.68352 73.626508,488.68749 73.604418,488.70831 73.592369,488.73279 73.591206,488.73781 73.588362,488.75008 73.585466,488.76258 73.569240,488.83260 73.569689,488.85497 73.585278,488.94166 73.630980,488.98800 73.666145,489.00863 73.675900,489.00915 73.691429,488.99814 73.702062,488.99941 73.729753,489.07640 73.725047,489.08716 73.695607,489.10010 73.662709,489.13496 73.661264,489.13649 73.660990,489.13986 73.659858,489.15380 73.656053,489.20065 73.648546,489.29311 73.649425,489.30406 73.669033,489.34346"/><polyline points="62.838434,483.68360 62.863137,483.77199 62.867077,483.80442 62.867676,483.80935 62.865350,483.81561 62.852634,483.84986 62.855998,483.86875 62.856301,483.87045 62.857777,483.87275 62.877127,483.90300 62.906989,483.92046 62.929199,483.94541 62.943146,483.97200 62.957799,484.01986 63.003695,484.10803 63.026614,484.13872 63.067783,484.18013 63.123668,484.26586 63.128343,484.30301 63.128518,484.30440 63.120529,484.37959 63.122586,484.45405 63.125249,484.46862 63.126207,484.47387 63.126673,484.47641 63.134412,484.49113 63.168972,484.55685 63.178875,484.57568 63.244094,484.69975 63.274012,484.77029 63.274241,484.77663 63.274492,484.78362 63.274603,484.78670 63.240027,484.83915 63.233308,484.85843 63.215552,484.94103 63.174774,484.98776 63.128339,485.02168 63.061372,485.08058 63.053973,485.10042 63.044441,485.16057 63.035804,485.18702"/><polyline points="62.838434,483.68360 62.837936,483.68182 62.835597,483.67345 62.833956,483.63919 62.784056,483.51345 62.777480,483.44933 62.752239,483.39806 62.714186,483.37283 62.700945,483.35717 62.691252,483.33818 62.675426,483.27060 62.681300,483.24721 62.761017,483.12542 62.766617,483.10733 62.765567,483.09508 62.719852,483.00274 62.719277,482.98754 62.733625,482.93807 62.738703,482.89942 62.712471,482.85171 62.671034,482.75931 62.664208,482.73421 62.666746,482.72039 62.686042,482.68697 62.702185,482.67595 62.753240,482.66045 62.781599,482.61925 62.874517,482.54828 62.918079,482.52369 62.935779,482.51488 62.954816,482.51550 62.985167,482.53641 63.046719,482.59980 63.053060,482.61390 63.059157,482.64094 63.050881,482.70226 63.048116,482.83610 63.093484,482.86896 63.127440,482.91003 63.134963,482.92746 63.135468,482.94043 63.104493,483.01295 63.115976,483.03629 63.152325,483.08607 63.152698,483.09295 63.130929,483.12629 63.134796,483.14320 63.135367,483.14569 63.138303,483.14605 63.154195,483.14798 63.159442,483.14862 63.160702,483.14757 63.173653,483.13681 63.186642,483.13504 63.238443,483.14892 63.242512,483.15419 63.331598,483.12754 63.374699,483.16795 63.491547,483.16850 63.521892,483.18816 63.572997,483.18612 63.611996,483.15629 63.629880,483.15122 63.652706,483.18920 63.664269,483.19527 63.681501,483.18496 63.694498,483.17025 63.698644,483.15540 63.699251,483.15020 63.709312,483.06397 63.716177,483.00513 63.733253,482.99749 63.734632,482.99687 63.770264,482.94402 63.783048,482.91481 63.784292,482.86606 63.782406,482.84264 63.780438,482.81821 63.777176,482.80367 63.748645,482.74490 63.785965,482.72103 63.786536,482.71930 63.787249,482.71713 63.788127,482.71447 63.769800,482.69169 63.763019,482.66645 63.769144,482.65252 63.777891,482.64775 63.778002,482.64769 63.847463,482.65753 63.877048,482.63935 63.880325,482.61528 63.890492,482.60254 63.974558,482.57912 64.017919,482.54572 64.044209,482.52077 64.062991,482.50295 64.113572,482.41405 64.146266,482.38147 64.147901,482.37035 64.148351,482.36729 64.132796,482.34305 64.136662,482.26540 64.155549,482.25897 64.165686,482.24853 64.174033,482.23193 64.204016,482.17234 64.207665,482.17295 64.209890,482.14379 64.206529,482.11120 64.195006,482.09216 64.167542,482.06995 64.161065,482.04085 64.162526,481.99718 64.169974,481.99328 64.168144,481.94929"/><polyline points="70.713516,478.18935 70.712442,478.28669 70.706192,478.30810 70.721676,478.32530 70.766406,478.37498 70.777543,478.39413 70.777992,478.39490 70.777545,478.39829 70.775140,478.41651 70.774350,478.42249 70.771753,478.42655 70.725785,478.49826 70.717796,478.53487 70.744251,478.56392 70.769836,478.59202 70.806800,478.63262 70.810902,478.64092 70.815203,478.64962 70.816372,478.65198 70.815581,478.65792 70.807133,478.72132 70.789016,478.79014 70.788238,478.83231 70.809223,478.90206 70.833370,478.96022 70.838429,478.99197 70.838503,478.99244 70.838700,478.99368 70.833858,479.01055 70.812917,479.04727 70.792366,479.11246 70.791396,479.20876 70.808638,479.25985 70.817678,479.27157 70.862122,479.29540 70.879931,479.30495 70.923176,479.32814 70.926679,479.33002 70.928146,479.33281 70.973731,479.41963 71.031502,479.54944 71.074529,479.77867 71.120931,479.88545 71.121525,479.88682 71.120382,479.89295 71.118568,479.90268 71.118181,479.90476 71.111209,479.91674 71.104821,479.92771 71.102624,479.93148 71.099630,479.93409 71.061636,479.96710 71.009136,480.04658 70.996028,480.07643 70.994322,480.09060 70.997056,480.09918 71.000875,480.11117 71.004053,480.12114 71.022663,480.16006 71.065424,480.24952 71.078513,480.27000 71.109027,480.30242 71.143773,480.35429 71.144717,480.35775 71.149719,480.37606 71.139024,480.38227 71.132642,480.38598 71.106978,480.38443 71.065678,480.38193 71.063249,480.38225 71.037107,480.38565 70.959105,480.43488 70.947922,480.45157 70.944065,480.46949 70.933283,480.58739 70.936853,480.62841 70.953485,480.67439 71.015519,480.73955 71.024791,480.75802 71.026527,480.76148 71.040826,480.89253 71.049724,480.97410 71.049537,481.02137 71.073265,481.17360 71.076190,481.19237 71.076914,481.19702 71.076904,481.19866 71.076671,481.23445 71.076373,481.28015 71.076367,481.28112 71.077421,481.28747 71.083593,481.32465 71.087729,481.34956 71.089731,481.35454 71.108741,481.40178 71.113163,481.42326 71.091670,481.57660 71.091910,481.60202 71.099295,481.61799 71.153992,481.67953 71.154311,481.67989 71.166136,481.70033 71.170382,481.72318 71.171526,481.72934 71.173491,481.73992 71.174638,481.74609 71.182161,481.84010 71.182036,481.84792 71.181816,481.86162 71.181607,481.87465 71.176690,481.89406 71.142928,481.96929 71.102989,482.00852 71.046981,482.05309 71.031207,482.08001 71.029278,482.08331 71.026861,482.11220 71.043800,482.18099 71.046515,482.19202 71.044358,482.22886 71.057123,482.26838 71.085601,482.26771 71.086525,482.26856 71.092273,482.27383 71.098205,482.27927 71.107760,482.29615 71.136967,482.34776 71.142551,482.35763 71.144057,482.36208 71.164210,482.42159 71.152800,482.57726 71.137268,482.66063 71.137960,482.67920 71.154308,482.76097 71.160199,482.79045 71.203514,482.84431 71.209306,482.85151 71.219124,482.85817 71.282178,482.90093 71.393685,482.94982 71.531169,483.08365 71.553164,483.09367"/><polyline points="64.168144,481.94929 64.167712,481.45511 64.166844,481.36457 64.166793,481.35918 64.161111,480.76904 64.157051,480.34995 64.156471,480.34203 64.156771,480.26657 64.156770,480.16903 64.154485,479.72407 64.151280,479.10824 64.140011,478.78185 64.139997,478.78104 64.137591,478.63680 64.120178,477.59822 64.118502,477.49872 64.115088,477.29620 64.099518,476.78483 64.094669,476.62583 64.093854,476.57243 64.093786,476.56796 64.091988,476.45022 64.082256,475.81545 64.078948,475.60037"/><polyline points="70.144251,475.22284 70.154320,475.24395 70.150894,475.33212 70.150546,475.34106 70.150345,475.34625 70.154052,475.36501 70.158287,475.38645 70.160090,475.39557 70.168101,475.40850 70.196637,475.42590 70.199562,475.42768 70.201397,475.43156 70.204846,475.43884 70.206031,475.44134 70.206608,475.47388 70.180013,475.58518 70.183812,475.66457 70.180177,475.71097 70.172532,475.74684 70.162693,475.77070 70.152536,475.77930 70.136663,475.78318 70.117971,475.80577 70.112219,475.82009 70.115054,475.84506 70.129889,475.87674 70.220307,475.95478 70.239467,475.97131 70.241192,475.97159 70.324950,475.98501 70.354381,476.00418 70.448619,476.02742 70.493934,476.07482 70.535332,476.10049 70.555530,476.09679 70.576723,476.07685 70.598682,476.08063 70.600232,476.08089 70.601350,476.08222 70.612416,476.09534 70.662031,476.15419 70.672168,476.16917 70.696079,476.20453 70.695961,476.21526 70.695939,476.21723 70.675444,476.23948 70.663615,476.27748 70.667329,476.32233 70.680663,476.36009 70.703975,476.39567 70.728139,476.41003 70.770274,476.40321 70.795205,476.41054 70.824569,476.44753 70.833854,476.46814 70.833567,476.47420 70.832848,476.48935 70.832421,476.49833 70.831531,476.50053 70.825279,476.51591 70.755494,476.57121 70.721959,476.58746 70.706882,476.60811 70.705256,476.61033 70.699516,476.62338 70.675485,476.67804 70.674163,476.68549 70.671058,476.70298 70.669655,476.71088 70.676766,476.75163 70.684145,476.79391 70.687880,476.84638 70.670430,476.88524 70.639611,476.92088 70.631419,476.93944 70.625937,476.97764 70.631862,476.99922 70.632341,477.00096 70.635564,477.00564 70.644189,477.01816 70.653260,477.03133 70.671571,477.04907 70.722523,477.09842 70.725335,477.10114 70.751663,477.13273 70.800098,477.19084 70.841581,477.25537 70.869949,477.30833 70.876451,477.32860 70.876420,477.36291 70.840882,477.45331 70.807623,477.51887 70.811756,477.55000 70.815948,477.55843 70.821210,477.56901 70.825875,477.57839 70.829636,477.58197 70.871317,477.62170 70.884354,477.65233 70.887671,477.66844 70.883242,477.73031 70.882316,477.73180 70.872296,477.74784 70.857861,477.77096 70.846958,477.78272 70.840836,477.78933 70.815500,477.81666 70.798631,477.84487 70.799826,477.85558 70.815709,477.85962 70.816730,477.86777 70.813226,477.90757 70.804822,477.91646 70.785778,477.92427 70.752584,477.92122 70.722042,477.93960 70.682744,478.01695 70.682183,478.01805 70.679583,478.02317 70.676898,478.04460 70.677048,478.04498 70.677911,478.04719 70.681452,478.05624 70.705034,478.07868 70.711005,478.08437 70.714130,478.09135 70.717360,478.09856 70.718618,478.10137 70.719001,478.10625 70.719445,478.11191 70.720078,478.11997 70.713516,478.18935"/><polyline points="64.078948,475.60037 64.078407,475.58736 64.078294,475.56380 64.078143,475.49790 64.077190,475.08481 64.068840,474.42147 64.068258,474.37539 64.021829,474.39157 64.013221,474.38183 64.002682,474.22660 64.031185,474.15747 64.019538,474.11921 64.011351,474.09233 63.975060,474.02360 64.106502,473.40531 64.200349,473.40639"/><polyline points="70.144251,475.22284 70.108794,475.17507 70.081668,475.14660 70.035170,475.12038 69.990465,475.10232 69.984073,475.09477 69.966075,474.98822 69.969803,474.93976 69.962281,474.89388 69.962719,474.89068 69.963339,474.88615 69.971513,474.88060 69.980701,474.81759 69.965719,474.76491"/><polyline points="70.807268,473.36152 70.806773,473.38662 70.784823,473.43170 70.726273,473.51885 70.681781,473.56983 70.666659,473.62287 70.654398,473.70001 70.639497,473.73894 70.624645,473.75932 70.578642,473.78484 70.565711,473.80045 70.553732,473.82677 70.525263,473.86020 70.490458,473.86827 70.469259,473.86354 70.462719,473.85293 70.459895,473.82031 70.448565,473.80444 70.445978,473.80277 70.389941,473.76662 70.366543,473.75855 70.361723,473.75861 70.348240,473.75878 70.324462,473.78050 70.323184,473.78166 70.322817,473.78344 70.316984,473.81172 70.331584,473.84291 70.369305,473.86389 70.383428,473.87975 70.385333,473.90510 70.377711,473.93859 70.373970,473.94545 70.360715,473.96978 70.352711,473.98446 70.336666,474.00668 70.326193,474.02118 70.317784,474.03282 70.296522,474.05544 70.118154,474.20794 70.090935,474.24773 70.090577,474.24962 70.089724,474.25411 70.058826,474.41713 70.058550,474.41859 70.045113,474.51451 70.043762,474.56986 70.032946,474.61884 69.991586,474.66975 69.967403,474.72006 69.966461,474.72202 69.964047,474.72704 69.962953,474.72931 69.958330,474.73893 69.964584,474.76092 69.965719,474.76491"/><polyline points="64.200349,473.40639 65.203299,473.40069 65.471503,473.39948 66.182735,473.39651 66.217605,473.39634 66.941586,473.39279 67.934005,473.38922 68.939854,473.37824 69.512542,473.37261 69.927357,473.36889 70.807268,473.36152"/></g></g></svg>