<svg clip-rule="evenodd" fill-rule="evenodd" stroke-linejoin="round" stroke-miterlimit="1.41421" viewBox="0 0 11734 1837" xmlns="http://www.w3.org/2000/svg"><g fill="#002b45" fill-rule="nonzero"><path d="m0-33.132c-10.332 0-18.281 2.219-18.281 11.771v9.344c0 9.541 7.949 12.017 18.281 12.017 10.352 0 18.301-2.476 18.301-12.017v-9.344c0-9.552-7.949-11.771-18.301-11.771" transform="matrix(4.16667 0 0 4.16667 5791.7129667 652.80468891)"/><path d="m0-142.767h-14.583c-4.828 0-8.751 3.913-8.751 8.75v125.256c0 4.827 3.923 8.761 8.751 8.761h14.583c4.827 0 8.75-3.934 8.75-8.761v-125.256c0-4.837-3.923-8.75-8.75-8.75" transform="matrix(4.16667 0 0 4.16667 5822.7129915 1325.54689377)"/><path d="m0-144.226c-21.208 0-36.064 9.275-47.191 24.125-7.415-14.85-21.737-24.125-41.888-24.125-21.469 0-33.66 11.668-42.677 24.125l-.005-13.926c0-4.827-3.913-8.74-8.756-8.74h-14.568c-4.832 0-8.75 3.913-8.75 8.74v125.266c0 4.836 3.918 8.761 8.75 8.761h14.568c4.843 0 8.756-3.925 8.756-8.761l.005-71.564c0-21.474 12.191-34.743 29.958-34.743 17.757 0 28.361 12.2 28.361 33.944v72.363c0 4.836 3.923 8.761 8.755 8.761h14.574c4.832 0 8.75-3.925 8.75-8.761v-71.564c0-22.543 12.458-34.743 29.958-34.743 18.024 0 28.361 11.944 28.361 34.199l.011 72.108c0 4.836 3.912 8.761 8.739 8.761h14.579c4.832 0 8.75-3.925 8.75-8.761v-81.915c0-34.2-18.553-53.55-49.04-53.55" transform="matrix(4.16667 0 0 4.16667 4048.68657228 1325.54689377)"/><path d="m0-33.132c-10.332 0-18.302 2.219-18.302 11.771v9.344c0 9.541 7.97 12.017 18.302 12.017 10.353 0 18.302-2.476 18.302-12.017v-9.344c0-9.552-7.949-11.771-18.302-11.771" transform="matrix(4.16667 0 0 4.16667 9687.2994165 652.80468891)"/><path d="m0-142.767h-14.584c-4.827 0-8.75 3.913-8.75 8.75v125.256c0 4.827 3.923 8.761 8.75 8.761h14.584c4.826 0 8.729-3.934 8.729-8.761v-125.256c0-4.837-3.903-8.75-8.729-8.75" transform="matrix(4.16667 0 0 4.16667 9718.2994413 1325.54689377)"/><path d="m0-126.529c13.957 0 27.149 4.447 38.169 12.828 1.474 1.129 3.24 1.725 5.099 1.725 2.244 0 4.355-.873 5.952-2.465l11.22-11.216c1.684-1.694 2.583-4.035 2.454-6.428-.133-2.383-1.278-4.611-3.152-6.111-17.064-13.659-37.728-20.879-59.742-20.879-52.825 0-95.811 42.97-95.811 95.81 0 52.831 42.986 95.811 95.811 95.811 22.014 0 42.672-7.23 59.736-20.88 1.869-1.489 3.02-3.728 3.143-6.099.133-2.405-.765-4.746-2.45-6.43l-11.22-11.215c-1.602-1.582-3.712-2.455-5.962-2.455-1.853 0-3.609.575-5.088 1.705-11.026 8.38-24.212 12.818-38.159 12.818-34.873 0-63.254-28.367-63.254-63.255s28.381-63.264 63.254-63.264" transform="matrix(4.16667 0 0 4.16667 2357.27271915 1196.99679093)"/><path d="m0-60.779c0 26.774-18.394 44.818-39.336 44.818-21.214 0-37.864-17.242-37.864-44.818v-.534c0-27.031 16.923-44.788 37.864-44.788 20.942 0 39.336 18.024 39.336 44.788zm26.24-71.829h-14.572c-4.838 0-8.761 3.913-8.761 8.75v14.039c-10.332-14.584-24.916-24.125-47.716-24.125-32.875 0-64.948 25.984-64.948 72.631v.534c0 46.39 31.807 72.642 64.948 72.642 23.32 0 37.903-10.709 47.716-23.703l.261-.33v12.961c0 24.124-18.63 46.216-44.613 46.216-15.96 0-30.595-7.394-37.918-19.832-2.506-4.107-7.866-5.433-11.995-2.927l-6.163 4.088c-4.138 2.506-5.463 7.898-2.967 12.036 12.047 19.688 33.408 32.793 60.45 32.793 46.4 0 75.023-33.131 75.023-72.897v-124.126c0-4.837-3.917-8.75-8.745-8.75" transform="matrix(4.16667 0 0 4.16667 6381.7134387 1283.21769324)"/><path d="m0-144.103c-21.753 0-34.734 11.031-43.752 24.002v-13.926c0-4.827-3.923-8.74-8.75-8.74h-14.583c-4.807 0-8.73 3.913-8.73 8.74v125.266c0 4.836 3.923 8.761 8.73 8.761h14.583c4.827 0 8.75-3.925 8.75-10.077v-75.423c0-16.989 13.771-30.76 30.759-30.76s30.76 13.771 30.76 30.76v76.739c0 4.836 3.922 8.761 8.729 8.761h14.584c4.827 0 8.75-3.925 8.75-8.761v-81.792c0-32.341-18.302-53.55-49.83-53.55" transform="matrix(4.16667 0 0 4.16667 9319.6324557 1325.54689377)"/><path d="m0-144.103c-21.753 0-34.734 11.031-43.751 24.002v-13.926c0-4.827-3.924-8.74-8.75-8.74h-14.584c-4.807 0-8.73 3.913-8.73 8.74v125.266c0 4.836 3.923 8.761 8.73 8.761h14.584c4.826 0 8.75-3.925 8.75-10.077l-.001-75.423c0-16.989 13.772-30.76 30.76-30.76s30.759 13.771 30.759 30.76v76.739c0 4.836 3.923 8.761 8.73 8.761h14.584c4.826 0 8.749-3.925 8.749-8.761v-81.792c0-32.341-18.301-53.55-49.83-53.55" transform="matrix(4.16667 0 0 4.16667 6937.2138831 1325.54689377)"/><path d="m0-140.804c-.395-.184-.722-.3-.912-.368-.351-.097-.723-.186-1.121-.264-2.985-.672-6.071-1.017-9.258-1.017-16.718 0-31.166 9.754-37.946 23.881v-13.795c0-4.837-3.923-8.75-8.75-8.75h-14.584c-4.807 0-8.75 3.913-8.75 8.75v125.266c0 4.825 3.943 8.75 8.75 8.75h14.584c4.827 0 8.75-3.925 8.75-8.75v-53.026c0-42.816 22.347-50.52 35.247-49.471 2.526.205 4.745.544 6.635.801 0 0 .702.08 1.079.105.18.016.361.024.546.024 2.997 0 5.497-2.131 6.063-4.964l3.225-20.599c.046-.305.072-.619.072-.938 0-2.502-1.491-4.662-3.63-5.635" transform="matrix(4.16667 0 0 4.16667 11259.175674 1318.67605494)"/><path d="m0 .001v.446c0 24.48-17.04 44.281-41.927 44.549-24.886-.268-41.926-20.069-41.926-44.549v-.446-.446c0-24.481 17.04-44.282 41.926-44.55 24.887.268 41.927 20.069 41.927 44.55zm-41.927-72.976c-42.95 0-74.479 32.609-74.479 72.632v.688c0 40.022 31.529 72.631 74.479 72.631 42.951 0 74.481-32.609 74.481-72.631v-.344-.344c0-40.023-31.53-72.632-74.481-72.632" transform="matrix(4.16667 0 0 4.16667 8801.1320409 1029.17999001)"/><path d="m0 .001v.446c0 24.48-17.04 44.281-41.927 44.549-24.886-.268-41.926-20.069-41.926-44.549v-.446-.446c0-24.481 17.04-44.282 41.926-44.55 24.887.268 41.927 20.069 41.927 44.55zm-41.927-72.976c-42.95 0-74.479 32.609-74.479 72.632v.688c0 40.022 31.529 72.631 74.479 72.631 42.951 0 74.481-32.609 74.481-72.631v-.344-.344c0-40.023-31.53-72.632-74.481-72.632" transform="matrix(4.16667 0 0 4.16667 10715.3419056 1029.17999001)"/><path d="m0-187.966h-14.627c-2.875 0-5.381 1.397-7.004 3.522l-60.276 82.342-60.277-82.342c-1.622-2.125-4.128-3.522-7.003-3.522h-14.627c-4.827 0-8.75 3.924-8.75 8.761v170.444c0 4.836 3.923 8.761 8.75 8.761h14.584c4.827 0 8.751-3.925 8.751-8.761v-118.23l53.24 68.306c.041.052.082.103.123.144l.43.544h.022c1.169 1.313 2.851 2.154 4.757 2.157 1.907-.003 3.588-.844 4.758-2.157h.02l.431-.544c.042-.041.083-.092.123-.144l53.241-68.306v118.23c0 4.836 3.923 8.761 8.751 8.761h14.583c4.827 0 8.75-3.925 8.75-8.761v-170.444c0-4.837-3.923-8.761-8.75-8.761" transform="matrix(4.16667 0 0 4.16667 8210.4649017 1325.54689377)"/><path d="m0-56.373c0 26.775-18.394 44.819-39.336 44.819-21.214 0-37.865-17.242-37.865-44.819v-.533c0-27.031 16.923-44.788 37.865-44.788s39.336 18.024 39.336 44.788zm-32.392-73.165c-22.795 0-37.379 9.418-47.715 24.002v-13.916c0-4.837-3.918-8.75-8.756-8.75h-14.574c-4.832 0-8.749 3.913-8.749 8.75v183.848c0 4.836 3.917 8.769 8.749 8.769h14.574c4.838 0 8.756-3.933 8.756-8.769v-72.16c9.813 12.994 24.396 24.034 47.715 24.034 33.142 0 64.949-26.252 64.949-72.643v-.533c0-46.648-32.074-72.632-64.949-72.632" transform="matrix(4.16667 0 0 4.16667 4814.2538514 1264.85934522)"/><path d="m0 .524c0 26.775-18.394 44.819-39.336 44.819-21.214 0-37.865-17.242-37.865-44.819v-.533c0-27.031 16.923-44.788 37.865-44.788s39.336 18.024 39.336 44.788zm41.124 48.271h-.001.001c-3.42.001-6.186-2.768-6.185-6.182v-105.168c0-4.837-3.918-8.75-8.75-8.75h-14.574c-4.832 0-8.75 3.913-8.75 8.75v13.916c-10.342-14.584-24.926-24.002-47.725-24.002-32.87 0-64.949 25.984-64.949 72.632v.533c0 46.391 31.812 72.641 64.949 72.641 24.016 0 40.963-10.772 48.25-24.031 3.666 12.888 15.525 22.328 29.589 22.328h8.144c3.414 0 6.183-2.766 6.183-6.184l.001-10.3c0-3.415-2.765-6.183-6.183-6.183" transform="matrix(4.16667 0 0 4.16667 3106.5441519 1027.78832223)"/><path d="m0 .524c0 26.775-18.394 44.819-39.336 44.819-21.214 0-37.865-17.242-37.865-44.819v-.533c0-27.031 16.923-44.788 37.865-44.788s39.336 18.024 39.336 44.788zm41.125 48.271h-.002.001c-3.42.001-6.186-2.768-6.185-6.182v-105.168c0-4.837-3.918-8.75-8.75-8.75h-14.574c-4.832 0-8.75 3.913-8.75 8.75v13.916c-10.342-14.584-24.926-24.002-47.725-24.002-32.87 0-64.949 25.984-64.949 72.632v.533c0 46.391 31.812 72.641 64.949 72.641 24.016 0 40.963-10.772 48.25-24.031 3.666 12.888 15.525 22.328 29.589 22.328h8.144c3.414 0 6.183-2.766 6.183-6.184l.001-10.3c0-3.415-2.765-6.183-6.182-6.183" transform="matrix(4.16667 0 0 4.16667 5464.5043716 1027.78832223)"/><path d="m0-98.564h-30.461v-39.072h.001c-.008-1.211-.371-2.432-1.12-3.5-1.96-2.799-5.813-3.478-8.612-1.518l-.001.002-15.236 10.69c-4.297 2.931-7.117 7.868-7.116 13.461v19.937h-10.332c-4.827 0-8.77 3.924-8.77 8.741v9.016c0 4.837 3.943 8.75 8.77 8.75h10.332v77.016c0 30.749 16.679 41.091 40.3 41.091 12.509 0 25.367-4.837 25.367-4.837s4.355-1.304 3.245-6.378c-.369-1.745-2.547-13.731-2.547-13.731-.533-2.947-1.745-5.258-5.915-4.631-2.054.328-5.936.943-11.153.943-10.866-.03-17.213-5.031-17.213-17.5v-71.973h30.461c4.848 0 8.75-3.913 8.75-8.75v-9.016c0-4.817-3.902-8.741-8.75-8.741" transform="matrix(4.16667 0 0 4.16667 10164.174798 1141.36757976)"/><path d="m0-164.854c-3.113-4.435-9.223-5.521-13.67-2.402l-240.779 168.59c1.772 2.525 4.703 4.187 8.028 4.181l.012.006v-.006h238.376c5.418 0 9.811-4.392 9.811-9.817v-155.078c-.03-1.894-.607-3.799-1.778-5.474" transform="matrix(4.16667 0 0 4.16667 1534.39289418 1300.6260405)"/><path d="m0-160.145c-4.442-3.112-10.558-2.032-13.67 2.402-1.172 1.675-1.748 3.586-1.778 5.48l.006 155.375 114.63-93.903z" transform="matrix(4.16667 0 0 4.16667 531.19209162 1270.96351677)"/></g></svg>