<?xml version="1.0" encoding="UTF-8" standalone="no"?>
<!DOCTYPE svg PUBLIC "-//W3C//DTD SVG 1.1//EN" "http://www.w3.org/Graphics/SVG/1.1/DTD/svg11.dtd">
<svg width="100%" height="100%" viewBox="0 0 11734 1837" version="1.1" xmlns="http://www.w3.org/2000/svg" xmlns:xlink="http://www.w3.org/1999/xlink" xml:space="preserve" xmlns:serif="http://www.serif.com/" style="fill-rule:evenodd;clip-rule:evenodd;stroke-linejoin:round;stroke-miterlimit:1.41421;">
    <g id="Logo" transform="matrix(4.16667,0,0,4.16667,0,0)">
        <g transform="matrix(1,0,0,1,1390.01,156.673)">
            <path d="M0,-33.132C-10.332,-33.132 -18.281,-30.913 -18.281,-21.361L-18.281,-12.017C-18.281,-2.476 -10.332,0 0,0C10.352,0 18.301,-2.476 18.301,-12.017L18.301,-21.361C18.301,-30.913 10.352,-33.132 0,-33.132" style="fill:rgb(0,43,69);fill-rule:nonzero;"/>
        </g>
        <g transform="matrix(1,0,0,1,1397.45,318.131)">
            <path d="M0,-142.767L-14.583,-142.767C-19.411,-142.767 -23.334,-138.854 -23.334,-134.017L-23.334,-8.761C-23.334,-3.934 -19.411,0 -14.583,0L0,0C4.827,0 8.75,-3.934 8.75,-8.761L8.75,-134.017C8.75,-138.854 4.827,-142.767 0,-142.767" style="fill:rgb(0,43,69);fill-rule:nonzero;"/>
        </g>
        <g transform="matrix(1,0,0,1,971.684,318.131)">
            <path d="M0,-144.226C-21.208,-144.226 -36.064,-134.951 -47.191,-120.101C-54.606,-134.951 -68.928,-144.226 -89.079,-144.226C-110.548,-144.226 -122.739,-132.558 -131.756,-120.101L-131.761,-134.027C-131.761,-138.854 -135.674,-142.767 -140.517,-142.767L-155.085,-142.767C-159.917,-142.767 -163.835,-138.854 -163.835,-134.027L-163.835,-8.761C-163.835,-3.925 -159.917,0 -155.085,0L-140.517,0C-135.674,0 -131.761,-3.925 -131.761,-8.761L-131.756,-80.325C-131.756,-101.799 -119.565,-115.068 -101.798,-115.068C-84.041,-115.068 -73.437,-102.868 -73.437,-81.124L-73.437,-8.761C-73.437,-3.925 -69.514,0 -64.682,0L-50.108,0C-45.276,0 -41.358,-3.925 -41.358,-8.761L-41.358,-80.325C-41.358,-102.868 -28.9,-115.068 -11.4,-115.068C6.624,-115.068 16.961,-103.124 16.961,-80.869L16.972,-8.761C16.972,-3.925 20.884,0 25.711,0L40.29,0C45.122,0 49.04,-3.925 49.04,-8.761L49.04,-90.676C49.04,-124.876 30.487,-144.226 0,-144.226" style="fill:rgb(0,43,69);fill-rule:nonzero;"/>
        </g>
        <g transform="matrix(1,0,0,1,2324.95,156.673)">
            <path d="M0,-33.132C-10.332,-33.132 -18.302,-30.913 -18.302,-21.361L-18.302,-12.017C-18.302,-2.476 -10.332,0 0,0C10.353,0 18.302,-2.476 18.302,-12.017L18.302,-21.361C18.302,-30.913 10.353,-33.132 0,-33.132" style="fill:rgb(0,43,69);fill-rule:nonzero;"/>
        </g>
        <g transform="matrix(1,0,0,1,2332.39,318.131)">
            <path d="M0,-142.767L-14.584,-142.767C-19.411,-142.767 -23.334,-138.854 -23.334,-134.017L-23.334,-8.761C-23.334,-3.934 -19.411,0 -14.584,0L0,0C4.826,0 8.729,-3.934 8.729,-8.761L8.729,-134.017C8.729,-138.854 4.826,-142.767 0,-142.767" style="fill:rgb(0,43,69);fill-rule:nonzero;"/>
        </g>
        <g transform="matrix(1,0,0,1,565.745,287.279)">
            <path d="M0,-126.529C13.957,-126.529 27.149,-122.082 38.169,-113.701C39.643,-112.572 41.409,-111.976 43.268,-111.976C45.512,-111.976 47.623,-112.849 49.22,-114.441L60.44,-125.657C62.124,-127.351 63.023,-129.692 62.894,-132.085C62.761,-134.468 61.616,-136.696 59.742,-138.196C42.678,-151.855 22.014,-159.075 0,-159.075C-52.825,-159.075 -95.811,-116.105 -95.811,-63.265C-95.811,-10.434 -52.825,32.546 0,32.546C22.014,32.546 42.672,25.316 59.736,11.666C61.605,10.177 62.756,7.938 62.879,5.567C63.012,3.162 62.114,0.821 60.429,-0.863L49.209,-12.078C47.607,-13.66 45.497,-14.533 43.247,-14.533C41.394,-14.533 39.638,-13.958 38.159,-12.828C27.133,-4.448 13.947,-0.01 0,-0.01C-34.873,-0.01 -63.254,-28.377 -63.254,-63.265C-63.254,-98.153 -34.873,-126.529 0,-126.529" style="fill:rgb(0,43,69);fill-rule:nonzero;"/>
        </g>
        <g transform="matrix(1,0,0,1,1531.61,307.972)">
            <path d="M0,-60.779C0,-34.005 -18.394,-15.961 -39.336,-15.961C-60.55,-15.961 -77.2,-33.203 -77.2,-60.779L-77.2,-61.313C-77.2,-88.344 -60.277,-106.101 -39.336,-106.101C-18.394,-106.101 0,-88.077 0,-61.313L0,-60.779ZM26.24,-132.608L11.668,-132.608C6.83,-132.608 2.907,-128.695 2.907,-123.858L2.907,-109.819C-7.425,-124.403 -22.009,-133.944 -44.809,-133.944C-77.684,-133.944 -109.757,-107.96 -109.757,-61.313L-109.757,-60.779C-109.757,-14.389 -77.95,11.863 -44.809,11.863C-21.489,11.863 -6.906,1.154 2.907,-11.84L3.168,-12.17L3.168,0.791C3.168,24.915 -15.462,47.007 -41.445,47.007C-57.405,47.007 -72.04,39.613 -79.363,27.175C-81.869,23.068 -87.229,21.742 -91.358,24.248L-97.521,28.336C-101.659,30.842 -102.984,36.234 -100.488,40.372C-88.441,60.06 -67.08,73.165 -40.038,73.165C6.362,73.165 34.985,40.034 34.985,0.268L34.985,-123.858C34.985,-128.695 31.068,-132.608 26.24,-132.608" style="fill:rgb(0,43,69);fill-rule:nonzero;"/>
        </g>
        <g transform="matrix(1,0,0,1,2236.71,318.131)">
            <path d="M0,-144.103C-21.753,-144.103 -34.734,-133.072 -43.752,-120.101L-43.752,-134.027C-43.752,-138.854 -47.675,-142.767 -52.502,-142.767L-67.085,-142.767C-71.892,-142.767 -75.815,-138.854 -75.815,-134.027L-75.815,-8.761C-75.815,-3.925 -71.892,0 -67.085,0L-52.502,0C-47.675,0 -43.752,-3.925 -43.752,-10.077L-43.752,-85.5C-43.752,-102.489 -29.981,-116.26 -12.993,-116.26C3.995,-116.26 17.767,-102.489 17.767,-85.5L17.767,-8.761C17.767,-3.925 21.689,0 26.496,0L41.08,0C45.907,0 49.83,-3.925 49.83,-8.761L49.83,-90.553C49.83,-122.894 31.528,-144.103 0,-144.103" style="fill:rgb(0,43,69);fill-rule:nonzero;"/>
        </g>
        <g transform="matrix(1,0,0,1,1664.93,318.131)">
            <path d="M0,-144.103C-21.753,-144.103 -34.734,-133.072 -43.751,-120.101L-43.751,-134.027C-43.751,-138.854 -47.675,-142.767 -52.501,-142.767L-67.085,-142.767C-71.892,-142.767 -75.815,-138.854 -75.815,-134.027L-75.815,-8.761C-75.815,-3.925 -71.892,0 -67.085,0L-52.501,0C-47.675,0 -43.751,-3.925 -43.751,-10.077L-43.752,-85.5C-43.752,-102.489 -29.98,-116.26 -12.992,-116.26C3.996,-116.26 17.767,-102.489 17.767,-85.5L17.767,-8.761C17.767,-3.925 21.69,0 26.497,0L41.081,0C45.907,0 49.83,-3.925 49.83,-8.761L49.83,-90.553C49.83,-122.894 31.529,-144.103 0,-144.103" style="fill:rgb(0,43,69);fill-rule:nonzero;"/>
        </g>
        <g transform="matrix(1,0,0,1,2702.2,316.482)">
            <path d="M0,-140.804C-0.395,-140.988 -0.722,-141.104 -0.912,-141.172C-1.263,-141.269 -1.635,-141.358 -2.033,-141.436C-5.018,-142.108 -8.104,-142.453 -11.291,-142.453C-28.009,-142.453 -42.457,-132.699 -49.237,-118.572L-49.237,-132.367C-49.237,-137.204 -53.16,-141.117 -57.987,-141.117L-72.571,-141.117C-77.378,-141.117 -81.321,-137.204 -81.321,-132.367L-81.321,-7.101C-81.321,-2.276 -77.378,1.649 -72.571,1.649L-57.987,1.649C-53.16,1.649 -49.237,-2.276 -49.237,-7.101L-49.237,-60.127C-49.237,-102.943 -26.89,-110.647 -13.99,-109.598C-11.464,-109.393 -9.245,-109.054 -7.355,-108.797C-7.355,-108.797 -6.653,-108.717 -6.276,-108.692C-6.096,-108.676 -5.915,-108.668 -5.73,-108.668C-2.733,-108.668 -0.233,-110.799 0.333,-113.632L3.558,-134.231C3.604,-134.536 3.63,-134.85 3.63,-135.169C3.63,-137.671 2.139,-139.831 0,-140.804" style="fill:rgb(0,43,69);fill-rule:nonzero;"/>
        </g>
        <g transform="matrix(1,0,0,1,2112.27,247.003)">
            <path d="M0,0.001L0,0.447C0,24.927 -17.04,44.728 -41.927,44.996C-66.813,44.728 -83.853,24.927 -83.853,0.447L-83.853,0.001L-83.853,-0.445C-83.853,-24.926 -66.813,-44.727 -41.927,-44.995C-17.04,-44.727 0,-24.926 0,-0.445L0,0.001ZM-41.927,-72.975C-84.877,-72.975 -116.406,-40.366 -116.406,-0.343L-116.406,0.345C-116.406,40.367 -84.877,72.976 -41.927,72.976C1.024,72.976 32.554,40.367 32.554,0.345L32.554,0.001L32.554,-0.343C32.554,-40.366 1.024,-72.975 -41.927,-72.975" style="fill:rgb(0,43,69);fill-rule:nonzero;"/>
        </g>
        <g transform="matrix(1,0,0,1,2571.68,247.003)">
            <path d="M0,0.001L0,0.447C0,24.927 -17.04,44.728 -41.927,44.996C-66.813,44.728 -83.853,24.927 -83.853,0.447L-83.853,0.001L-83.853,-0.445C-83.853,-24.926 -66.813,-44.727 -41.927,-44.995C-17.04,-44.727 0,-24.926 0,-0.445L0,0.001ZM-41.927,-72.975C-84.877,-72.975 -116.406,-40.366 -116.406,-0.343L-116.406,0.345C-116.406,40.367 -84.877,72.976 -41.927,72.976C1.024,72.976 32.554,40.367 32.554,0.345L32.554,0.001L32.554,-0.343C32.554,-40.366 1.024,-72.975 -41.927,-72.975" style="fill:rgb(0,43,69);fill-rule:nonzero;"/>
        </g>
        <g transform="matrix(1,0,0,1,1970.51,318.131)">
            <path d="M0,-187.966L-14.627,-187.966C-17.502,-187.966 -20.008,-186.569 -21.631,-184.444L-81.907,-102.102L-142.184,-184.444C-143.806,-186.569 -146.312,-187.966 -149.187,-187.966L-163.814,-187.966C-168.641,-187.966 -172.564,-184.042 -172.564,-179.205L-172.564,-8.761C-172.564,-3.925 -168.641,0 -163.814,0L-149.23,0C-144.403,0 -140.479,-3.925 -140.479,-8.761L-140.479,-126.991L-87.239,-58.685C-87.198,-58.633 -87.157,-58.582 -87.116,-58.541L-86.686,-57.997L-86.664,-57.997C-85.495,-56.684 -83.813,-55.843 -81.907,-55.84C-80,-55.843 -78.319,-56.684 -77.149,-57.997L-77.129,-57.997L-76.698,-58.541C-76.656,-58.582 -76.615,-58.633 -76.575,-58.685L-23.334,-126.991L-23.334,-8.761C-23.334,-3.925 -19.411,0 -14.583,0L0,0C4.827,0 8.75,-3.925 8.75,-8.761L8.75,-179.205C8.75,-184.042 4.827,-187.966 0,-187.966" style="fill:rgb(0,43,69);fill-rule:nonzero;"/>
        </g>
        <g transform="matrix(1,0,0,1,1155.42,303.566)">
            <path d="M0,-56.373C0,-29.598 -18.394,-11.554 -39.336,-11.554C-60.55,-11.554 -77.201,-28.796 -77.201,-56.373L-77.201,-56.906C-77.201,-83.937 -60.278,-101.694 -39.336,-101.694C-18.394,-101.694 0,-83.67 0,-56.906L0,-56.373ZM-32.392,-129.538C-55.187,-129.538 -69.771,-120.12 -80.107,-105.536L-80.107,-119.452C-80.107,-124.289 -84.025,-128.202 -88.863,-128.202L-103.437,-128.202C-108.269,-128.202 -112.186,-124.289 -112.186,-119.452L-112.186,64.396C-112.186,69.232 -108.269,73.165 -103.437,73.165L-88.863,73.165C-84.025,73.165 -80.107,69.232 -80.107,64.396L-80.107,-7.764C-70.294,5.23 -55.711,16.27 -32.392,16.27C0.75,16.27 32.557,-9.982 32.557,-56.373L32.557,-56.906C32.557,-103.554 0.483,-129.538 -32.392,-129.538" style="fill:rgb(0,43,69);fill-rule:nonzero;"/>
        </g>
        <g transform="matrix(1,0,0,1,745.57,246.669)">
            <path d="M0,0.524C0,27.299 -18.394,45.343 -39.336,45.343C-60.55,45.343 -77.201,28.101 -77.201,0.524L-77.201,-0.009C-77.201,-27.04 -60.278,-44.797 -39.336,-44.797C-18.394,-44.797 0,-26.773 0,-0.009L0,0.524ZM41.124,48.795L41.123,48.795L41.124,48.795C37.704,48.796 34.938,46.027 34.939,42.613L34.939,-62.555C34.939,-67.392 31.021,-71.305 26.189,-71.305L11.615,-71.305C6.783,-71.305 2.865,-67.392 2.865,-62.555L2.865,-48.639C-7.477,-63.223 -22.061,-72.641 -44.86,-72.641C-77.73,-72.641 -109.809,-46.657 -109.809,-0.009L-109.809,0.524C-109.809,46.915 -77.997,73.165 -44.86,73.165C-20.844,73.165 -3.897,62.393 3.39,49.134C7.056,62.022 18.915,71.462 32.979,71.462L41.123,71.462C44.537,71.462 47.306,68.696 47.306,65.278L47.307,54.978C47.307,51.563 44.542,48.795 41.124,48.795" style="fill:rgb(0,43,69);fill-rule:nonzero;"/>
        </g>
        <g transform="matrix(1,0,0,1,1311.48,246.669)">
            <path d="M0,0.524C0,27.299 -18.394,45.343 -39.336,45.343C-60.55,45.343 -77.201,28.101 -77.201,0.524L-77.201,-0.009C-77.201,-27.04 -60.278,-44.797 -39.336,-44.797C-18.394,-44.797 0,-26.773 0,-0.009L0,0.524ZM41.125,48.795L41.123,48.795L41.124,48.795C37.704,48.796 34.938,46.027 34.939,42.613L34.939,-62.555C34.939,-67.392 31.021,-71.305 26.189,-71.305L11.615,-71.305C6.783,-71.305 2.865,-67.392 2.865,-62.555L2.865,-48.639C-7.477,-63.223 -22.061,-72.641 -44.86,-72.641C-77.73,-72.641 -109.809,-46.657 -109.809,-0.009L-109.809,0.524C-109.809,46.915 -77.997,73.165 -44.86,73.165C-20.844,73.165 -3.897,62.393 3.39,49.134C7.056,62.022 18.915,71.462 32.979,71.462L41.123,71.462C44.537,71.462 47.306,68.696 47.306,65.278L47.307,54.978C47.307,51.563 44.542,48.795 41.125,48.795" style="fill:rgb(0,43,69);fill-rule:nonzero;"/>
        </g>
        <g transform="matrix(1,0,0,1,2439.4,273.928)">
            <path d="M0,-98.564L-30.461,-98.564L-30.461,-137.636L-30.46,-137.636C-30.468,-138.847 -30.831,-140.068 -31.58,-141.136C-33.54,-143.935 -37.393,-144.614 -40.192,-142.654L-40.193,-142.652L-55.429,-131.962C-59.726,-129.031 -62.546,-124.094 -62.545,-118.501L-62.545,-98.564L-72.877,-98.564C-77.704,-98.564 -81.647,-94.64 -81.647,-89.823L-81.647,-80.807C-81.647,-75.97 -77.704,-72.057 -72.877,-72.057L-62.545,-72.057L-62.545,4.959C-62.545,35.708 -45.866,46.05 -22.245,46.05C-9.736,46.05 3.122,41.213 3.122,41.213C3.122,41.213 7.477,39.909 6.367,34.835C5.998,33.09 3.82,21.104 3.82,21.104C3.287,18.157 2.075,15.846 -2.095,16.473C-4.149,16.801 -8.031,17.416 -13.248,17.416C-24.114,17.386 -30.461,12.385 -30.461,-0.084L-30.461,-72.057L0,-72.057C4.848,-72.057 8.75,-75.97 8.75,-80.807L8.75,-89.823C8.75,-94.64 4.848,-98.564 0,-98.564" style="fill:rgb(0,43,69);fill-rule:nonzero;"/>
        </g>
        <g transform="matrix(1,0,0,1,368.254,312.15)">
            <path d="M0,-164.854C-3.113,-169.289 -9.223,-170.375 -13.67,-167.256L-254.449,1.334C-252.677,3.859 -249.746,5.521 -246.421,5.515L-246.409,5.521L-246.409,5.515L-8.033,5.515C-2.615,5.515 1.778,1.123 1.778,-4.302L1.778,-159.38C1.748,-161.274 1.171,-163.179 0,-164.854" style="fill:rgb(0,43,69);fill-rule:nonzero;"/>
        </g>
        <g transform="matrix(1,0,0,1,127.486,305.031)">
            <path d="M0,-160.145C-4.442,-163.257 -10.558,-162.177 -13.67,-157.743C-14.842,-156.068 -15.418,-154.157 -15.448,-152.263L-15.442,3.112L99.188,-90.791L0,-160.145Z" style="fill:rgb(0,43,69);fill-rule:nonzero;"/>
        </g>
    </g>
</svg>
