<svg clip-rule="evenodd" fill-rule="evenodd" stroke-linejoin="round" stroke-miterlimit="2" viewBox="0 0 160 94" xmlns="http://www.w3.org/2000/svg"><path d="m0-11.828c-2.079-2.658-4.28-5.23-6.579-7.7-.842-.904-1.996-2.36-3.299-3.317-.106-.359-.404-.503-.784-.495-.498-.263-1.012-.427-1.533-.446-.031-.002-.057-.01-.089-.008-.004 0-.008.002-.013.002-.357 0-.718.065-1.08.223-.78.342-1.244 1.032-1.329 1.617-1.695 3-3.596 5.926-5.617 8.714-.672.927-2.949 3.787-.765 4.335 1.196.301 3.309-1.671 2.59-2.499.221-.451.57-.87.86-1.279.434-.61.891-1.204 1.296-1.835 1.092-1.702 2.203-3.388 3.268-5.104.923 9.973.399 19.999.577 30.001.029 1.587 3.395-.063 3.369-1.544-.155-8.631.214-17.28-.271-25.897.35.383.703.767 1.048 1.151 1.803 2.005 3.546 4.076 5.207 6.201.977 1.248 4.086-.914 3.144-2.12" fill="#403f41" fill-rule="nonzero" transform="matrix(0 -4.16667 4.16667 0 114.046 1.50388)"/></svg>