<svg clip-rule="evenodd" fill-rule="evenodd" stroke-linejoin="round" stroke-miterlimit="2" viewBox="0 0 94 233" xmlns="http://www.w3.org/2000/svg"><path d="m0-21.349c-1.887-4.109 1.265-14.988-3.858-16.855-4.078-1.486-11.637 4.886-13.983 7.684-1.044 1.245.396 2.043 1.538 1.471 3.182-1.594 6.658-4.339 10.336-3.863-4.494 6.833-8.911 13.705-12.276 21.184-1.828 4.065-3.248 8.381-3.776 12.81-.605 5.084.213 10.225-.423 15.319-.242 1.94 3.18.532 3.356-.878.436-3.494.353-6.954.289-10.467-.1-5.534 1.029-10.34 3.051-15.474 2.816-7.144 7.011-13.679 11.24-20.087.251 3.774-.228 7.811 1.363 11.275.617 1.342 3.812-.661 3.143-2.119" fill="#403f41" fill-rule="nonzero" transform="matrix(-4.16667 0 0 4.16667 .381591 160.107)"/></svg>