<svg clip-rule="evenodd" fill-rule="evenodd" stroke-linejoin="round" stroke-miterlimit="2" viewBox="0 0 100 78" xmlns="http://www.w3.org/2000/svg"><path d="m0-9.588c-.003-.762-.476-1.297-1.202-1.425-2.453-.431-6.486-1.099-9.365-.376.564-.657 1.14-1.303 1.794-1.875 1.516-1.324.246-4.35-1.621-2.718-1.585 1.386-2.739 3.174-4.264 4.621-.603.571-.908 1.574-.591 2.369-.039.63.213 1.214.81 1.576 1.577.959 2.498 2.79 3.93 3.938 1.62 1.3 3.541-1.933 2.089-3.098-.487-.391-.919-.827-1.336-1.276 1.091-.072 2.331.086 3.152.108 1.181.031 2.377.092 3.558.235.034 4.373.132 8.752-.567 13.084-.396 2.451 2.638 2.28 2.988.121.816-5.059.641-10.179.625-15.284" fill="#403f41" fill-rule="nonzero" transform="matrix(0 -4.16667 4.16667 0 68.5353 6.97161)"/></svg>