<svg clip-rule="evenodd" fill-rule="evenodd" stroke-linejoin="round" stroke-miterlimit="2" viewBox="0 0 98 78" xmlns="http://www.w3.org/2000/svg"><path d="m0-21.55c-1.263-1.841-3.635.963-2.593 2.482.277.405.624.74.989 1.058-3.807.381-7.642.434-11.451.836-1.185.126-1.813 1.121-1.853 2.255-.167 4.789 2.097 9.602.981 14.334-.571 2.426 2.493 2.221 2.988.12 1.046-4.442-.533-8.782-.863-13.203 4.013-.324 8.041-.39 12.034-.929-.433.749-1.14 1.497-1.461 2.061-.429.757-.68 1.874.073 2.544.681.605 1.753.162 2.16-.557 1.143-2.013 2.685-3.55 2.775-5.983.1-2.683-2.555-3.234-3.779-5.018" fill="#403f41" fill-rule="nonzero" transform="matrix(0 4.16667 -4.16667 0 4.88629 62.1481)"/></svg>