<svg height="79" preserveAspectRatio="xMidYMid slice" viewBox="0 0 272 79" width="270" xmlns="http://www.w3.org/2000/svg"><g fill="#d95947" fill-rule="evenodd"><path d="m140.254 16.15h-.041l-8.899 6.98-.668 3.517h-9.218l2.694-14.145c.635-5.336 8.761-3.721 9.972-3.418l1.298-6.816c-14.613-5.617-18.879 10.234-18.879 10.234l-2.693 14.145h-.047l-9.152 7.177h7.833l-8.609 45.176h7.61l8.604-45.176h9.218l-3.369 17.684c-2.142 12.875 10.753 11.465 14.869 10.638l1.287-6.743c-9.845 2.223-8.547-3.895-8.547-3.895l3.37-17.684h11.734l1.367-7.177h-11.734z"/><path d="m79.92 26.819-1.375 7.611c18.595-8.104 15.462 6.015 15.462 6.015l-.38 2.123s-10.902-5.596-18.534.635c0 0-4.47 2.98-4.47 8.941 0 5.962 5.464 9.166 5.464 9.166s8.218 4.336 14.653-2.594l-.71 3.225h7.197l4.523-21.455c3.395-21.17-21.83-13.667-21.83-13.667zm11.956 25.548c-7.918 8.125-12.989 2.804-12.989 2.804-3.433-3.342.361-6.774.361-6.774 5.238-4.787 13.253.473 13.253.473z"/><path d="m73.476 26.669c-5.869.062-11.202 3.336-11.202 3.336l.682-3.212h-7.044l-6.427 35.215h7.198l4.357-23.168c3.221-6.544 11.182-4.51 11.182-4.51z"/><path d="m46.014 11.578c.364.275.709.566 1.048.863l5.462-4.286.17-.222c-.836-.845-1.734-1.644-2.708-2.379-12.534-9.462-31.477-5.501-42.306 8.849-10.828 14.347-9.445 33.646 3.092 43.109 10.236 7.726 24.739 6.5 35.612-2.018l-.011-.022-5.2-4.079c-8.057 5.182-18.053 5.555-25.285.097-9.629-7.269-10.692-22.094-2.375-33.116 8.32-11.022 22.871-14.064 32.501-6.796z"/><path d="m163.898 33.897c1.291-1.345 2.843-2.415 4.654-3.211s3.814-1.195 6.012-1.195c1.92 0 3.666.289 5.229.865 1.565.576 3.032 1.305 4.406 2.183l1.399-2.06c-1.537-.988-3.225-1.797-5.064-2.429-1.84-.63-3.829-.947-5.971-.947-2.525 0-4.859.467-7 1.401-2.142.934-3.994 2.21-5.56 3.83-1.563 1.62-2.771 3.514-3.624 5.681-.851 2.169-1.275 4.488-1.275 6.96 0 2.471.438 4.775 1.318 6.917.878 2.142 2.086 4.009 3.623 5.601 1.536 1.593 3.376 2.84 5.518 3.746 2.141.907 4.475 1.359 7 1.359 2.142 0 4.131-.317 5.971-.947s3.527-1.441 5.064-2.43l-1.399-2.059c-1.374.879-2.841 1.605-4.406 2.182-1.563.576-3.31.865-5.229.865-2.197 0-4.201-.397-6.012-1.193-1.812-.796-3.363-1.895-4.654-3.295-1.289-1.399-2.291-3.047-3.004-4.941-.714-1.894-1.07-3.911-1.07-6.053 0-2.141.356-4.145 1.07-6.011.713-1.866 1.715-3.473 3.004-4.819z"/><path d="m239.336 29.863c-.963-.96-2.06-1.661-3.294-2.101-1.236-.439-2.541-.659-3.913-.659-2.855 0-5.518.77-7.987 2.306-2.471 1.538-4.53 3.35-6.177 5.435-.604-2.635-1.785-4.583-3.541-5.847-1.758-1.262-3.789-1.894-6.094-1.894-1.43 0-2.801.206-4.118.618-1.318.412-2.54.947-3.665 1.605-1.126.659-2.184 1.414-3.17 2.265-.989.852-1.869 1.716-2.637 2.594v-6.424h-2.553v34.177h2.635v-24.952c1.866-2.085 3.885-3.843 6.055-5.271 2.167-1.426 4.514-2.141 7.039-2.141 5.381 0 8.072 3.129 8.072 9.388v22.977h2.635v-24.541c1.757-2.36 3.761-4.255 6.011-5.684 2.251-1.426 4.612-2.141 7.083-2.141 5.38 0 8.071 3.129 8.071 9.388v22.977h2.635v-23.223c0-2.03-.275-3.774-.823-5.229-.549-1.454-1.304-2.663-2.264-3.623z"/><path d="m270.012 48.515c-.879-1.153-1.99-2.099-3.336-2.841-1.346-.74-2.788-1.387-4.324-1.936-1.537-.549-2.979-1.152-4.322-1.812-1.346-.659-2.458-1.468-3.336-2.429-.879-.96-1.318-2.265-1.318-3.913 0-1.59.645-3.032 1.937-4.323 1.289-1.289 3.253-1.935 5.888-1.935 1.592 0 3.061.246 4.406.741 1.346.494 2.758 1.291 4.24 2.389l1.236-2.06c-1.537-1.097-3.115-1.92-4.735-2.471-1.618-.548-3.337-.824-5.147-.824-1.646 0-3.102.248-4.365.742s-2.334 1.153-3.211 1.977c-.879.824-1.552 1.758-2.019 2.801s-.699 2.113-.699 3.21c0 1.922.438 3.458 1.318 4.612.878 1.152 1.99 2.114 3.335 2.882 1.346.77 2.785 1.429 4.323 1.977 1.535.551 2.978 1.168 4.323 1.854 1.346.688 2.457 1.511 3.335 2.471.878.961 1.318 2.266 1.318 3.912 0 1.922-.741 3.541-2.224 4.858-1.482 1.318-3.459 1.978-5.93 1.978-1.977 0-3.816-.357-5.518-1.07s-3.35-1.62-4.94-2.719l-1.235 1.977c1.756 1.209 3.595 2.182 5.516 2.924 1.923.74 3.98 1.112 6.178 1.112 1.646 0 3.115-.263 4.407-.784 1.288-.52 2.4-1.206 3.334-2.059.933-.85 1.646-1.852 2.141-3.005.495-1.152.742-2.36.742-3.624-.001-1.921-.441-3.459-1.318-4.612z"/></g></svg>