<svg clip-rule="evenodd" fill-rule="evenodd" stroke-linejoin="round" stroke-miterlimit="1.41421" viewBox="0 0 585 829" xmlns="http://www.w3.org/2000/svg"><path d="m0 236.924c-.642 1.094 0 1.525 0 2.615 0 1.043-.525 1.985-1.011 2.954-.608 1.218-1.427 1.736-2.352 2.462-.541.425-.612-.41-.935.561-.176.53-.186.943-.186 1.496 0 1.213-.954 2.217-.747 3.549.209 1.351 1.176 1.547 2.054 2.429 1.55 1.558 2.847 2.365 3.177 4.668.127.884 0 1.912 0 2.803 0 .15-.305.441-.375.936-.067.47.135 1.041 0 1.493-.576 1.94-2.826 2.274-2.988 4.484-.135 1.843.734 3.365.373 5.23-.393 2.023-1.494 3.532-1.494 5.844 0 3.616-1.367 7.611-1.869 11.344-.11.82-.277 1.532-.374 2.241-.049.368.053.755 0 1.121-.067.468-.374.805-.374.934 0 .713-1.911 1.727-2.42 2.236-.485.487-.941 1.929-.941 2.621 0 .924.306 1.487.374 2.429.031.431 0 .876 0 1.308 0 .741.172.607.373.932.831 1.343 2.742 2.243 4.484 2.243.958 0 1.822-.173 2.241.373.367.478.383-.073 0 .748-.241.517-1.107 1.092-1.494 1.496-1.319 1.372-2.262 3.339-3.364 5.229-.549.944-.746 1.341-.746 2.428 0 .974 1.867 1.764 1.867 2.615 0 1.406 2.979 1.569 2.243 3.924-.114.362-1.12 1.153-1.12 2.055 0 .219-.452.934-.562.934-.22 0-.485 1.195-.561 1.495-.227.913-.374 1.825-.374 2.795 0 .41-.372.619-.372 1.127 0 .168-.295 1.473-.375 1.683-.575 1.516-1.948 3.423-2.614 4.481-.937 1.491-1.602 2.936-2.989 3.363-.778.239-1.354.532-1.868.749-1.135.477-1.121.581-1.495 1.867-.224.769-.373 1.305-.373 2.243 0 .846.373 1.797.373 2.429 0 1.011 1.051 1.734 1.121 2.802.08 1.237-.662 2.068-1.218 3.182-1.03 2.067-.276 3.445-.276 5.596 0 .781.373 1.349.373 2.242 0 .928-1.897 1.711-2.421 2.236-.298.3-1.226.947-1.314 1.314-.12.495.372.839.372 1.309 0 1.023 1.359 1.786 1.495 2.427.215 1.015-.378 1.628-1.121 2.241-.353.291-.938.566-1.378 1.006-.404.406.258 1.054.258 1.529 0 1.176.611 5.079-.187 5.874-.655.651-1.307.646-1.307 1.492 0 1.049.225 1.908.933 2.617.86.86.686 1.308 2.242 1.308.844 0 1.571.565 1.682 1.119.291 1.441-.748.7-.748 1.682 0 .404 1.525 1.71 2.062 2.249 1.332 1.335 1.24 3.882.179 5.037-.5.545-2.241 1.137-2.241 2.062 0 .74-.109 2.047.561 2.047.494 0 .393 1.366.56 1.871.216.651.131.64.373 1.119.432.857.747.659.747 1.675 0 1.87-2.819 4.507-3.923 5.61-1.022 1.024-1.961 2.241-3.746 3.434-.706.472-1.672 1.329-1.672 2.17v1.123c0 .72.22.635.374.931.221.429.401.684.748 1.123.241.303.138.256.374.748.12.247.287.142.373.747.06.426.065 1.077 0 1.493-.13.832-.747 1.789-.747 2.809 0 .342.393 2.049.56 2.049.11 0 .561.714.561.932 0 .727.142.329.561.748.564.565 1.477.729 2.241 1.495.838.839 1.532.856 1.681 2.057.078.635-.393 2.24-.934 2.24-.568 0-1.665.317-2.429.374-1.41.103-1.206.461-2.054 1.307-.539.537-.935 1.504-.935 2.25 0 .57.374.962.374 1.486 0 .801.696.332.748.934.088 1.01-1.046 1.79-1.682 2.429-.297.298-.934.144-.934.748 0 .276-.823 1.217-1.12 1.307-.884.266-.88-.622-1.495-.745-.662-.133-1.656.159-2.056.558-.467.466-1.679 1.218-1.679 1.494 0 .289-2.917.383-3.363.561-.468.187-.7.749-1.309.749-.361 0-.765-.056-1.109.059-.674.223-3.186.232-3.186 1.248 0 .621-1.571 1.011-2.063 1.502-.502.501-.664.533-.926.923-.268.4-.262 1.011-.561 1.311-.365.364 1.39 1.681 1.494 1.681.497 0 .934 2.05.934 2.055 0 2.061-.503 3.409 0 5.043.238.773.243 1.41.374 2.241.221 1.406.246 1.25-.748 2.244-.719.718-.961.7-1.12 1.868-.158 1.152 0 2.456 0 3.612 0 .671-1.784 1.822-2.145 2.544-.373.742-1.74 1.008-2.713 1.317.323-.103-1.29.565-1.12.372-.432.492-.175.596-.374 1.121-.288.758-.641 1.842-.747 2.615-.107.776 0 1.643 0 2.43 0 .217-.761.932-.187.932.173 0 .561 1.017.561 1.31 0 .623-.148 1.826-.561 2.24-.97.97-.228 1.225.187 2.054.355.708.439 1.397.747 1.871.726 1.121 1.312 1.286 1.494 2.613.268 1.961.374 3.069.374 5.044 0 1.818 1.121 2.476 1.121 4.484 0 2.511 2.193 3.42 4.11 4.858 2.133 1.598 4.496 3.571 5.7 5.983.421.843.514 2.088-.096 2.794-.536.619-2.147 1.017-2.243 1.497-.055.277.554 1.325.749 1.493.697.604 1.811.428 2.427-.186.668-.665 1.478-.249 2.056-1.307.522-.954.031-1.497 1.314-1.497.784 0 1.76.714 2.049 1.123.049.071 1.12 1.731 1.12 1.681 0-.165 1.695 1.406 1.868 1.683.18.286.202.185.373.747.204.668.374.83.374 1.692 0 3.178 3.285 5.081 4.484 7.648.106.229.843 1.29.747 1.495-.325.699-1.853.388-2.801.353-3.191-.118-6.401-.353-9.595-.353-23.864 0-47.675-2.243-71.551-2.243-11.543 0-23.053-1.122-34.601-1.122-11.891 0-23.868-.383-35.756-.747-24.307-.744-48.63-1.246-72.959-1.753-2.39-.049-4.917-.488-7.227-.488h-5.491c-1.106 0-2.123.481-2.123-.747 0-.552-.039-.921-.157-1.446-1.064-4.743-2.129-9.485-3.193-14.226-.134-.596-1.057-2.934-.695-3.478.313-.469 1.59-1.828 1.333-2.34-.435-.866.289-1.307.845-2.048-.724-.395-1.201-2.587-1.09-3.69.111-1.107.222-2.214.333-3.322.087-.869 1.786-.18 2.25-.087 0-11.656.658-23.37 1.09-35.017.38-10.239.674-20.434 1.188-30.702.306-6.125.548-12.251.869-18.375.303-5.739.964-11.525.964-17.271 0-12.015 1.494-24.014 1.494-36.023 0-5.641.747-11.159.747-16.779 0-5.417.748-10.927.748-16.315 0-10.151.126-20.356.843-30.389.529-7.398.651-14.888.651-22.306 0-3.828.373-7.636.373-11.485 0-1.613.98-9.743 0-10.06.367-.329.282-2.332.187-2.428-.809-.811 1.494-1.91 1.681-2.428-.741-.557-.061-.851 0-1.496.01-.108-.482-.236 0-.748-.255.82-.747.074-.747-.559 0-.964-.748-.686-.748-1.496 0-.453-.916-.813-1.12-1.307.082.199 1.569-.351 0-.372.555-.248.39-.186 0-.747.875-.181-.005-.321 0-.374.05-.513.374-.773.374-.936 0-.655.45.092 0-.561-.397-.576-1.142-.369-1.494-.745-.351-.374.567-.266.374-.749-.246-.612-.749-.544-.749-1.307 0-.305-.635-.792-.747-.932-.248-.31-.618-.704-.747-1.122-.33.764-.754-.793-1.495-1.123-.708-.316-.069.689-.747 0-.361-.367-.498-.36.373-.372-.683-.623-2.665-.363-3.362-1.495-.666 1.506-.609-1.121-1.307-1.121-.512 0-.977-.41-1.682-.374-.57.028-1.034.54-1.867.374-.004-.001-.374.866-.374-.188 0-.456-.374.083-.374-.373 0-.428.546-.268.748-.559.16-.229.829-1.176.747-1.496.047.184-1.336-.499-1.495-.748.951-.752 1.756-2.774 1.122-3.36 2.273-1.453-1.716-4.447-1.87-5.231-1.044 2.277-.698-2.094 0-2.242-.61-.391-.636-.924-1.121-1.123 1.079-1.452-.735-3.754-1.59-2.047-.131.261-.254.928-.464.928-.621 0-.323-.265-.56-.374-.195-.089-.747-.47-.747-.56 0-.425-.477-.051-.748-.187-.249-.124.305-.747-.187-.747-.365 0-.071.705-.561.747-.467.04-.529-.373-.933-.373-.509 0-.541.282-.934.373.174-.04-1.494.972-1.494.187 0-.852-.881-.187-1.122-.187-.789 0-.95.845-1.867.747.17.019-.374-.616-.374-.56 0-.728-.488.239-.374.187-1.493.685-.751 2.104-2.615.747-.356-.259-.777-1.462-1.681-.56-.518.516-1.698.61-2.429.56-.81-.056-.916-.762-1.495 0-.429.564-.019.727.748 1.493-.366.133-1.733 1.578-1.869 2.242-.156.762.991 1.28-.373 1.496.352.235.878.39 1.121.748.601.881 0 .402 0 .932 0 .966-.991 1.458-1.494 1.683.125.125.249.249.373.374-1.186.94-1.21-.685-1.868.747.324.294.597 1.023.373 1.494-.255.533-.546.373-1.307.373-.645 0 .186 1.136.186 1.307 0 .143.993.443 1.121.56-.594 1.207-1.206.579-.47 2.05.397.792.086 2.061-.837 2.061-.575 0-.914-.092-1.308.374-.535.633.342.647 0 1.121-.254.352-1.816 1.12-2.054 1.12-1.628 0-4.25-2.579-5.635-3.62-.978-.735-.968-1.381-2.212-1.796-1.15-.385-2.055-.921-2.055-2.242 0-.83 1.19-2.192 1.606-3.024.281-.561.784-1.078 1.009-1.647.359-.904.181-.471 0-1.495-.272-1.542-.519-1.985.251-3.332.727-1.272 1.467-1.783.872-3.019-.858-1.781-3.093-3.037-2.989-4.858.017-.299.575-1.954.746-2.241.343-.576 2.243-1.441 2.243-1.68 0-1.025 1.119-1.464 1.119-2.243 0-.984.747-1.896.747-2.616 0-1.388 1.496-3.302 1.496-4.482 0-1.141 1.121-2.437 1.121-3.361 0-.915-.58-1.502-.375-2.432.167-.754 1.113-1.492 1.675-1.492.626 0 1.465-1.459 1.688-1.869.459-.84.091-1.049.747-1.869.609-.762.739-1.096 1.218-2.06.408-.82 1.354-1.631 1.771-2.05.467-.47 1.139-.961 1.868-1.868.293-.364.902-1.173 1.121-1.866.246-.777 0-1.992 0-2.803 0-2.175.031-3.958 1.309-5.232 1.3-1.3 2.595-3.878 3.451-5.597.237-.475 1.25-1.976 1.218-2.436-.052-.742-1.226-2.079-1.59-2.808-1.016-2.031-.613-3.902-3.086-5.134-1.112-.554-1.902-1.51-2.976-2.049-.653-.328-.261-2.407-.754-2.898-.637-.635-.413-1.757-1.419-2.512-1.334-1.003-1.888-1.292-2.602-2.725-.898-1.804 1.696-5.088 3.28-5.88.869-.435 2.095-1.204 2.422-1.774.338-.589.449-1.867-.187-1.867-.251 0-1.894-1.546-2.152-2.062-.557-1.112-.22-2.218.155-3.343.746-2.236 2.662-4.157 1.18-6.375-.784-1.174-1.317-2.577-1.948-3.84-.692-1.384-2.199-2.668-3.19-3.856-1.66-1.992-1.821-4.941-2.813-7.321-.566-1.359-1.11-2.634-1.467-4.058-.337-1.35.408-3.511.591-4.885.305-2.295.408-5.833-.398-7.978-.492-1.31-1.17-2.699-1.354-4.106-.178-1.364.369-2.202.53-3.488.34-2.71.781-5.296 1.311-7.956.324-1.627-.436-5.412-2.034-6.212-.695-.348-2.173-.776-2.609-1.211-.911-.911-1.528-2.005-2.626-2.372-3.016-1.004-1.797-4.032-1.27-6.138.343-1.378.688-2.755 1.032-4.133.344-1.371.192-2.878.623-4.171.916-2.744 2.729-5.266 4.02-7.853.51-1.023.222-2.307.748-3.362.715-1.44.275-2.191.275-3.741 0-.612-.667-1.084-.747-1.67-.023-.17.431-.698.375-1.121-.078-.592-.748-1.062-.748-1.682 0-.631.673-1.382 1.003-1.879.514-.772 2.168-1.385 2.734-2.417.335-.613.372-.996.372-1.688 0-.609.374-1.04.374-1.488 0-.933.456-2.267.748-3.176.144-.446.244-.859.471-1.314.455-.914-.097-.737-.097-1.495 0-.551-.147-1.379.097-1.868.429-.861.851-1.042 1.396-1.675 1.058-1.226.374-2.286.374-3.929 0-1.595 2.242-.353 2.242-2.227 0-.623 1.035-1.067 1.495-1.316.68-.367.974-.228 1.673-.927.568-.567.652-.896 1.316-1.314.703-.442 1.868-.374 1.868-1.495 0-1.088.154-1.275.927-2.048.329-.329-.002-.602.194-.941.069-.118.63.001.747-.373.337-1.07.023-1.248.747-2.242.578-.794.747-.467.747-1.674 0-1.248 3.446-1.008 1.868-2.81.475-.432 1.541-.396 2.435-.844.646-.323 1.044-.768 1.557-1.281.694-.694.605-.117 1.426-.117 1.386 0 .634-1.867 1.121-1.867.915 0 1.489-2.785 1.722-3.487.783-2.35 2.303-5.276 1.028-7.825-1.229-2.458-2.638-5.356-2.985-8.121-.179-1.43-.354-2.86-.513-4.292-.161-1.461.186-2.592.186-4.026 0-3.085-.525-5.511-1.674-8.38-.387-.967-1.687-2.231-1.687-3.213 0-1.617.076-3.112.276-4.716.252-2.026 3.697-4.374 5.148-5.826 1.6-1.601 1.431-4.993 2.241-7.016 1.115-2.785 2.831-5.322 3.917-8.109.396-1.015.59-2.294.748-3.363.15-1.011-.196-1.665-.374-2.241-.246-.796-.376-1.509-.748-2.242-.299-.591-.748-1.031-.748-2.055 0-1.924.649-3.837.374-5.791-.223-1.59-1.867-3.895-1.867-5.417 0-.758-.138-5.045-.561-5.045.109 0-.935-1.394-.935-1.307 0-.665-.611-1.109-1.12-1.682-.851-.954-2.241-1.217-2.241-3.163 0-.757.24-2.095 0-2.814.125.376-.544-.9-.374-.748-.337-.301-1.153-.155-1.495-.372-.742-.472-.925-.954-1.12-1.869-.124-.582-.236-2.243-.935-2.243-.063 0-1.307-1.305-1.307-1.307 0-.984.029-1.621-.375-2.428-.539-1.078-2.648-2.253-3.735-2.616-1.458-.486-2.112-2.094-3.363-3.362-.833-.843-3.363-3.223-3.363-4.285 0-1.308-.132-1.896-.862-2.989-1.214-1.817-.816-1.195.116-2.814 1.272-2.209-1.122-3.033-1.122-5.032 0-1.196-.096-1.415-.941-2.26-.901-.903-1.725-1.201-1.203-2.243.675-1.345 1.023-2.898 1.023-4.476 0-.158-.868-1.681-.186-1.681.747 0 1.919-1.302 2.429-1.868-.511-.089-2.039-1.593-1.869-2.242.037-.14 1.121-.02 1.121-.56 0-.473.662-.783.748-1.309.085-.52-.488-.604-.374-1.119.131-.594.409-.173.747-.748.555-.942.355-1.495 1.681-1.495 1.556 0-.197-1.894-.187-1.867-.235-.662-.055-.374 0-1.122.038-.524.659-.836.187-1.308-1.218-1.216.74-1.08.935-1.308.938-1.092-.374-1.358-.374-2.054 0-.054-.79-.56-.187-.56.129 0 1.25-.677 1.309-.748.099-.122 1.12-1.7 1.12-2.061 0-.251.133-1.081 0-1.302-.099-.164-1.021.165-1.12 0-.308-.513 0-2.187 0-2.801v-13.07c0-.447.272-2.062.559-2.062.113 0 1.682-1.981 1.682-2.056 0-.385 1.14-2.094 1.397-2.607s.844-2.069.844-2.249c0-.724.748-1.44.748-2.248 0-1.095.907-1.834 1.681-2.608.67-.672 1.325-.954 1.868-1.496.329-.328.569-2.429.747-2.429.605 0-.56-5.084-.56-5.791 0-.58-1.868-.667-1.868-1.494 0-1.05-1.327-1.514-1.868-2.055-.892-.892-1.838-3.362-3.176-3.362-.5 0-1.532-.789-2.054-1.121-.586-.373-1.453-.903-1.87-1.496-.415-.587-.281-1.024-.747-1.494-.162-.163-.585-.584-.747-.746-.669-.666-.51-.191-.747-1.121-.099-.388 0-.909 0-1.308 0-.335-.945-.167-.652-.754.341-.68-.189-1.002-.096-1.3.172-.55.567-.576.748-1.121.119-.36 0-.931 0-1.309 0-.588.374-.453.374-.746s.373-.161.373-.748c0-.839.765-.311 1.121-.561.488-.342.484-.852.747-1.494.054-.132.346-.246.452-.722.216-.974.432-1.947.648-2.92.57-2.566 1.339-5.179 1.861-7.802.598-2.998 2.639-4.245 4.885-5.742 2.319-1.547 1.495-4.919 1.495-7.379 0-1.277-.386-2.554-.375-3.83.013-1.371.354-2.803.507-4.173.086-.78.682-3.233.055-3.86-.943-.944-1.928-1.822-2.802-2.802-1.823-2.043-2.071-4.621-1.309-6.912.715-2.15 1.453-4.212 2.54-6.386.595-1.19 7.241-.689 8.463-.732 5.241-.181 10.576-.541 15.805-.541h2.543c.381 0 1.054.382 1.239.345 1.381-.276 2.537-.345 3.943-.345 2.603 0 5.156-.339 7.746-.377 12.377-.183 24.791-.745 37.165-.745 11.578 0 23.141.374 34.721.374 11.907 0 23.791-.747 35.697-.747 12.252 0 24.499.373 36.752.373 11.172 0 22.485-.261 33.608.798 5.502.525 10.986 1.608 16.505 1.898 5.851.308 11.621-.08 17.473-.08 22.504 0 44.9 1.494 67.415 1.494 11.486 0 22.982-.747 34.454-.747 5.746 0 11.509.374 17.269.374 1.23 0 2.506-.374 3.795-.374.545 0 1.014.367 1.529.374.645.01 1.288-.374 1.935-.374h9.477c2.806 0 5.591-.374 8.406-.374 2.415 0 5.061.311 7.457 0 .573-.074 1.376-.373 2.482-.373h6.328c2.993 0 5.991.203 8.982.323 5.449.218 10.877-.59 16.291-.698 6.32-.126 12.649-.372 18.97-.372 7.106 0 14.214-.374 21.329-.374 8.342 0 16.66-.16 24.999-.373v.373c1.015-1.206 6.993-.373 8.704-.373h7.146c5.674 0 11.341.022 17.012-.135 6.35-.176 12.679-.239 19.033-.239 1.618 0 .286.685-.487.878-.454.114-1.126.136-1.536.34-.476.238-.61 1.023-1.114 1.023-.326 0-.139 1.869-.748 1.869-1.04 0-1.897.466-2.803.373.039.004-1.07-.697-1.306-.934-.264-.265-.482-.264-.746 0-.382.381-.575-.357-.936-.56-.084-.047-1.082-.709-1.306-.935-.245-.244-1.041.053-1.502.284-.75.375-.903 1.398-1.868 1.398-.445 0-1.803.252-2.241.471-.743.371-1.419.393-2.05 1.023-.275.275-1.784 1.593-1.867 1.869-.334 1.105.888.391.747 1.12-.181.942-.92.619-1.495 1.122-.137.119-1.017 1.494-.56 1.494h1.121c.499 0-.045.531.187.747.117.109 1.12.917 1.12 1.308 0 1.096.853 1.038 1.495 1.681.615.614 1.955 2.738 1.122 3.363 1.457 1.072 2.342-.912 2.616 1.494.079.693-.052 1.382-.187 2.055-.171.852-.854 1.313-.936 2.055.018-.163.734.198.749.374.049.592-.375.155-.375.561 0 .71.707.657.749.933.198 1.284-1.29 2.726-1.869 1.121-.124.124-.249.249-.373.373.636.189.155.825.94 1.218.988.495.928.403.928 1.585 0 .455.742.534.746.56.079.475-.372.525-.372.934 0 .361.606 1.239.938 1.405 1.124.562.595.692 1.482 1.578.437.437 1.371.949 1.688 1.688.373.869-.326 1.065.747 1.494-.128-.051.784-.373.935-.373-.005 0 .511.329.559.373-.262.176-1.005.442-1.12.747-.156.412.406 1.02.374 1.121-.215.659.119.404-.374.748-.118.083-.61-.441-.748-.374-.296.144-.469.566-.746.747-.345.225-1.235 1.24-1.495 1.495-.525.515-1.868 1.491-1.868 2.054 0 .59.748.419.748.748 0 .488-.849.937-1.12 1.308-.09.122-.397 1.135-.374 1.12-.503.341-.26-.864-.943-.18-.809.812-1.122 1.617-2.047 2.422-.343.3-.466.328-.748.747-.192.287.29 1.122-.186 1.122-.311 0-1.009 1.181-1.68 1.494-.902.42-1.689.454-2.617 1.121-.622.448-1.855 1.251-1.869 2.24-.005.372.13 1.123.562 1.123.768 0-.25.858-.187.746-.673 1.196-1.869.994-1.869 2.422 0 .762.894 1.409 1.122 2.436.237 1.074-.185 1.808-.747 2.241-.203.156-.946.2-1.121.373-.231.227-.626 1.506-.748 1.868-.103.306-.171 1.694-.373 1.869-.239.206-1.161-.083-1.495 0-.868.215-2.065 1.141-2.519 2.047-.839 1.675-.992 1.363.277 2.437.746.63 1.775 1.029 1.307 2.428-.425 1.274-.925 1.719-.933 3.176-.001.196.372.277.372.561 0 .359-.372.387-.372.746 0 .475-.967 1.155-1.307 1.494-.117.117-.561 1.207-.561 1.122 0 .404-1.298.089-1.688.284-.637.317-1.218.235-1.855.553-.698.349-.923 1.085-1.687 1.218.748 1.02.336 1.513-.568 1.964-1.066.533-.988 1.629-2.049 2.519-.443.372-.766.384-1.299.651-.754.376-.29.938-.755 1.404-.322.322.008.836-.38 1.031-.63.315-.761.782-1.301 1.024-.46.207-.912-.209-1.308.187-.234.235-.982.56-1.307.56s-1.074.326-1.309.561c-.589.588.118.764.187.934.255.634-.089.38.374.747.377.298.838.351 1.121.747.383.535.305.897.374 1.495.037.324-.498.125-.277.567.172.345.305.545.277.927-.087 1.183-.374 1.205-.374 2.505 0 .321.207.736.374.858.859.624.727-.215 1.494 0 1.457.407.271.654.374 1.868.076.901.848 1.148 1.494 1.869.626.696.559 1.305 1.309 2.054.451.451.353.144.657.754.151.304.669 1.301.837 1.301.895 0 1.323.823 1.307 1.494-.012.478-.536.99-.374 1.495.043.134.722.347.935.56.31.31 1.45.044.747.747-.461.46-.933.362-.933 1.308 0 .637 1.12 1.847 1.12 2.803 0 .597-.004.942-.278 1.487-.418.835.474.763.844 1.134.414.415 3.169 1.175 3.169 1.114 0 1.1-2.303 1.248-1.3 2.249 1.42 1.42-1.013 1.974-.381 2.608.832.834.99 1.683 2.235 1.683.325 0 1.314-.161 1.314.187 0 .706-.321 1.12-1.12.932.518.792 2.103 1.128 2.988.749.619-.265.489-1.122 1.309-1.122.813 0 .74 1.37.934 1.868.25.645 1.109 1.543 1.121 2.242.017 1.034-.356 1.121-1.308 1.121-.499 0 .072 1.494.74 1.494.855 0 1.211 1.495 1.501 1.495.213 0 .47.374 1.156.374.575 0 .874-.084 1.274.373-.328.3-.906.157-1.309.56-.568.57-1.236-1.208-2.054-.186.414.299.992.243 1.307.56.448.449.489.221.933.562.264.202 1.864 1.12.562 1.12-1.285 0-1.57-2.326-2.095-.219-.436 1.751-.138 2.502.282 4.176.326 1.299.265 2.295-.989 2.768-.466.175-1.246-.307-1.495.373-.098.27.885 1.055 1.121 1.122.731.205 1.198-.078 1.673-.554.709-.708.711.554.382.554-.809 0-1.361 1.846-.935 2.241.523-.683 1.385-.264 2.056-.934.265-.265.483-.265.748 0 .565.565-.129.395-.187.561-.067.186-1.094.747-.561.747.414 0 .446.374.934.374.654 0 .582-.333.747-.374 2.697-.675-.476 1.494 1.308 1.494 1.878 0-1.143 2.626-1.682 2.989-.83.558-.587.918-1.494.374-1.117-.671-.375-.931-.375-1.681 0-.875-1.032.563-1.119.933-.193.823.108 1.449.373 1.869.406.646 2.239 2.069 0 2.241-.641.05-1.234-.634-1.682-.187-.434.435-.216 1.318.188 1.682-.493.441-1.553 1.112-2.616 1.121-1.136.01-2.025-.748-3.182-.748-2.064 0-4.119-1.085-5.134.942-.247.493-.447 1.096-.837 1.487-.615.617.187.967.187 1.495 0-.01 2.828 2.428 2.801 2.428 2.041 0 4.297 2.485 4.297 4.296 0 1.745-2.865 4.493-4.483 4.671-1.315.145-1.979-.24-1.495 1.121.376 1.06 1.493 1.495 2.055 2.055.737.734.674 1.798 1.495 2.615.328.328 1.143.46 1.308.934.084.241-.457.747-.56.747-1.308 0-1.25-.432-2.056-1.121-.2-.171-.072-.994-.747-.746-.829.304-.133.988.186 1.307.596.598.74 2.055 0 2.055-.767 0-.63-1.451-1.681-1.121-.669.209-.373 1.62-.373 2.422 0 .389-1.4 2.808-1.308 2.808-.299 0-.149.375-.735.375-.682 0-1.102.329-1.693.373-.994.075-2.055-.707-2.989-.373-1.639.587-1.479 4.893-4.111 4.109-.906-.27-1.128-1.093-.747-1.494.485-.511 2.787-.392 2.616-1.495-.218-1.4-1.958-.373-2.43-.373.151 0-1.289 1.62-1.68 1.868-.287.181-1.304 1.12-2.055 1.12-.699 0-.741 2.243-.373 2.243.583 0 2.52 1.4 1.868 2.054-1.069 1.071-1.528 1.346-3.022.973-2.106-.525-1.833 4.809-2.298 5.745-1.191 2.391-2.14 3.183-4.78 3.183-2.878 0 .393 2.67-1.296 3.363-.057.024-.736-.548-1.121-.374-.092.042-.284 1.008-.374 1.12-.335.419-1.366 1.496-2.053 1.496-1.035 0-1.396 1.351-2.236 1.771-.364.182-.94.063-.94.657 0 .618-.479-.346-.748-.186-.849.501-1.327 1.494-2.803 1.494-1.17 0-2.187-.374-3.375-.374-.443 0-2.676.261-2.977.561-.793.791-1.394 2.187-2.053 2.802-1.615 1.506-2.841-1.494-4.671-1.494h-2.242c.102 0-2.086 1.183-2.152 1.314-.914 1.832-3.505.927-5.321.927-1.208 0-3.521 2.564-3.548 3.363-.028.848 1.528 1.833.934 2.428-.864.865-1.705.037-2.802.187-1.516.206-1.258.767-1.494 1.868-.336 1.562-.197.994.373 2.242.072.158.614.125.372.747-.014.035-.722.33-.745.373-.583 1.079-.225 1.341.039 2.397.277 1.111 1.056 1.896.334 2.835-.577.75-1.908.746-2.802.746-1.122 0-3.797 1.565-4.672 2.243-1.197.929-3.301 1.98-4.855 2.241-1 .168-1.623.175-2.242.373-.715.229-1.164.747-2.056.747-.295 0-.159.374-.746.374-.403 0-.615-.374-1.121-.374-.321 0-1.537-1.048-1.875-1.216-.593-.296-2.062-1.025-2.61-1.025-1.043 0-1.857-1.12-2.615-1.12-.705 0-1.082-.496-2.156-.362-1.853.233-2.712.368-4.206 1.365-1.791 1.196-2.999 3.784-5.593 2.919-1.282-.427-1.913-.561-3.426-.561-1.258 0-2.147.374-3.299.374-1.02 0-2.377.266-3.35-.058-.751-.25-2.56-.65-3.189.058-.597.672-.333 2.147-1.12 2.617-.96.572-2.383.63-3.362 1.12-1.864.934-3.36 1.68-5.605 2.241-.362-.788-2.515-.912-3.363-.373-1.352.861-.374 1.473-.374 2.802v1.902c0 .787-.373 1.631-.373 2.208 0 1.514-2.148 1.781-2.989 2.429-.571.441-.602 1.154-1.121 1.494-.433.284-1.299.025-1.868.374-.447.273-.364.738-.746 1.121-.121.12-.637-.127-.749 0-.333.38-.265.53-.469.94-.191.383-2.194 3.543-1.958 3.543-.29 0-.562.929-.562 1.307 0 .841.515.903 1.121 1.308.437-.682 1.098-.876 1.868-.746-.167.214-.201.536-.373.746.646.148.405 1.686 0 .748-.47.436-.252.577-.373 1.121.17-.763.135 1.122 0 .374.125.693.746 1.756.746 2.427 0 2.23 2.989 3.21 2.989 5.231 0 2.081-1.345 3.752-1.494 5.791-.083 1.133.204 1.664 0 2.616-.218 1.017-1.868 1.894-1.868 2.429 0 .68.373 1.721.373 2.621 0 1.315-1.486 1.197-1.868 2.423-.141.455-.452 2.248-.373 2.615.183.842 1.899 1.93 2.338 2.809.809 1.615.708 4.346 1.958 5.597.297.297.934.144.934.747 0 .412.013.934.56.934 2.186 0 .561.182.561 1.308 0 .853.89.187 1.308.187.524 0-.58 1.642-.934 1.868h.374c-.531.398 0 4.285 0 5.417 0 .982 1.814 1.109 2.24 1.681.4.537.277-.115 0 .748-.134.418-.746.737-.746.941 0 1.704.005.838-1.12.927-.623.049-1.565.245-2.243.747-.364.269-.546 1.121-.941 1.121-.865 0-.553.547-.553 1.34 0 .527-.299.79-.374 1.276-.155.99-.145.687.186 1.681.535 1.602.319 4.139 2.056 4.297 1.191.108 1.076-.731 1.495-1.495.803-1.464.824-.748 2.055-.748 1.818 0 1.48 3.194.373 4.298-.703.699-1.286.56-2.248.56-1.609 0-.874 1.868.38 1.868 2.296 0 3.454 2.615.374 2.615-.328 0-.16-.746-.747-.746-.286 0-.362-.374-.561-.374s-.275.374-.561.374c-.613 0-2.344.54-2.428 1.12.087-.595.487.886.374.747.172.213.955.242 1.12.748.285.875-1.123 2.243-1.682 2.802-.775.776-.185 2.055-1.481 2.055-.942 0-2.634-.382-2.815.746-.235 1.472 1.489.788 1.869 1.495.403.748-1.373 1.247-1.993 1.557-1.078.54-2.422.838-2.865 1.806-.559 1.219.272 1.285.846 2.436.568 1.142.065 1.779-1.025 2.324-.954.478-.298 1.364-.94 2.337-.621.942-1.131.739-2.049-.179-.973-.972-1.688.717-1.688 1.477 0 .829.191 2.067.934 2.067.799 0 .496 1.186.187 1.495-.56.557-.482.048-.747-.748-.238-.71-.317-1.449-1.496-1.494-3.063-.119-.924 3.072-1.494 4.483-.477 1.185-3.704 2.36-3.737 3.736-.016.653.92 1.834 1.22 2.435.431.864-.097 1.747-.097 2.796 0 1.249-1.061 4.162.373 4.109.622-.023.612-.577 1.121-.747.679-.226.588-.069 1.12 0 1.054.136 2.178.747 3.177.747.962 0 1.271.747-.008.747-1.166 0-1.842 1.121-2.234 1.121-.632 0 .559 1.297.559 1.681 0 .556-1.415 2.392-1.868 2.803-1.162 1.053-5.412.384-4.012 3.183.944 1.889.277 3.544.277 5.586 0 3.058-2.746 2.829-4.483 4.682-.901.96-1.071 1.232-2.243 1.867-.916.496-1.718 1.203-2.615 1.868-.812.603-1.413.958-1.945 2.024-.571 1.139-.497 2.385-1.417 3.209-.233.208-1.188.702-1.495.744-.565.076-.856-.696-1.494-.372-.61.309-.747 2.125-.747 2.802 0 .827 2.075 3.548 1.68 3.548-.512 0-1.593 1.122-2.607 1.122-1.126 0-2.436.086-2.436 1.496 0 1.105-.748 1.565-.748 2.795 0 1.011.75 1.544 1.122 2.435.134.321.373.941.373 1.121 0 .573-.516.688-.314 1.295.416 1.253.422 2.318-.059 3.562-.884 2.285-1.97 3.117-.748 5.603.362.738.748 1.214.748 2.422 0 1.455-.765 1.707-1.676 2.614-.611.611-.767 1.355-1.312 2.439-.296.589-.732 1.866-1.31 1.866-.665 0-2.053 1.389-2.053 2.055 0 .4-.104.831.186 1.121.581.581-.155.847-.186 1.309-.04.586.251 1.722 0 2.24-.472.972-2.576 1.494-3.55 1.494-1.029 0-1.81 4.484-2.99 4.484s-.953 3.773-3.175 3.364c1.071-.181 1.136-.979 1.868-1.123-.785-.071-1.286.339-1.868.749-.216.153.042.748-.562.748-.639 0 .123-.338.188-.374-1.082.543-2.005 1.001-3.063 1.531-.994.497-3.203 2.206-4.222 2.206-.447 0 .004.329-.188.372-.402.089-.512-.391-.746-.372-.448.036-.976-.146-1.308.186-1.032 1.029-.868 2.204-2.055 3.176-1.56 1.276-3.219 3.075-4.205 5.051-.386.772-1.196 1.199-1.953 1.575-.498.249.077.873-.193 1.219-.29.371-.825-.074-1.121.748.814.184-.707 3.516-.746 4.482-.017.413.607.648.275 1.315-.378.761-.304.901.285 1.488.986.983-.449 1.574.56 2.429-1.459.084-.275 1.672-.374 2.242.048-.273-.732.352-.746.374-.232.374.29.974-.194 1.216-1.487.742-2.423 2.96-2.423 4.585 0 1.852 1.175 4.286-2.048 4.286-.625 0-1.845 1.058-2.062 1.494-.288.58-.068-.105 0 .748.037.463.765.727.187 1.306-.261.262-.047.935-.373.935-.001 0-.614.428-.748.561-.247.247-.934 2.507-.934 2.997 0 1.011.383 1.128.747 1.673.334.499-.192.837.568 1.217.452.227.927.658.927 1.025 0 .706.154 2.242-.934 2.242-.719 0-2.225 1.765-2.802 2.241-.743.613-1.679.935-2.435 1.689-.935.93-2.132.634-2.982 1.487-.44.441-1.307.185-1.868.748-.336.335-1.213.621-1.682.934-1.253.833-2.446 1.456-2.988 2.989h.374c-.927.324.01.799 0 1.493-.009.642.034 1.637-.374.749-1.027 1.532 0 3.68 0 5.79" fill="#789716" fill-rule="nonzero" transform="translate(313.013 296.048)"/></svg>